<svg xmlns="http://www.w3.org/2000/svg" width="737.666" height="454.341" viewBox="0 0 737.666 454.341">
    <defs>
        <style>
            .cls-1{fill:#339}.cls-2{fill:#c39}.cls-3{fill:#639}.cls-4{fill:#7ce0db}.cls-5{fill:#c6c6c6}.cls-6{fill:#fff}.cls-7{fill:#bfbfd4}.cls-10{fill:#0cc}.cls-11{fill:#f3836b}.cls-12{fill:#003}.cls-13{fill:#376f98}.cls-28{isolation:isolate}.cls-15{fill:#241734}.cls-17,.cls-27{fill:none}.cls-17{stroke:#000;stroke-linejoin:round;stroke-width:2.647px}.cls-18{fill:#c17157}.cls-22{fill:#88eae7}.cls-23,.cls-28{fill:#63457c}.cls-24{fill:#fbdcc3}.cls-27{stroke:#0cc}.cls-28{opacity:.4}
        </style>
    </defs>
    <g id="axe_-_contact_us" data-name="axe - contact us" transform="translate(10947.629 24763.31)">
        <g id="Group_6724" data-name="Group 6724" transform="translate(967 -149)">
            <path id="Path_5417" d="M735.154 267.224H101.242a3.052 3.052 0 0 1 0-6.1h633.912a3.052 3.052 0 1 1 0 6.1z" class="cls-1" data-name="Path 5417" transform="translate(-11962.695 -24428.373)"/>
            <path id="Path_5418" d="M488.052 267.224h-26.07a3.052 3.052 0 0 1 0-6.1h26.07a3.052 3.052 0 0 1 0 6.1z" class="cls-1" data-name="Path 5418" transform="translate(-11668.067 -24428.373)"/>
            <path id="Path_5419" d="M103.277 266.884H81.712a3.052 3.052 0 1 1 0-6.1h21.565a3.052 3.052 0 1 1 0 6.1z" class="cls-1" data-name="Path 5419" transform="translate(-11978.646 -24428.652)"/>
            <circle id="Ellipse_51" cx="4.505" cy="4.505" r="4.505" class="cls-2" data-name="Ellipse 51" transform="translate(-11914.629 -24168.98)"/>
        </g>
        <g id="Group_6723" data-name="Group 6723" transform="translate(-11138.409 -25183.311)">
            <path id="Path_5380" d="M328.242 37.693h-16.221a2.2 2.2 0 0 1 0-4.4h16.221a2.2 2.2 0 0 1 0 4.4z" class="cls-2" data-name="Path 5380" transform="translate(-52.746 438.874)"/>
            <path id="Path_5381" d="M325.492 43.093h-16.221a2.2 2.2 0 1 1 0-4.4h16.221a2.2 2.2 0 1 1 0 4.4z" class="cls-3" data-name="Path 5381" transform="translate(-53.599 440.55)"/>
            <path id="Path_5382" d="M145.122 79.313H128.9a2.2 2.2 0 0 1 0-4.4h16.221a2.2 2.2 0 1 1 0 4.4z" class="cls-2" data-name="Path 5382" transform="translate(215.105 513.725)"/>
            <path id="Path_5383" d="M405.5 115.063h-16.219a2.2 2.2 0 1 1 0-4.4H405.5a2.2 2.2 0 1 1 0 4.4z" class="cls-2" data-name="Path 5383" transform="translate(-15.831 314.908)"/>
            <g id="Group_6722" data-name="Group 6722" transform="translate(275.777 420)">
                <path id="Path_5544" d="M-504.982 1686.4s12.534 2.392 25.678-12.746 13.463-39.073 13.463-39.073-22.457 3.911-33.674 22.782-5.467 29.037-5.467 29.037z" class="cls-4" data-name="Path 5544" transform="translate(1043.899 -1398.211)"/>
                <g id="Group_6711" data-name="Group 6711" transform="translate(42.151 389.09)">
                    <path id="Path_5484" d="M-1068.636 1812.911l12.078-1.622-3.075 56.27h-7.175l-.522-15.629" class="cls-5" data-name="Path 5484" transform="translate(1070.812 -1809.112)"/>
                    <path id="Path_5385" d="M-1059.957 1869.411h-7.175a2.177 2.177 0 0 1-2.175-2.1l-.522-15.628a2.177 2.177 0 0 1 2.1-2.248 2.173 2.173 0 0 1 2.247 2.1l.453 13.526h3.01l2.819-51.587-9.472 1.273a2.17 2.17 0 0 1-2.446-1.867 2.175 2.175 0 0 1 1.866-2.446l12.078-1.623a2.173 2.173 0 0 1 1.767.559 2.173 2.173 0 0 1 .7 1.717l-3.075 56.269a2.175 2.175 0 0 1-2.175 2.055z" class="cls-3" data-name="Path 5385" transform="translate(1071.136 -1808.788)"/>
                </g>
                <path id="Path_5485" d="M-1060.083 1814.359s-3.43 2.213-4.276 9.353a127.421 127.421 0 0 1-2.8 14.662l-.755 5.977-.722-29.468z" class="cls-6" data-name="Path 5485" transform="translate(1112.962 -1420.42)"/>
                <g id="Group_6724-2" data-name="Group 6724" transform="translate(254.773 352.701)">
                    <g id="Group_6712" data-name="Group 6712">
                        <path id="Path_5486" d="M-788.914 1838.555c5.089-.033 5.312-2.968 5.3-3.121l-3.569-62.939 52.393-2.866-3.428 78.967c-.1 2.079-1.813 2.89-3.894 2.918l-75.2 1.781a4.517 4.517 0 0 1-1.631-.284l-7.715-3.344v-6.3z" class="cls-7" data-name="Path 5486" transform="translate(828.835 -1767.325)"/>
                        <path id="Path_5386" d="M-817.675 1855.126a6.687 6.687 0 0 1-2.352-.42l-.108-.043-9.025-3.914v-9.641l39.906-5.073c2.18-.014 2.981-.656 3.133-1.047l-3.679-64.888 56.967-3.116-3.531 81.365c-.151 3.04-2.464 4.95-6.039 5l-75.183 1.78zm-.79-4.483a2.766 2.766 0 0 0 .8.131l75.18-1.78c1.731-.023 1.76-.6 1.772-.849l3.323-76.556-47.819 2.616 3.446 60.763a4.741 4.741 0 0 1-1.354 3.249c-1.312 1.4-3.321 2.129-5.972 2.17l-35.719 4.555v2.952zm32.358-15.433z" class="cls-3" data-name="Path 5386" transform="translate(829.159 -1766.982)"/>
                    </g>
                    <path id="Path_5487" fill="#e0e0e0" d="M-744.738 1769.495l-.435 65.087c-.064 1.286-.226 4.086-.368 6.5-.141 2.383-1.134 6.439-3.52 6.509l-64.977.985c-.717.01-10.337-3.147-10.183-3.161l37.995-6.426a3.212 3.212 0 0 0 3.006-3.405v-.052c-.115-1.451-4.232-63.341-4.232-63.341-.009-.138 1.186-.274 1.326-.283l45.4-2.648c-7.467.001-4.002.086-4.012.235z" data-name="Path 5487" transform="translate(828.519 -1767.277)"/>
                    <g id="Group_6713" data-name="Group 6713" transform="translate(38.836 .07)">
                        <path id="Path_5488" d="M-739.7 1834.616c-.064 1.286-.226 4.086-.368 6.5a4.606 4.606 0 0 1-4.464 4.333s-33.1-8.059-33.215-9.829v-.051c-.115-1.452-4.232-63.341-4.232-63.341-.009-.139 1.186-.274 1.326-.283 0 0 41.4-2.563 41.389-2.415l-.137 20.5" class="cls-5" data-name="Path 5488" transform="translate(784.21 -1767.381)"/>
                        <path id="Path_5387" d="M-745.094 1847.313l-.285-.07c-.084-.019-8.4-2.047-16.618-4.263-4.846-1.307-8.721-2.427-11.513-3.326-5.042-1.624-6.629-2.418-6.741-4.219v-.106c-.214-2.958-4.061-60.783-4.228-63.276l-.06-.9.609-.7c.229-.26.765-.867 2.816-.992v.065c.965-.126 2.769-.237 6.423-.461 3.859-.236 9.007-.551 14.164-.861 21.17-1.273 21.17-1.273 21.843-.963l1.339.62-.076 1.422-.137 20.452-4.352-.029.122-18.229c-7.568.389-32.7 1.931-38.219 2.274.655 9.858 3.556 53.424 4.034 60.41 3.42 1.558 17.987 5.535 31.294 8.781a2.416 2.416 0 0 0 2.107-2.267c.142-2.407.3-5.2.367-6.48l4.347.218c-.064 1.289-.227 4.1-.37 6.519a6.747 6.747 0 0 1-6.573 6.381z" class="cls-3" data-name="Path 5387" transform="translate(784.542 -1767.062)"/>
                    </g>
                </g>
                <g id="Group_6714" data-name="Group 6714" transform="translate(154.222 41.824)">
                    <path id="Path_5489" d="M-592.171 1692.12l-1.336-254.486a22.254 22.254 0 0 0-22.278-22.232q-1.052.005-2.1.111l-298.066 30.443c-11.369 1.148-27.585 12.9-27.531 24.416l-.742 227.911a22.281 22.281 0 0 0 19.724 22.1l307.937 35.248a22.211 22.211 0 0 0 24.476-19.749 22.451 22.451 0 0 0 .135-2.571" class="cls-7" data-name="Path 5489" transform="translate(946.402 -1413.226)"/>
                    <path id="Path_5388" d="M-614.4 1757.618a24.442 24.442 0 0 1-2.729-.153l-307.943-35.244a24.463 24.463 0 0 1-21.654-24.264l.742-227.905c-.062-13.458 17.847-25.413 29.491-26.588l298.064-30.44c.762-.077 1.539-.119 2.31-.123h.119a24.466 24.466 0 0 1 24.342 24.412l1.336 254.461a2.185 2.185 0 0 1-2.165 2.2h-.011a2.184 2.184 0 0 1-2.176-2.181l-1.336-254.461a20.094 20.094 0 0 0-19.99-20.044h-.1c-.632 0-1.269.037-1.893.1l-298.065 30.441c-10.971 1.107-25.621 12.3-25.575 22.221l-.742 227.9a20.087 20.087 0 0 0 17.788 19.909l307.942 35.245a19.735 19.735 0 0 0 14.691-4.3 20.06 20.06 0 0 0 7.378-13.511 20.668 20.668 0 0 0 .121-2.318 2.185 2.185 0 0 1 2.165-2.2h.011a2.185 2.185 0 0 1 2.176 2.183 24.927 24.927 0 0 1-.148 2.823 24.426 24.426 0 0 1-8.983 16.453 24.047 24.047 0 0 1-15.166 5.384z" class="cls-3" data-name="Path 5388" transform="translate(946.726 -1412.902)"/>
                </g>
                <g id="Group_6715" data-name="Group 6715" transform="translate(153.795 42.364)">
                    <path id="Path_5490" fill="#e2e2e2" d="M-600.363 1682.9l-1.226-245.646a21.256 21.256 0 0 0-21.281-21.232q-1 .005-2 .106l-300.78 30.391a21.28 21.28 0 0 0-19.062 21.339l1.1 232.541a21.282 21.282 0 0 0 18.841 21.105l301.157 33.666a21.213 21.213 0 0 0 23.379-18.858 21.557 21.557 0 0 0 .129-2.462l-.058-11.678" data-name="Path 5490" transform="translate(946.892 -1413.847)"/>
                    <path id="Path_5389" d="M-621.561 1757.156a23.528 23.528 0 0 1-2.62-.146l-301.157-33.661a23.466 23.466 0 0 1-20.777-23.272l-1.1-232.518a23.37 23.37 0 0 1 21.022-23.529l300.779-30.388c.729-.074 1.472-.114 2.208-.117h.123a23.467 23.467 0 0 1 23.347 23.412l1.226 245.62a2.185 2.185 0 0 1-2.165 2.2h-.012a2.185 2.185 0 0 1-2.175-2.182l-1.226-245.62a19.1 19.1 0 0 0-5.633-13.51 18.7 18.7 0 0 0-13.462-5.538c-.6 0-1.2.035-1.8.1l-300.78 30.387a19.015 19.015 0 0 0-17.1 19.144l1.1 232.517a19.093 19.093 0 0 0 16.905 18.935l301.158 33.66a18.777 18.777 0 0 0 13.965-4.081 19.054 19.054 0 0 0 7.011-12.837 19.269 19.269 0 0 0 .116-2.208l-.058-11.677a2.185 2.185 0 0 1 2.165-2.2 2.187 2.187 0 0 1 2.187 2.183l.058 11.676a23.774 23.774 0 0 1-.142 2.715 23.422 23.422 0 0 1-8.618 15.778 23.059 23.059 0 0 1-14.545 5.157z" class="cls-3" data-name="Path 5389" transform="translate(947.216 -1413.523)"/>
                </g>
                <path id="Path_5390" d="M-705 1705.038c-.065 0-.13 0-.195-.009l-239.75-21.24c-2.379-.3-2.4-2.948-2.409-4.37s.085-3.383.2-5.652c.147-3.047.331-6.839.31-10.584l-1.105-198.979c-.06-10.609 9.02-19.4 21.122-20.439l301.873-30.755a22.44 22.44 0 0 1 16.926 5.057c5.177 4.424 8.232 11.267 8.837 19.792l.005.14 1.5 233.758a2.175 2.175 0 0 1-2.162 2.189h-.014a2.176 2.176 0 0 1-2.176-2.162l-1.5-233.687c-.531-7.3-3.061-13.084-7.318-16.722a18.136 18.136 0 0 0-13.694-4.032l-301.879 30.757c-9.853.849-17.224 7.762-17.177 16.081l1.105 198.98c.022 3.862-.165 7.72-.315 10.819-.1 2.038-.207 4.274-.191 5.616l238.192 21.1a2.177 2.177 0 0 1 1.976 2.36 2.176 2.176 0 0 1-2.161 1.982z" class="cls-3" data-name="Path 5390" transform="translate(1101.107 -1371.079)"/>
                <g id="Group_6716" data-name="Group 6716" transform="translate(169.72 59.208)">
                    <path id="Path_5492" d="M-841.409 1677.988l226.525 19.772-1.7-262.147-308.285 28.269s-.011 206.786.909 206.9l67.753 5.914" class="cls-6" data-name="Path 5492" transform="translate(927.048 -1433.229)"/>
                    <path id="Path_5391" d="M-613.016 1699.78l-2.381-.208-226.525-19.772a2.176 2.176 0 0 1-1.978-2.357 2.173 2.173 0 0 1 2.357-1.978l224.145 19.563-1.673-257.388-303.949 27.872c0 54.464.138 186.482.753 202.908l65.922 5.753a2.176 2.176 0 0 1 1.978 2.357 2.176 2.176 0 0 1-2.357 1.978l-67.752-5.914c-2.009-.251-2.059-1.738-2.148-4.438-.05-1.493-.1-3.719-.142-6.619-.083-5.377-.16-13.274-.227-23.474-.113-17.169-.2-41.1-.27-71.126-.111-51.122-.109-102.9-.109-103.412v-1.986l312.622-28.667z" class="cls-3" data-name="Path 5391" transform="translate(927.372 -1432.874)"/>
                </g>
                <path id="Path_5494" d="M-780.381 1651l-.992 17.64a8.746 8.746 0 0 1-9.223 8.241l-.233-.016-74.892-6.224c-4.724-.393-8.452-1.326-8.182-6.057l.908-16.158a8.746 8.746 0 0 1 8.917-8.253l75.154 1.589a8.748 8.748 0 0 1 8.556 8.935c-.006.103-.006.203-.013.303z" class="cls-4" data-name="Path 5494" transform="translate(1089.414 -1398.963)"/>
                <path id="Path_5495" d="M-782.693 1646.187l-1.219 20.788a8.747 8.747 0 0 1-9.242 8.221c-.077 0-.156-.01-.233-.017l-74.879-6.388a8.746 8.746 0 0 1-7.988-9.226l.944-16.155a8.747 8.747 0 0 1 8.936-8.234l75.15 1.756a8.746 8.746 0 0 1 8.545 8.943c-.001.104-.008.207-.014.312z" class="cls-10" data-name="Path 5495" transform="translate(1089.703 -1398.331)"/>
                <g id="Group_6725" data-name="Group 6725" transform="translate(103.434 404.952)">
                    <path id="Path_5496" d="M-974.512 1832.757l-5.141 7.706-.8 1.206s-10.865-2.35-10.455-4.457 4.818-10.2 4.818-10.2z" class="cls-11" data-name="Path 5496" transform="translate(1000.207 -1827.012)"/>
                    <path id="Path_5497" d="M-985.62 1856.925l14.042 6.048h25.013s1.436-5.433-7.994-6.048-20.194-9.43-21.935-12.5a8.1 8.1 0 0 0-4.613-3.792l-10.967-4.305-8.659 14.169-.36.591 11.275 5.943 4.51-7.892z" class="cls-12" data-name="Path 5497" transform="translate(1001.525 -1828.219)"/>
                    <path id="Path_5392" d="M-963.172 1858.513a.574.574 0 0 1-.563-.462.575.575 0 0 1 .452-.675l8.226-1.635a.571.571 0 0 1 .675.451.575.575 0 0 1-.452.676l-8.225 1.635a.552.552 0 0 1-.113.01z" class="cls-6" data-name="Path 5392" transform="translate(996.685 -1830.733)"/>
                    <path id="Path_5393" d="M-967.9 1855.107a.575.575 0 0 1-.563-.462.575.575 0 0 1 .452-.675l8.226-1.635a.572.572 0 0 1 .675.451.575.575 0 0 1-.452.676l-8.226 1.634a.561.561 0 0 1-.112.011z" class="cls-6" data-name="Path 5393" transform="translate(997.299 -1830.292)"/>
                    <path id="Path_5394" d="M-974.127 1850.939a.575.575 0 0 1-.562-.462.575.575 0 0 1 .452-.676l8.226-1.635a.575.575 0 0 1 .675.451.577.577 0 0 1-.452.676l-8.227 1.635a.624.624 0 0 1-.112.011z" class="cls-6" data-name="Path 5394" transform="translate(998.105 -1829.752)"/>
                    <path id="Rectangle_3264" d="M0 0H1.148V12.737H0z" class="cls-13" data-name="Rectangle 3264" transform="rotate(-62.684 19.59 11.93)"/>
                </g>
                <g id="Group_6729" data-name="Group 6729" transform="translate(168.441 169.786)">
                    <path id="Path_5498" fill="#828c96" d="M-914.947 1566.241a9.332 9.332 0 0 1 6.752-5.02l10.307-1.2c2.653-.308 3.957 1.447 2.9 3.9l-12.077 27.941a9.337 9.337 0 0 1-6.752 5.02l-10.307 1.2c-2.654.308-3.957-1.445-2.9-3.9z" data-name="Path 5498" transform="translate(927.393 -1558.815)" style="isolation:isolate" opacity="0.7"/>
                    <path id="Path_5499" d="M-911.866 1566.3a9.336 9.336 0 0 1 6.752-5.02l10.307-1.2c2.653-.308 3.957 1.446 2.9 3.9l-12.077 27.941a9.329 9.329 0 0 1-6.752 5.02l-10.307 1.2c-2.654.308-3.957-1.447-2.9-3.9z" class="cls-10" data-name="Path 5499" transform="translate(926.994 -1558.823)"/>
                    <path id="Path_5500" d="M-892.951 1562.576l-12.075 27.94a9.336 9.336 0 0 1-6.752 5.019l-10.308 1.2c-2.656.311-3.96-1.444-2.9-3.9l.326-.751 11.751-27.189a9.327 9.327 0 0 1 6.749-5.022l8.53-.99 1.777-.207c2.653-.306 3.961 1.448 2.902 3.9z" class="cls-6" data-name="Path 5500" transform="translate(927.129 -1558.64)"/>
                    <path id="Path_5501" d="M-912.122 1566.443l-11.377 26.325 17.907-2.143 11.379-26.331z" class="cls-3" data-name="Path 5501" transform="translate(926.889 -1559.373)"/>
                    <g id="Group_6727" data-name="Group 6727" transform="translate(20.822 3.078)">
                        <g id="Group_6726" data-name="Group 6726" transform="translate(1.881)">
                            <path id="Path_5502" d="M-896.958 1562.615a.25.25 0 0 1-.118.046l-3.965.46a.244.244 0 0 1-.269-.214.242.242 0 0 1 .212-.269l3.965-.461a.243.243 0 0 1 .267.216.243.243 0 0 1-.093.219z" class="cls-15" data-name="Path 5502" transform="translate(901.311 -1562.176)"/>
                        </g>
                        <path id="Path_5503" d="M-902.3 1562.686a.73.73 0 0 1 .155 1.021.731.731 0 0 1-1.024.153.732.732 0 0 1-.153-1.024.752.752 0 0 1 .153-.153.629.629 0 0 1 .869.003z" class="cls-15" data-name="Path 5503" transform="translate(903.472 -1562.22)"/>
                    </g>
                    <g id="Group_6728" data-name="Group 6728" transform="translate(8.597 33.089)">
                        <path id="Path_5504" d="M-914.512 1597.653a1.551 1.551 0 0 0-2-.895 1.554 1.554 0 0 0-.894 2.007 1.554 1.554 0 0 0 2.007.894 1.6 1.6 0 0 0 .372-.2 1.355 1.355 0 0 0 .515-1.806zm-.195.145a1.326 1.326 0 0 1 .348 1.843 1.326 1.326 0 0 1-1.843.348 1.326 1.326 0 0 1-.348-1.843 1.325 1.325 0 0 1 .306-.318 1.12 1.12 0 0 1 1.537-.033z" class="cls-12" data-name="Path 5504" transform="translate(917.517 -1596.656)"/>
                    </g>
                    <path id="Path_5505" fill="#fff" d="M-897.523 1558.921l-23.414 32.829-3.621.373 11.751-27.189a9.333 9.333 0 0 1 6.749-5.022z" data-name="Path 5505" transform="translate(927.026 -1558.677)" style="isolation:isolate" opacity="0.1"/>
                </g>
                <g id="Group_6717" data-name="Group 6717" transform="translate(160.33 372.605)">
                    <path id="Path_5506" d="M-924.974 1863.719h-7.688l-1.393-68.571s9.489-.267 11.874-2.8" class="cls-5" data-name="Path 5506" transform="translate(936.274 -1790.174)"/>
                    <path id="Path_5395" d="M-925.3 1865.571h-9.82l-1.48-72.861 2.158-.062c4.149-.119 9.3-1 10.353-2.116a2.176 2.176 0 0 1 3.075-.09 2.176 2.176 0 0 1 .091 3.076c-2.21 2.346-7.8 3.116-11.239 3.37l1.306 64.331h5.555a2.176 2.176 0 0 1 2.176 2.176 2.176 2.176 0 0 1-2.175 2.176z" class="cls-3" data-name="Path 5395" transform="translate(936.604 -1789.85)"/>
                </g>
                <path id="Path_5507" d="M-923.619 1587.143c1.319-.212 5.186-.69 4.091-3.934-1.265-3.75-12.518 3.017-12.961 3.754-2.35 3.91-4.779 11.348-6.546 12.337l-15.52 8.817-1.636 10.807-.633 5.042-.769 12.76 5.858.131 27.325-35.153 10.1-2.044c-9.146 1.172-10.358.539-12.243-.716-5.83-3.872-1.04-11.161 2.934-11.801z" class="cls-11" data-name="Path 5507" transform="translate(1099.578 -1391.709)"/>
                <path id="Path_5508" d="M-968.3 1569s5.048 10.347 6.409 32.342c1.206 19.454.531 18.2.531 18.2l-40.517 1.421 1.051 28.664s6.387 13.674 25.567 14.884 10.57 13.61 10.57 13.61-18.039 1.947-25.829 8.712-14.759 8.095-26.853 8.2-18.347-20.089-17.22-36.693-2.459-30.954-8.609-36.694c0 0 24.4-44.75 36.489-51.761a54.79 54.79 0 0 0 7.466-5.175s14.825 8.925 30.945 4.29z" class="cls-1" data-name="Path 5508" transform="translate(1109.666 -1389.278)"/>
                <path id="Path_5513" d="M-967.041 1549.458l1.908 12.639a62.286 62.286 0 0 0-9.963-2.8 91.039 91.039 0 0 1-13.336-4.178l2.785-5.913s5.631-1.25 2.966-2.479-7.883-4.51-7.165-8.508 3.288-12.491 3.288-12.491 13.674-9.417 15.52-12.492 6.366-1.575 7.7-.242c.227.227 1.551-.747 3.656 6.428 1.177 4.017 4.489 4.472 5.42 6.383s-1.8 2.563-1.8 2.563 2.655 5.064 2.805 6.479c.087.844-8.138.5-8.34.592-.307-.717 3.734-.118 7.946-.246 1.78-.054 1.746 7.393 1.029 8.521s-2.8 1.086-6.651 3.664c-2.739 1.841-7.768 2.08-7.768 2.08z" class="cls-11" data-name="Path 5513" transform="translate(1103.557 -1382.984)"/>
                <path id="Path_5514" d="M-966.806 1502.1c-.836-2.163-5.76 1.23-6.929-2.767s-4.038-6.56-5.268-5.227c-.994 1.076-3.057 1.219-3.382 4.526a1.808 1.808 0 0 1-1.982 1.616 1.8 1.8 0 0 1-.273-.049 3.4 3.4 0 0 0-3.177.575c-2.665 2.05-14.863 10.249-16.092 18.859-.976 6.83-4.9 12.474-.658 16.04 5.365 4.514 1.495 5.518 16.183 12.5 1.905.906 10.08-4.38-.261-8.712a3.819 3.819 0 0 1-1.5-1.061c-.65-1.281-1.378-4.034.218-4.909 2.057-1.132 2.794 1.915 3.569 2.851.762.914 3.83 2.582 2.294-3.875a35.917 35.917 0 0 0-2.048-6.368 1.835 1.835 0 0 1 .917-2.428 1.793 1.793 0 0 1 .23-.087 21.783 21.783 0 0 0 8.074-4.444c4.526-4.091 3.719-5.2 5.274-7.02s1.756-2.16 3.27-1.714 4.514-.622 1.541-8.306z" class="cls-12" data-name="Path 5514" transform="translate(1105.609 -1380.789)"/>
                <path id="Path_5542" d="M-550.377 1591.394s11-4.252 14.267-23.552-7.688-39.583-7.688-39.583-15.865 14.512-15.865 35.985 9.286 27.15 9.286 27.15z" class="cls-10" data-name="Path 5542" transform="translate(1050.794 -1385.034)"/>
                <path id="Path_5515" d="M-917.6 1682.276s9.435-1.492 12 1.993c2.2 3 35.142 75.37 44.882 98.532a67.893 67.893 0 0 1 2.681 6.9c.821 4.51-27.982 16.809-31.77 16.19s-38.866-87.672-44.3-93.923-78.2-4.829-83.368-5.238c0 0 43.924-8.659 51.218-16.681 5.223-5.745 6.7-3.424 3.369-9.407z" class="cls-1" data-name="Path 5515" transform="translate(1107.144 -1403.093)"/>
                <path id="Path_5517" d="M-960.586 1837.458l20.542-41.339-42.291 5.423-10.234 18.924z" class="cls-1" data-name="Path 5517" transform="translate(1103.907 -1418.057)"/>
                <g id="Group_6730" data-name="Group 6730" transform="translate(225.514 392.339)">
                    <path id="Path_5518" d="M-849.718 1812.521l.726 9.235.113 1.445s-9.993 4.869-10.967 2.959-2.524-11-2.524-11z" class="cls-11" data-name="Path 5518" transform="translate(862.37 -1812.521)"/>
                    <path id="Path_5519" d="M-843.01 1837.608l14.775-3.932 26.828-5.385s1.766-7.385-7.66-6.781c-11.175.715-29.333.382-32.6-.958s-7.005 1.2-7.005 1.2l-12.148 3.66 1.958 16.489.081.687 12.534-2.3.141-7.879z" class="cls-12" data-name="Path 5519" transform="translate(862.169 -1813.511)"/>
                    <path id="Path_5396" d="M-825.615 1825.883a.564.564 0 0 1-.373-.139.573.573 0 0 1-.064-.809l5.453-6.373a.572.572 0 0 1 .81-.063.574.574 0 0 1 .063.809l-5.453 6.372a.569.569 0 0 1-.436.203z" class="cls-6" data-name="Path 5396" transform="translate(857.682 -1813.278)"/>
                    <path id="Path_5397" d="M-831.439 1826.132a.567.567 0 0 1-.373-.139.573.573 0 0 1-.063-.809l5.453-6.372a.571.571 0 0 1 .81-.063.575.575 0 0 1 .064.809l-5.452 6.372a.568.568 0 0 1-.439.202z" class="cls-6" data-name="Path 5397" transform="translate(858.436 -1813.31)"/>
                    <path id="Path_5398" d="M-838.907 1826.7a.568.568 0 0 1-.372-.138.574.574 0 0 1-.064-.81l5.453-6.371a.571.571 0 0 1 .81-.064.574.574 0 0 1 .063.809l-5.453 6.372a.569.569 0 0 1-.437.202z" class="cls-6" data-name="Path 5398" transform="translate(859.404 -1813.384)"/>
                    <path id="Rectangle_3265" d="M0 0H12.736V1.149H0z" class="cls-13" data-name="Rectangle 3265" transform="rotate(-10.87 154.101 -3.6)"/>
                </g>
                <path id="Path_5399" d="M-1068.816 1552.178a25.623 25.623 0 0 1-13.82-4.148 2.175 2.175 0 0 1-.658-3.006 2.177 2.177 0 0 1 3.006-.658 21 21 0 0 0 11.471 3.46c14.172 0 25.7-14.749 25.7-32.877s-11.53-32.877-25.7-32.877c-10.281 0-19.555 7.822-23.627 19.926a2.175 2.175 0 0 1-2.756 1.368 2.175 2.175 0 0 1-1.369-2.756c4.678-13.905 15.571-22.89 27.752-22.89 16.572 0 30.054 16.7 30.054 37.229s-13.481 37.229-30.053 37.229zm0-11.374c-11.585 0-21.01-11.6-21.01-25.852s9.425-25.851 21.01-25.851 21.008 11.6 21.008 25.851-9.425 25.848-21.008 25.848zm0-47.35c-9.185 0-16.657 9.644-16.657 21.5s7.473 21.5 16.657 21.5 16.656-9.644 16.656-21.5-7.472-21.5-16.656-21.5zm-22.249 44.795a2.174 2.174 0 0 1-1.867-1.054 40.327 40.327 0 0 1-3.636-7.907 2.176 2.176 0 0 1 1.368-2.756 2.173 2.173 0 0 1 2.757 1.368 35.972 35.972 0 0 0 3.241 7.051 2.176 2.176 0 0 1-.743 2.987 2.169 2.169 0 0 1-1.12.311z" class="cls-3" data-name="Path 5399" transform="translate(1116.596 -1378.771)"/>
                <path id="Path_5400" d="M-1031.967 1437.881a2.176 2.176 0 0 1-2.176-2.176v-66.5h-77.678v64.324h56.8a2.176 2.176 0 0 1 2.176 2.176 2.176 2.176 0 0 1-2.176 2.176H-1114a2.176 2.176 0 0 1-2.176-2.176v-68.676a2.176 2.176 0 0 1 2.176-2.176h82.031a2.176 2.176 0 0 1 2.176 2.176v68.671a2.176 2.176 0 0 1-2.174 2.181zm-11.675-13.328h-11.376a2.176 2.176 0 0 1-2.176-2.176 2.176 2.176 0 0 1 2.176-2.176h9.2v-38.9h-55.308v38.9h24.483a2.176 2.176 0 0 1 2.176 2.176 2.176 2.176 0 0 1-2.176 2.176h-26.657a2.176 2.176 0 0 1-2.176-2.176v-43.254a2.176 2.176 0 0 1 2.176-2.176h59.66a2.176 2.176 0 0 1 2.176 2.176v43.254a2.176 2.176 0 0 1-.637 1.539 2.18 2.18 0 0 1-1.541.637z" class="cls-3" data-name="Path 5400" transform="translate(1119.122 -1364.852)"/>
                <path id="Path_5522" d="M-973.245 1553.044a4.927 4.927 0 0 1 2.263 1.821L-964 1565.2l-1.126-10.455 4.375-.62-8.709-.43-1.941-.314a1.51 1.51 0 0 1-.261-.064l-3.509-1.045z" class="cls-18" data-name="Path 5522" transform="translate(1101.701 -1388.132)"/>
                <path id="Path_5401" d="M-983.3 1545.81a.293.293 0 0 1-.061-.006.288.288 0 0 1-.222-.341.811.811 0 0 0-.279-.541 1.754 1.754 0 0 0-1.6-.5 1.669 1.669 0 0 1-1.577-.771 2.8 2.8 0 0 1-.361-2.751c.216-.45.5-.683.836-.692h.021c.613 0 1.068.77 1.154.924a.287.287 0 0 1-.113.391.287.287 0 0 1-.392-.111c-.148-.267-.456-.647-.655-.627-.1 0-.222.137-.332.366a2.235 2.235 0 0 0 .3 2.157 1.109 1.109 0 0 0 1.025.547 2.355 2.355 0 0 1 2.112.67 1.283 1.283 0 0 1 .426 1.058.287.287 0 0 1-.282.227z" class="cls-18" data-name="Path 5401" transform="translate(1103.227 -1386.648)"/>
                <path id="Path_5524" d="M-950.7 1536.875a18.588 18.588 0 0 1-5.2.266c-2.572-.145-6.669-.558-6.669-.558s4.409 1.871 6.246 1.9c.883.015 5.239.515 6.573-.648 0 .001-.137-1.078-.95-.96z" class="cls-18" data-name="Path 5524" transform="translate(1100.14 -1386.205)"/>
                <path id="Path_5525" d="M-961.8 1669.895s-22.158-.1-26.758-6.075c-2.688-3.492-7-18.1-7.205-36.942-.057-5.172 0-11.853 6.361-25.98 0 0-16.1 21.65-15.711 44.914.252 15.036 6.58 23.1 10.88 26.059 4.7 3.234 24.765.728 32.554.767 1.266.006 12.328-1.282 11.619-2.331z" class="cls-12" data-name="Path 5525" transform="translate(1105.458 -1393.969)"/>
                <path id="Path_5526" d="M-850.2 1663.425l-11.844-3.718c-.9-.094-4.052-.849-4.1-1.75-.076-1.393-4.217-2.377-6.34-2.35-6.285.077-18.153.847-22-.229s-32.293-10.718-39.368-11.641-26.906-.462-27.827-2.768c-.664-1.659.261-9.923.765-13.259l-33.644 1.189c-.87.04-12.723 42.115 25.039 44.356 20.917 1.241 53.952 1.071 72.841 2.708 3.971.348 8.76-.339 11.409 2.678 1.716 1.953 3.8 1.876 6.191 1.876 5.223 0 6.422.2 7.97.229 3.69.082 4.6-4.761 1.676-4.874l-4.568-.272s3.874.205 5.19.205c1.384 0 3.465-4.283-.386-4.352-4.572-.081.746-.1 1.5-.132 1.762-.076 2.73-4.526.425-4.526-1.9 0 11.92.894 16.886.957.971.013 1.763-1.454 1.817-2.425a1.813 1.813 0 0 0-1.632-1.902z" class="cls-11" data-name="Path 5526" transform="translate(1104.627 -1397.357)"/>
                <path id="Path_5402" d="M-847.554 1672.983a.576.576 0 0 1-.264-.064c-.916-.475-3.017-.8-6.245-.976-.475-.024-.849-.045-.921-.513l1.138-.159-.57.072.083-.567c.044 0 .161.01.332.02 2.2.116 5.28.358 6.714 1.1a.574.574 0 0 1 .245.776.574.574 0 0 1-.512.311z" class="cls-18" data-name="Path 5402" transform="translate(1086.816 -1402.89)"/>
                <path id="Path_5403" d="M-850.075 1678.576a.579.579 0 0 1-.158-.022 45.9 45.9 0 0 0-7.674-.739.575.575 0 0 1-.563-.587.575.575 0 0 1 .574-.562h.012a45.777 45.777 0 0 1 7.965.782.576.576 0 0 1 .4.71.576.576 0 0 1-.556.418z" class="cls-18" data-name="Path 5403" transform="translate(1087.25 -1403.623)"/>
                <path id="Path_5404" d="M-850.308 1683.757a.6.6 0 0 1-.069 0c-3.06-.361-3.228-.331-3.933-.205-.314.057-.744.133-1.5.207a.578.578 0 0 1-.627-.516.575.575 0 0 1 .516-.627c.714-.069 1.1-.138 1.412-.194.876-.156 1.138-.174 4.271.2a.574.574 0 0 1 .5.637.574.574 0 0 1-.57.498z" class="cls-18" data-name="Path 5404" transform="translate(1086.993 -1404.327)"/>
                <path id="Path_5516" d="M-1026.211 1696.695s8.248 2.082 18.993-2.741 23.422-10.308 34.8-8.975 32.728 7.66 38.8 25.143c7.936 22.844 3.462 51.166-12.221 55.881a78.992 78.992 0 0 1-8.55 1.741c-32.086 5.284-128.972 16.307-128.972 16.307s6.224-20.2 3.558-41.419c0 0-3.664-49.907-21.011-92.041-10.389-25.234-17.731-35.464-15.989-40.485s21.729-12.4 38.125-10.25 14.35 16.706 14.35 16.706a67.958 67.958 0 0 1 13.379 7.225c21.923 15.474 8.222 68.579 24.738 72.908z" class="cls-4" data-name="Path 5516" transform="translate(1119.237 -1392.576)"/>
                <path id="Path_5530" d="M-877.561 1813.071l33.934-16.955 4.329 10.664-33.053 15.9z" class="cls-12" data-name="Path 5530" transform="translate(1089.69 -1418.056)"/>
                <path id="Path_5531" d="M-937.889 1681.28c-3.326-.01-6.648.1-9.957.366a97.274 97.274 0 0 0-9.865 1.192c-6.492 1.131-13 2.986-18.192 7.069-5.337 3.871-9.8 8.884-15.132 12.957a36.694 36.694 0 0 1-8.662 5.059 28.513 28.513 0 0 1-9.782 1.929 29.854 29.854 0 0 0 9.583-2.4 36.328 36.328 0 0 0 8.356-5.223c5.148-4.137 9.608-9.14 15.007-13.167a31.941 31.941 0 0 1 8.918-4.694 51.558 51.558 0 0 1 9.768-2.324 95.176 95.176 0 0 1 19.958-.764z" class="cls-12" data-name="Path 5531" transform="translate(1106.018 -1404.064)"/>
                <path id="Path_5532" d="M-988.295 1812.417l33.383 18.018-6.237 9.672-32.009-17.906z" class="cls-12" data-name="Path 5532" transform="translate(1103.958 -1420.169)"/>
                <path id="Path_5533" d="M-1050.868 1784.292L-1084.1 1627.8a2.083 2.083 0 0 1 1.6-2.47 2.083 2.083 0 0 1 2.469 1.6l.01.054z" class="cls-6" data-name="Path 5533" transform="translate(1114.972 -1395.92)"/>
                <path id="Path_5405" d="M-1071.086 1619.876c-.153 0-.31 0-.469-.011-15.708-.8-42.586-6.418-42.856-6.476l-2.883-.605 2.385-1.729c.742-.539 18.43-13.124 38.533-6.839 6.643 2.078 10.98 8.245 10.279 12.165-.396 2.211-2.246 3.495-4.989 3.495zm-39.579-8.393c7.594 1.5 26.939 5.147 39.243 5.773 1.651.088 2.58-.366 2.754-1.335.437-2.443-3.011-7.5-8.488-9.213-14.456-4.524-27.926 1.607-33.509 4.775z" class="cls-6" data-name="Path 5405" transform="translate(1119.267 -1394.352)"/>
                <path id="Path_5536" d="M-1078.081 1808.721s130.494-12.37 137.238-17.814" class="cls-6" data-name="Path 5536" transform="translate(1114.186 -1417.381)"/>
                <path id="Path_5537" d="M-929.231 1797.062a54.226 54.226 0 0 1 1.848 13.983c.1 8.334 1.293 50.555 1.293 50.555l2.952-65.487z" class="cls-6" data-name="Path 5537" transform="translate(1096.002 -1418.056)"/>
                <path id="Path_5539" fill="#936" d="M-961.862 1568.943s-.327-2.506-4.043-2.658-11.435-1.034-16.723-2.872-6.238-2.8-6.238-2.8l-4.466 4.021s9.019 5.525 17.1 5.449a102.023 102.023 0 0 0 14.37-1.14z" data-name="Path 5539" transform="translate(1103.97 -1389.175)"/>
                <g id="Group_6731" data-name="Group 6731" transform="translate(419.624 357.537)">
                    <path id="Path_5540" d="M-640.738 1772.538l-.074 31.052 31.764 4.724.856-32.369z" class="cls-10" data-name="Path 5540" transform="translate(640.812 -1772.538)"/>
                </g>
                <g id="Group_6732" data-name="Group 6732" transform="translate(428.227 349.083)">
                    <path id="Path_5406" d="M-616.031 1779.362l-14.862-1.952.034-13.983 15.394 1.484zm-10.5-5.769l6.339.832.218-5.578-6.544-.631z" class="cls-3" data-name="Path 5406" transform="translate(630.893 -1763.426)"/>
                </g>
                <path id="Path_5407" d="M-521.3 1726.592h-8.23l5.056-228.1 6.9 26.331-.005.24zm-4.67-3.484h1.253l3.655-197.871-.481-1.835z" class="cls-3" data-name="Path 5407" transform="translate(1046.89 -1380.746)"/>
                <path id="Path_5408" d="M-506.2 1746.279l-10.387-.8L-506 1645.37l6.858 12.276zm-6.548-4l3.353.258 6.69-84.119-.993-1.778z" class="cls-3" data-name="Path 5408" transform="translate(1045.211 -1399.312)"/>
                <path id="Path_5550" d="M-572.067 1755.187s-6.086 39.14 10.721 105.278h-5.709s-21.667-30.971-22.693-105.877z" class="cls-4" data-name="Path 5550" transform="translate(1054.692 -1412.675)"/>
                <path id="Path_5409" d="M-511.117 1861.413h-58.049l-.608-1.178c-25.386-49.154-21.776-104.442-21.737-104.995l.15-2.1 105.909 4.159v2.092c0 70.162-23.99 100-25.012 101.235zm-55.392-4.352h53.284c3.662-5.068 22.978-34.688 23.413-95.58l-97.456-3.826c-.367 10.357-.669 57.045 20.759 99.406z" class="cls-3" data-name="Path 5409" transform="translate(1054.946 -1412.487)"/>
                <path id="Path_5410" fill="#639" d="M-514.461 1861.7h-20.889l.365-2.491c.071-.484 7.025-48.968 1.533-101.3l-.263-2.5 47.646 1.87.049 2.043c.062 2.579 1.182 63.61-27.787 101.525zm-15.888-4.352h13.727c24.518-32.952 26.185-84.978 26.256-95.883l-38.507-1.512c4.418 45.162-.16 86.947-1.476 97.397z" data-name="Path 5410" transform="translate(1047.643 -1412.782)" style="isolation:isolate" opacity="0.8"/>
                <path id="Path_5552" fill="#0cc" d="M-493.919 1818.872s-5.686 19.057-17.051 30.038-46.179 2.332-59.9-18.732-16.91-71.954-16.91-71.954-1.854 53.7 20.447 101.666h55.7s13.482-19.616 17.714-41.018z" data-name="Path 5552" transform="translate(1054.442 -1413.146)" style="isolation:isolate" opacity="0.3"/>
                <path id="Path_5553" d="M-559.441 1642.141s2.627-27.641-18.309-44.653-53.323-11.123-53.323-11.123 10.773 57.574 71.632 55.776z" class="cls-10" data-name="Path 5553" transform="translate(1060.047 -1392.11)"/>
                <path id="Path_5554" d="M-549.281 1693.7s17.5-9.074 26.857-30.993 9.849-35.984 9.849-35.984-28.042 9.814-37 29.114.294 37.863.294 37.863z" class="cls-10" data-name="Path 5554" transform="translate(1049.993 -1397.179)"/>
                <path id="Path_5555" d="M-557.963 1591.394a44.143 44.143 0 0 0 10.734-27.807c.327-17.011-22.245-35.331-22.245-35.331s-3.148 38.929 11.511 63.138z" class="cls-10" data-name="Path 5555" transform="translate(1052.102 -1385.034)"/>
                <path id="Path_5556" d="M-523.695 1531.287a44.142 44.142 0 0 0 .285-29.8c-5.666-16.046-33.238-25.273-33.238-25.273s10.731 37.552 32.953 55.073z" class="cls-10" data-name="Path 5556" transform="translate(1050.403 -1378.62)"/>
                <path id="Path_5557" d="M-559.441 1642.151s-23.219-43.017-71.636-55.773c.004-.003 70.469-12.624 71.636 55.773z" class="cls-4" data-name="Path 5557" transform="translate(1060.047 -1392.12)"/>
                <path id="Path_5558" d="M-523.981 1531.287s.705-18.1-7.323-32.345-25.625-22.729-25.625-22.729 49.014 12.104 32.948 55.074z" class="cls-22" data-name="Path 5558" transform="translate(1050.439 -1378.62)"/>
                <path id="Path_5560" d="M-512.8 1626.727s-27.641 19.785-39.092 66.976c-.002-.003-20.286-42.113 39.092-66.976z" class="cls-22" data-name="Path 5560" transform="translate(1050.22 -1397.179)"/>
                <path id="Path_5561" d="M-502.888 1669.492a44.14 44.14 0 0 0 13.753-26.44c2.216-16.869-18.179-37.584-18.179-37.584s-7.448 38.332 4.426 64.024z" class="cls-10" data-name="Path 5561" transform="translate(1044.309 -1394.566)"/>
                <path id="Path_5562" d="M-516.322 1738.5s7.231-23.9-8.2-42.623-45.032-19.289-45.032-19.289-.74 52.677 53.232 61.912z" class="cls-10" data-name="Path 5562" transform="translate(1052.075 -1403.359)"/>
                <path id="Path_5564" d="M-516.322 1738.5s-4.265-31.6-53.234-61.911c0 0 29.507.324 45.278 19.317 7.505 9.041 11.851 22.585 7.956 42.594z" class="cls-4" data-name="Path 5564" transform="translate(1052.075 -1403.36)"/>
                <g id="Group_1624" data-name="Group 1624" transform="translate(380.166 86.662)">
                    <g id="Group_1614" data-name="Group 1614" transform="translate(0 .322)">
                        <g id="Group_1613" data-name="Group 1613">
                            <g id="Group_1612" data-name="Group 1612">
                                <g id="Group_6718" data-name="Group 6718">
                                    <path id="Path_1063" d="M-670.715 1467.767l-12.768 34.223 25.494-9.979z" class="cls-6" data-name="Path 1063" transform="translate(685.728 -1464.573)"/>
                                    <path id="Path_5411" d="M-686.062 1503.8l14.811-39.7 14.762 28.122zm15.215-33.31l-10.725 28.749 21.415-8.383z" class="cls-3" data-name="Path 5411" transform="translate(686.062 -1464.098)"/>
                                </g>
                            </g>
                        </g>
                    </g>
                    <g id="Group_1617" data-name="Group 1617" transform="translate(41.921 21.477)">
                        <g id="Group_1616" data-name="Group 1616">
                            <g id="Group_1615" data-name="Group 1615">
                                <g id="Group_6719" data-name="Group 6719">
                                    <path id="Path_1064" d="M-635.794 1501l12.726 24.238 12.765-34.213z" class="cls-6" data-name="Path 1064" transform="translate(637.628 -1488.741)"/>
                                    <path id="Path_5412" d="M-623.139 1528.089l-14.762-28.115 29.568-11.571zm-11.094-26.747l10.69 20.36 10.722-28.739z" class="cls-3" data-name="Path 5412" transform="translate(637.901 -1488.402)"/>
                                </g>
                            </g>
                        </g>
                    </g>
                    <g id="Group_1620" data-name="Group 1620" transform="translate(.591 29.409)">
                        <g id="Group_1619" data-name="Group 1619">
                            <g id="Group_1618" data-name="Group 1618">
                                <g id="Group_6720" data-name="Group 6720">
                                    <path id="Path_1065" d="M-645.144 1503.437l-5.668 2.22a1.858 1.858 0 0 1-2.313-.866l-2.83-5.39-25.228 9.876 48.63 18.142z" class="cls-6" data-name="Path 1065" transform="translate(684.839 -1497.76)"/>
                                    <path id="Path_5413" d="M-630.353 1529.594l-55.03-20.531 29.5-11.547 3.374 6.425a.552.552 0 0 0 .687.255l6.75-2.645zM-678.07 1509l42.229 15.754-10.461-19.923-4.579 1.794a3.165 3.165 0 0 1-3.944-1.472l-2.287-4.357z" class="cls-3" data-name="Path 5413" transform="translate(685.383 -1497.515)"/>
                                </g>
                            </g>
                        </g>
                    </g>
                    <g id="Group_1623" data-name="Group 1623" transform="translate(15.871)">
                        <g id="Group_1622" data-name="Group 1622">
                            <g id="Group_1621" data-name="Group 1621">
                                <g id="Group_6721" data-name="Group 6721">
                                    <path id="Path_1066" d="M-664.675 1466.505l16.2 30.838 32.433-12.7z" class="cls-6" data-name="Path 1066" transform="translate(667.419 -1464.088)"/>
                                    <path id="Path_5414" d="M-649.5 1498.626l-18.328-34.9 55.029 20.531zm-12.839-30.063l14.063 26.779 28.163-11.024z" class="cls-3" data-name="Path 5414" transform="translate(667.828 -1463.728)"/>
                                </g>
                            </g>
                        </g>
                    </g>
                </g>
                <g id="Group_1678" data-name="Group 1678" transform="translate(207.978 100.62)">
                    <g id="Group_1672" data-name="Group 1672">
                        <g id="Group_1626" data-name="Group 1626">
                            <g id="Group_1625" data-name="Group 1625">
                                <path id="Path_1067" d="M-877.764 1523.782l3.213-2.222a24.065 24.065 0 0 1-3.371-17.941 22.84 22.84 0 0 1 10.651-15.239c1-.573 2.089-1.131 2.089-1.131l1.6 4.018 6.976-9.6-11.591-2 1.541 3.872a26.489 26.489 0 0 0-15.075 19.017c-2.619 12.924 3.967 21.226 3.967 21.226z" class="cls-2" data-name="Path 1067" transform="translate(882.348 -1479.664)"/>
                            </g>
                        </g>
                        <g id="Group_1628" data-name="Group 1628" transform="translate(10.837 46.256)">
                            <g id="Group_1627" data-name="Group 1627">
                                <path id="Path_1068" d="M-869.9 1537.185l2.411-3.1s7.185 5.586 14.43 5.127 9.227-1.6 12.42-3.694 3.47-2.716 3.47-2.716l2.85 2.8a26.973 26.973 0 0 1-17.583 7.522c-11.698.306-17.998-5.939-17.998-5.939z" class="cls-2" data-name="Path 1068" transform="translate(869.898 -1532.806)"/>
                            </g>
                        </g>
                        <g id="Group_1630" data-name="Group 1630" transform="translate(48.449 26.07)">
                            <g id="Group_1629" data-name="Group 1629">
                                <path id="Path_1069" d="M-824.852 1510.1l3.853-.48a26.671 26.671 0 0 1-.1 7.908 61.638 61.638 0 0 1-2 6.9l-3.584-1.685s.988-2.866 1.582-5.027a28.332 28.332 0 0 0 .249-7.616z" class="cls-2" data-name="Path 1069" transform="translate(826.687 -1509.615)"/>
                            </g>
                        </g>
                        <g id="Group_1632" data-name="Group 1632" transform="translate(42.639 8.746)">
                            <g id="Group_1631" data-name="Group 1631">
                                <path id="Path_1070" d="M-827.927 1500.01l3.517-1.7a39.325 39.325 0 0 0-2.8-4.864 21.651 21.651 0 0 0-3.552-3.731l-2.6 2.945a26 26 0 0 1 3.21 3.715c1.216 1.825 2.225 3.635 2.225 3.635z" class="cls-2" data-name="Path 1070" transform="translate(833.362 -1489.712)"/>
                            </g>
                        </g>
                        <g id="Group_1634" data-name="Group 1634" transform="translate(34.292 2.893)">
                            <g id="Group_1633" data-name="Group 1633">
                                <path id="Path_1071" d="M-838.145 1489.082l2.025-3.387s-1.485-.9-2.569-1.4-3.067-1.306-3.067-1.306l-1.2 3.785s1.019.335 2.481 1a13.471 13.471 0 0 1 2.33 1.308z" class="cls-2" data-name="Path 1071" transform="translate(842.951 -1482.988)"/>
                            </g>
                        </g>
                        <g id="Group_1671" data-name="Group 1671" transform="translate(12.798 47.541)">
                            <g id="Group_1670" data-name="Group 1670">
                                <g id="Group_1636" data-name="Group 1636" transform="translate(.452)">
                                    <g id="Group_1635" data-name="Group 1635">
                                        <path id="Path_1072" d="M-858.767 1538.565a22.726 22.726 0 0 0 8.695.7 18.128 18.128 0 0 0 4.307-.912 21.4 21.4 0 0 0 4.013-1.691c.328-.2.636-.407.958-.609a22.463 22.463 0 0 1-3.715 1.828 23.152 23.152 0 0 1-21.54-2.836c-.342-.249-.687-.5-1.03-.743a.108.108 0 0 0-.046-.016 23.616 23.616 0 0 0 8.358 4.279z" class="cls-2" data-name="Path 1072" transform="translate(867.126 -1534.282)"/>
                                    </g>
                                </g>
                                <g id="Group_1638" data-name="Group 1638" transform="translate(4.097 6.743)">
                                    <g id="Group_1637" data-name="Group 1637">
                                        <path id="Path_1073" d="M-862.75 1542.119c.082.035.168.064.254.1-.148-.063-.3-.121-.442-.185z" class="cls-2" data-name="Path 1073" transform="translate(862.938 -1542.029)"/>
                                    </g>
                                </g>
                                <g id="Group_1640" data-name="Group 1640" transform="translate(6.069 7.534)">
                                    <g id="Group_1639" data-name="Group 1639">
                                        <path id="Path_1074" d="M-859.675 1543.271c-.334-.108-.667-.214-1-.334.332.124.664.226 1 .334z" class="cls-2" data-name="Path 1074" transform="translate(860.673 -1542.937)"/>
                                    </g>
                                </g>
                                <g id="Group_1642" data-name="Group 1642" transform="translate(0 4.511)">
                                    <g id="Group_1641" data-name="Group 1641">
                                        <path id="Path_1075" d="M-867.352 1539.67c.319.206.648.4.975.6-.428-.254-.848-.529-1.268-.8.099.058.195.13.293.2z" class="cls-2" data-name="Path 1075" transform="translate(867.645 -1539.465)"/>
                                    </g>
                                </g>
                                <g id="Group_1644" data-name="Group 1644" transform="translate(1.863 5.632)">
                                    <g id="Group_1643" data-name="Group 1643">
                                        <path id="Path_1076" d="M-864.694 1541.181c-.271-.142-.546-.278-.811-.429.27.148.538.291.811.429z" class="cls-2" data-name="Path 1076" transform="translate(865.505 -1540.752)"/>
                                    </g>
                                </g>
                                <g id="Group_1646" data-name="Group 1646" transform="translate(31.209 3.138)">
                                    <g id="Group_1645" data-name="Group 1645">
                                        <path id="Path_1077" d="M-831.231 1537.887c-.182.151-.373.292-.559.435.19-.141.373-.284.559-.435z" class="cls-2" data-name="Path 1077" transform="translate(831.79 -1537.887)"/>
                                    </g>
                                </g>
                                <g id="Group_1648" data-name="Group 1648" transform="translate(8.187 8.199)">
                                    <g id="Group_1647" data-name="Group 1647">
                                        <path id="Path_1078" d="M-857.142 1543.963c-.369-.081-.733-.165-1.1-.261.369.098.73.183 1.1.261z" class="cls-2" data-name="Path 1078" transform="translate(858.239 -1543.702)"/>
                                    </g>
                                </g>
                                <g id="Group_1650" data-name="Group 1650" transform="translate(10.545 8.715)">
                                    <g id="Group_1649" data-name="Group 1649">
                                        <path id="Path_1079" d="M-854.785 1544.4c-.249-.036-.5-.068-.745-.111.245.047.493.082.745.111z" class="cls-2" data-name="Path 1079" transform="translate(855.53 -1544.294)"/>
                                    </g>
                                </g>
                                <g id="Group_1652" data-name="Group 1652" transform="translate(32.16 1.71)">
                                    <g id="Group_1651" data-name="Group 1651">
                                        <path id="Path_1080" d="M-829.451 1536.247c-.412.376-.828.746-1.246 1.1q.637-.529 1.246-1.1z" class="cls-2" data-name="Path 1080" transform="translate(830.697 -1536.247)"/>
                                    </g>
                                </g>
                                <g id="Group_1654" data-name="Group 1654" transform="translate(9.284 8.461)">
                                    <g id="Group_1653" data-name="Group 1653">
                                        <path id="Path_1081" d="M-855.719 1544.257c-.423-.071-.842-.161-1.26-.254.414.097.831.182 1.26.254z" class="cls-2" data-name="Path 1081" transform="translate(856.979 -1544.003)"/>
                                    </g>
                                </g>
                                <g id="Group_1656" data-name="Group 1656" transform="translate(31.767 2.811)">
                                    <g id="Group_1655" data-name="Group 1655">
                                        <path id="Path_1082" d="M-830.756 1537.512c-.13.11-.261.222-.393.326.131-.108.262-.212.393-.326z" class="cls-2" data-name="Path 1082" transform="translate(831.149 -1537.512)"/>
                                    </g>
                                </g>
                                <g id="Group_1658" data-name="Group 1658" transform="translate(1.268 5.313)">
                                    <g id="Group_1657" data-name="Group 1657">
                                        <path id="Path_1083" d="M-865.594 1540.7c-.2-.106-.4-.211-.594-.319.196.119.397.219.594.319z" class="cls-2" data-name="Path 1083" transform="translate(866.188 -1540.386)"/>
                                    </g>
                                </g>
                                <g id="Group_1660" data-name="Group 1660" transform="translate(33.41 1.518)">
                                    <g id="Group_1659" data-name="Group 1659">
                                        <path id="Path_1084" d="M-829.048 1536.026c-.07.066-.141.127-.213.2.067-.074.143-.136.213-.2z" class="cls-2" data-name="Path 1084" transform="translate(829.261 -1536.026)"/>
                                    </g>
                                </g>
                                <g id="Group_1662" data-name="Group 1662" transform="translate(26.778 1.43)">
                                    <g id="Group_1661" data-name="Group 1661">
                                        <path id="Path_1085" d="M-836.881 1536.262c.174-.109.348-.224.522-.337-.169.112-.35.222-.522.337z" class="cls-2" data-name="Path 1085" transform="translate(836.881 -1535.925)"/>
                                    </g>
                                </g>
                                <g id="Group_1664" data-name="Group 1664" transform="translate(2.674 6.061)">
                                    <g id="Group_1663" data-name="Group 1663">
                                        <path id="Path_1086" d="M-863.152 1541.927c-.48-.219-.95-.446-1.421-.681.473.238.939.471 1.421.681z" class="cls-2" data-name="Path 1086" transform="translate(864.573 -1541.245)"/>
                                    </g>
                                </g>
                                <g id="Group_1666" data-name="Group 1666" transform="translate(7.065 7.868)">
                                    <g id="Group_1665" data-name="Group 1665">
                                        <path id="Path_1087" d="M-858.407 1543.652c-.377-.1-.75-.213-1.121-.331.372.117.745.229 1.121.331z" class="cls-2" data-name="Path 1087" transform="translate(859.528 -1543.321)"/>
                                    </g>
                                </g>
                                <g id="Group_1667" data-name="Group 1667" transform="translate(11.289 3.577)">
                                    <path id="Path_1088" d="M-835.7 1539.129c.328-.234.631-.491.945-.738-.254.193-.509.39-.763.574a27.031 27.031 0 0 1-17.273 4.874c-.628-.035-1.256-.111-1.884-.2a26.467 26.467 0 0 0 3.276.293z" class="cls-2" data-name="Path 1088" transform="translate(854.676 -1538.391)"/>
                                </g>
                                <g id="Group_1669" data-name="Group 1669" transform="translate(4.54 6.924)">
                                    <g id="Group_1668" data-name="Group 1668">
                                        <path id="Path_1089" d="M-860.9 1542.846c-.522-.187-1.032-.385-1.529-.609.5.219 1.014.428 1.529.609z" class="cls-2" data-name="Path 1089" transform="translate(862.429 -1542.237)"/>
                                    </g>
                                </g>
                            </g>
                        </g>
                    </g>
                    <g id="Group_1677" data-name="Group 1677" transform="translate(13.384 14.848)">
                        <g id="Group_1674" data-name="Group 1674" transform="translate(0 6.112)">
                            <g id="Group_1673" data-name="Group 1673">
                                <path id="Path_1090" d="M-855.616 1516.364a20.166 20.166 0 0 0 1.6-3.2 6.858 6.858 0 0 0-.013-5.162 6.718 6.718 0 0 0-8.71-3.793 6.719 6.719 0 0 0-3.722 3.619 7.385 7.385 0 0 0 .117 5.7l.183.46 3.268-1.3-.122-.435a4.681 4.681 0 0 1-.128-2.992 3.125 3.125 0 0 1 4.107-1.633 3.126 3.126 0 0 1 1.665 1.712 3.449 3.449 0 0 1-.037 2.6 17.9 17.9 0 0 1-1.48 3l-2.263 3.676a7.69 7.69 0 0 0-.241 7.3l.2.427 12.484-4.968-1.321-3.324-7.821 3.113a15.455 15.455 0 0 1 2.234-4.8z" class="cls-2" data-name="Path 1090" transform="translate(866.972 -1503.743)"/>
                            </g>
                        </g>
                        <g id="Group_1676" data-name="Group 1676" transform="translate(15.846)">
                            <g id="Group_1675" data-name="Group 1675">
                                <path id="Path_1091" d="M-839.273 1507.932l-4.458-11.21-3.248 1.294-1.787 17.569 7.392-2.941 2 5.04 3.436-1.367-2-5.04 2.611-1.038-1.331-3.348zm-4.984 1.983l.272-3.83 1.279 3.213z" class="cls-2" data-name="Path 1091" transform="translate(848.767 -1496.722)"/>
                            </g>
                        </g>
                    </g>
                </g>
                <path id="Path_5565" d="M-754.237 1506.467c0 2.9-1.866 5.247-4.168 5.247s-4.168-2.35-4.168-5.247 1.866-5.246 4.168-5.246 4.168 2.349 4.168 5.246z" class="cls-23" data-name="Path 5565" transform="translate(1075.38 -1381.794)"/>
                <g id="Group_6733" data-name="Group 6733" transform="translate(321.8 141.696)">
                    <path id="Path_5566" d="M-732.346 1526.612s-2.2 12.242 1.376 14.444 8.391 1.654 8.391 1.654c-.93 3.932-33.289 27.923-29.523-.564 0 0 4.429-.713 5.727-3.013 1.573-2.785 1.926-11.555 1.926-11.555z" class="cls-24" data-name="Path 5566" transform="translate(752.407 -1526.606)"/>
                    <path id="Path_5567" fill="#fbdcc3" d="M-739.9 1535.228c3.687.561 6.764 3.6 8.46 6.777.01.017.012.034.021.05 2.4 2.145 6.006 1.761 9.118 1.924a3.722 3.722 0 0 0 .783-1.277s-4.814.55-8.391-1.654-1.374-14.444-1.374-14.444l-12.112.967a66.606 66.606 0 0 1-.823 7.856 12.571 12.571 0 0 1 4.318-.199z" data-name="Path 5567" transform="translate(751.346 -1526.605)" style="isolation:isolate" opacity="0.5"/>
                </g>
                <path id="Path_5568" d="M-756.279 1497.257s-.826 8.115-1.376 13.618 3.026 15.1 11.073 16.538c12.028 2.16 21.527-12 22.077-14.065s3.714-17.882.826-21.6-34.114-16.22-32.6 5.509z" class="cls-24" data-name="Path 5568" transform="translate(1074.884 -1379.702)"/>
                <path id="Path_5569" d="M-765.183 1497.3c-9.9-3.164-9.221-18.253.688-21.871 4.9-1.788 6.74 2.75 9.629.963s5.5-7.856 11.968-3.577c5.089 3.37 4.732 1.286 9.945 1.75 3.094.274 3.436 3.77 6.149 5.815 4.195 3.164 7.205 1.526 9.629 10.429 1.777 6.535-2.35 24.2-12.433 28.637-3.844 1.69 7.206-11.968 3.629-13.48s-3.576-3.164-3.989-8.53-1.513-1.238-3.989-3.026-1.654-6.6-3.439-4.814c-2.339 2.341-13.162 12.378-27.787 7.704z" class="cls-7" data-name="Path 5569" transform="translate(1076.765 -1378.025)"/>
                <path id="Path_5570" fill="none" stroke="#639" d="M-720.905 1480.629s3.512 1.164 4.417 2.851 5.142 9.052.328 22.2a2.992 2.992 0 0 1-2.4-.742c-1.029-.982 6.66-13.12-2.345-24.309z" data-name="Path 5570" transform="translate(1070.218 -1379.215)"/>
                <ellipse id="Ellipse_53" cx="4.746" cy="5.247" class="cls-23" data-name="Ellipse 53" rx="4.746" ry="5.247" transform="translate(347.05 124.705)"/>
                <ellipse id="Ellipse_54" cx="4.181" cy="4.914" class="cls-10" data-name="Ellipse 54" rx="4.181" ry="4.914" transform="translate(348.994 125.039)"/>
                <g id="Group_6734" data-name="Group 6734" transform="translate(333.559 134.122)">
                    <path id="Path_5571" d="M-732.6 1526.12a10.921 10.921 0 0 1-6.142-2.069.413.413 0 0 1-.125-.57.413.413 0 0 1 .57-.125l.017.012a9.439 9.439 0 0 0 7.584 1.707c5.105-1.185 8.37-6.789 8.4-6.848a.412.412 0 0 1 .557-.174.413.413 0 0 1 .174.557l-.015.026c-.139.243-3.482 5.975-8.931 7.241a9.2 9.2 0 0 1-2.089.243z" class="cls-23" data-name="Path 5571" transform="translate(738.932 -1518.006)"/>
                </g>
                <path id="Rectangle_3267" d="M-739.068 1522.639l2.274 1.313a.558.558 0 0 1 .205.762l-.779 1.35a.559.559 0 0 1-.763.2l-2.274-1.312a1.019 1.019 0 0 1-.372-1.393l.318-.55a1.018 1.018 0 0 1 1.388-.378z" class="cls-10" data-name="Rectangle 3267" transform="translate(1072.685 -1384.451)"/>
                <path id="Path_5572" d="M-778.1 1537.868c1.414-1.36-.9-4.114.87-4.666s1.79-1.82 4.265-3.528 3.94-1.972 4.352-3.134-.243-2.637-2.4-2.089-3.43.91-4.633 2.643c0 0-1.017-3.046.294-5.262s2.959-6.674 1.225-7.877-2.148.155-2.766 1.9-1.876 6.206-1.876 6.206.552-8.475.188-9.848-2.709-1.219-3.033.522-.174 8.966-.174 8.966-1.444-6.075-1.614-7.444-2.611-1.024-2.637.245.94 6.842.94 6.842-1.489-3.733-2.336-5.212-2.33-.631-2.16.738 1.86 4.717 1.836 6.08-.328 6.821.136 8.095a16.228 16.228 0 0 1 .673 5.476c-.041 2.249 6.071 4.023 8.85 1.347z" class="cls-24" data-name="Path 5572" transform="translate(1078.77 -1383.013)"/>
                <path id="Path_5573" d="M-755.685 1543.928a22.769 22.769 0 0 0-17.007 8.791c-5.106 6.332-13.218 23.712-18.1 34.684a7.311 7.311 0 0 0 3.7 9.656 7.3 7.3 0 0 0 2.426.615c21.563 1.68 69.9 5.444 72.464 5.658 3.3.276 12.273-47.146-3.917-56.665-3.409-2-14.244-2.2-18.744-2.761-1.2 9.086-22.296 13.971-20.822.022z" class="cls-3" data-name="Path 5573" transform="translate(1079.249 -1386.977)"/>
                <path id="Path_5574" d="M-704.685 1576.763l-.972.115-1.207.138q.864-.081-.5.081a161.094 161.094 0 0 1-24.289 1.346 316.162 316.162 0 0 1-32.61-2.133q-.684 2.2-1.306 4.421c.312.039.625.079.938.116 7.973.968 16.028 1.1 24.058 1.288 7.834.185 15.815.522 23.627-.1 3.969-.316 8.24-.348 12.273-1.074.036-1.401.033-2.8-.012-4.198z" class="cls-27" data-name="Path 5574" transform="translate(1075.962 -1391.135)"/>
                <path id="Path_5575" d="M-739.229 1585.6c-8.34-.174-16.721-.289-25.007-1.248q-1.1-.125-2.206-.261-.478 1.8-.923 3.6c6.453.864 12.862 1.75 19.41 2.094 7.956.418 15.95 1.167 23.923 1.132a109.094 109.094 0 0 0 18.679-1.976c.153-1.48.277-3 .358-4.539-3.549.57-7.231.7-10.751.947-7.811.558-15.654.414-23.483.251z" class="cls-27" data-name="Path 5575" transform="translate(1076.19 -1392.099)"/>
                <g id="Group_6735" data-name="Group 6735" transform="translate(286.713 152.526)">
                    <path id="Path_5576" d="M-776.712 1538.89a35 35 0 0 1-7.491 1.146c-2.336.174-2.554-.362-4.773-.41 0 1.757-3.274 44.479-3.274 44.479.435 5.872-2.316 11.01 4.955 11.513 5.871.406 18.366-5 17.938-10.876.002.003-7.164-44.999-7.355-45.852z" class="cls-3" data-name="Path 5576" transform="translate(792.411 -1538.89)"/>
                </g>
                <path id="Path_5577" d="M-755.233 1545.192c.043 4.033 1.17 7.289 4.843 9.078 3.408 1.662 7.873 1.716 11.605 1.105 6.19-1.013 11.034-5.607 13.875-11.016-2.073-.158-3.95-.292-5.274-.459-1.2 9.091-22.3 13.976-20.821.026a17.968 17.968 0 0 0-4.3.589 3.607 3.607 0 0 1 .072.677z" class="cls-28" data-name="Path 5577" transform="translate(1074.567 -1387.094)"/>
                <path id="Path_5578" d="M-717.393 1612.788a36.868 36.868 0 0 1-4.539 2.27c-1.72.619-3.508.55-4.265 2.27s-2.82 4.47-2.888 5.089-1.032 3.233 1.032 4.265 7.565-.688 9.629-1.031 3.989-5.364 6.327-6.4 1.856-7.907-5.296-6.463z" class="cls-24" data-name="Path 5578" transform="translate(1071.313 -1395.619)"/>
                <path id="Path_5579" d="M-741.08 1593.492c-6.615-.385-13.23-.616-19.8-1.487-2.463-.326-4.918-.7-7.375-1.054q-.214.9-.423 1.8-.533 2.507-1.089 5.008c13.318.908 26.7 1.6 40.06 1.46a207.344 207.344 0 0 0 21.318-.979c.466-.054.973-.123 1.5-.2.348-1.757.67-3.683.937-5.707a119.264 119.264 0 0 1-15.274 1.81 196 196 0 0 1-19.854-.651z" class="cls-27" data-name="Path 5579" transform="translate(1076.492 -1392.948)"/>
                <path id="Path_5580" d="M-708.922 1548.667l-.37.522a3.044 3.044 0 0 1-.034 1.9 71.182 71.182 0 0 0-3.508 16.321 43.452 43.452 0 0 0 .143 8.165 44.361 44.361 0 0 1 .543 7.338c-.208 4.2-1.62 8.221-5.12 10.74-2.882 2.074-6.528 3.134-9.894 4.116a49.878 49.878 0 0 1-12.367 2.17c-3.637.139-7.265.414-10.9.609 20.56 1.6 41.86 3.264 43.537 3.4 3.167.262 11.539-43.284-2.03-55.281z" class="cls-28" data-name="Path 5580" transform="translate(1074.043 -1387.577)"/>
                <path id="Path_5581" d="M-706.58 1547.069c7.114 2.02 20.077 31.761 20.157 44.95.042 6.947-9.285 17.023-24.864 19.361 0 0 .516-5.64-6.5-6.362 0 0 14.139-13.309 16.132-14.684s-6.8-17.875-7.149-19.512c-3.361-15.987.278-24.306 2.224-23.753z" class="cls-3" data-name="Path 5581" transform="translate(1069.937 -1387.35)"/>
                <path id="Path_5582" d="M-939.874 1766.6a78.348 78.348 0 0 0 5.383-15.151 60.208 60.208 0 0 0 1.828-15.773 40.246 40.246 0 0 0-.9-7.805c-.218-1.292-.628-2.533-.964-3.792l-.66-1.837a15.1 15.1 0 0 0-.742-1.8 38.867 38.867 0 0 0-3.855-6.761 43.275 43.275 0 0 0-5.189-5.854 50.807 50.807 0 0 0-13.008-8.939 36.332 36.332 0 0 0-7.517-2.514 29.589 29.589 0 0 0-7.921-.577 36.159 36.159 0 0 0-7.852 1.438 52.115 52.115 0 0 0-7.452 2.986c-4.852 2.315-9.348 5.309-14.124 7.936a50.845 50.845 0 0 1-7.473 3.529 20.643 20.643 0 0 1-8.409 1.348c-.364-.027-.729-.041-1.091-.081l-1.079-.2a12.189 12.189 0 0 1-2.119-.562 15.4 15.4 0 0 1-2-.783l-.975-.428-.94-.508a24.271 24.271 0 0 1-6.712-5.309c-3.849-4.33-5.944-9.836-7.1-15.253a85.975 85.975 0 0 1-1.539-16.428l.044-16.208a78.311 78.311 0 0 0-.419-7.938 20.765 20.765 0 0 0-2.214-7.241 24.367 24.367 0 0 0-4.672-6.12 34.128 34.128 0 0 0-6.318-4.707 54.39 54.39 0 0 0-14.9-5.84l.047-.312a47.581 47.581 0 0 1 7.978 1.727 45.938 45.938 0 0 1 7.64 3.024c4.868 2.5 9.5 6.039 12.4 11.021a23.225 23.225 0 0 1 2.831 8.07 81 81 0 0 1 .687 8.236c.224 5.458.111 10.866.261 16.228a93.439 93.439 0 0 0 1.393 15.83c.984 5.12 2.812 10.1 6.116 13.964a22.318 22.318 0 0 0 5.832 4.828 17.3 17.3 0 0 0 7.05 2.5 19.817 19.817 0 0 0 7.534-.9 49.092 49.092 0 0 0 7.346-3.016c4.8-2.4 9.516-5.107 14.467-7.373a61.347 61.347 0 0 1 7.632-2.935 40.422 40.422 0 0 1 8.057-1.539 36.276 36.276 0 0 1 16.2 2.5 49.232 49.232 0 0 1 7.376 3.738 37.52 37.52 0 0 1 3.456 2.289l1.68 1.228c.541.435 1.058.9 1.581 1.361a39.729 39.729 0 0 1 5.687 6.136 36.651 36.651 0 0 1 4.148 7.305 16.943 16.943 0 0 1 .772 1.956l.682 1.988c.348 1.356.761 2.7.977 4.078a41.662 41.662 0 0 1 .716 8.3 47.518 47.518 0 0 1-.74 8.244 58.313 58.313 0 0 1-1.915 8 66.708 66.708 0 0 1-2.915 7.651 55.878 55.878 0 0 1-3.815 7.211z" class="cls-6" data-name="Path 5582" transform="translate(1113.238 -1396.589)"/>
                <path id="Path_5543" d="M-528.226 1610.53s11.751-.979 20.328-18.576 3.781-40.146 3.781-40.146-19.313 9.451-25.365 30.052 1.256 28.67 1.256 28.67z" class="cls-10" data-name="Path 5543" transform="translate(1047.194 -1387.955)"/>
                <path id="Path_5563" d="M-502.544 1669.492s14.623-29.533-4.423-64.024c-.001-.002 38.357 31.687 4.423 64.024z" class="cls-4" data-name="Path 5563" transform="translate(1043.966 -1394.566)"/>
                <path id="Path_5559" d="M-557.921 1591.394s14.329-36.964-11.515-63.135c0 0 44.863 29.441 11.515 63.135z" class="cls-4" data-name="Path 5559" transform="translate(1052.06 -1385.034)"/>
                <g id="Group_6495" data-name="Group 6495" transform="translate(272.43 284.098)">
                    <path id="Path_5145" d="M-748.6 1698.62v.01c.005-.005.005-.005 0-.01z" class="cls-10" data-name="Path 5145" transform="translate(801.198 -1690.427)"/>
                    <rect id="Rectangle_3207" width="3.147" height="3.147" class="cls-10" data-name="Rectangle 3207" rx="1.37" transform="rotate(-87.65 54.816 -36.116)"/>
                    <rect id="Rectangle_3208" width="3.147" height="3.147" class="cls-10" data-name="Rectangle 3208" rx="1.37" transform="rotate(-87.65 53.175 -34.544)"/>
                    <rect id="Rectangle_3209" width="3.147" height="3.147" class="cls-10" data-name="Rectangle 3209" rx="1.37" transform="rotate(-87.65 51.535 -32.97)"/>
                    <rect id="Rectangle_3210" width="3.147" height="3.147" class="cls-10" data-name="Rectangle 3210" rx="1.37" transform="rotate(-87.65 9.999 -7.14)"/>
                    <path id="Path_5146" d="M-774.733 1700.576c.112.039 2.355.1 2.355.1a5.509 5.509 0 0 0 5.253 5.754h.05c.183-4.439.373-9.066.393-9.734.115-4.127-3.515-5.674-5.553-5.762-1.571-.069-5.331 1.179-5.493 5.067-.154 3.735 2.028 4.239 2.995 4.575zm1.3-7.809s1.452.385 1.265 3.5l-.138 3.384-1.48-.062a3.272 3.272 0 0 1-3.268-3.276c0-.072 0-.145.007-.216a3.358 3.358 0 0 1 3.378-3.338c.079 0 .158 0 .237.01z" class="cls-10" data-name="Path 5146" transform="translate(804.973 -1689.43)"/>
                    <path id="Path_5147" d="M-781.971 1690.629c-.384-.031-.673-.087-1.025-.107a4.622 4.622 0 0 0-4.754 3.891 13.773 13.773 0 0 0-.038 1.48 2.771 2.771 0 0 1-2.9 2.631 2.771 2.771 0 0 1-2.635-2.843 2.4 2.4 0 0 0 .01-.307c.069-1.567-1.179-5.331-5.067-5.491-3.733-.156-4.237 2.026-4.575 2.993-.039.112-.1 2.356-.1 2.356a5.807 5.807 0 0 0-5.745 5.277l-.226 5.236 1.027.043.217-5.212c4.1.168 8.095.332 8.7.348a5.31 5.31 0 0 0 5.23-3.369c.1-.206.148-.338.148-.338a5.738 5.738 0 0 0 5.373 4.2c4.672.194 6.035-3.036 6.035-3.036s.131-3.134.221-5.026c.013-.148.104-2.726.104-2.726zm-16.676 4.808l-3.382-.137.061-1.48a3.273 3.273 0 0 1 3.277-3.268q.107 0 .214.008a3.359 3.359 0 0 1 3.338 3.38 1.914 1.914 0 0 1-.01.234s-.385 1.452-3.498 1.263z" class="cls-10" data-name="Path 5147" transform="translate(809.028 -1689.294)"/>
                    <path id="Path_5162" d="M-754.284 1697.873l.117-4.5c-3.934-.373-5.787 2.419-5.793 4.244a7.475 7.475 0 0 1 .015 1.41 2.646 2.646 0 0 1-1.194 1.881 2.809 2.809 0 0 1-1.68.46 2.6 2.6 0 0 1-2-.92 2.873 2.873 0 0 1-.449-.793 4.112 4.112 0 0 1-.164-.566c-.061-.267-.082-.455-.095-.509-.006.142-.005.283 0 .424a5.543 5.543 0 0 0 5.31 5.263c.064 0 .125.005.183 0s.135.005.2 0c.2-.006.4-.017.589-.034a6.2 6.2 0 0 0 3.5-1.48.077.077 0 0 0 .025-.027 5.942 5.942 0 0 0 1.03-1.151 3.724 3.724 0 0 0 .242-.38 5.983 5.983 0 0 0 3.578 3.3 5.04 5.04 0 0 0 1.257.2c2.883.1 19.735.814 21.151.853a5.343 5.343 0 0 0 3.347-.978s.01-.01.015-.01a6.362 6.362 0 0 0 1.933-2.3 4.611 4.611 0 0 0 .192-.43 2.817 2.817 0 0 0 .03.535 3.093 3.093 0 0 0 .624 1.422l.005.005a6.131 6.131 0 0 0 3.907 2.188s3.2.113 4.652.174a5.4 5.4 0 0 0 3.49-1.086 5.506 5.506 0 0 0 1.235-7.688 5.5 5.5 0 0 0-3.423-2.176 1.059 1.059 0 0 0-.128-.025 5.354 5.354 0 0 0-.725-.068c-.231 0-7.05-.273-8.047-.314l-.12-.005v.024a6.132 6.132 0 0 0 .861 3.275 4.809 4.809 0 0 0 2.167 1.928 5.867 5.867 0 0 0 1.344.417 6.939 6.939 0 0 0 1.02.115l2.546.105a2.4 2.4 0 0 1 1.6.711 1.914 1.914 0 0 1 .333.435 2.174 2.174 0 0 1 .282 1.191 2.285 2.285 0 0 1-1.063 1.828 2.4 2.4 0 0 1-1.341.319h-.087c-.716-.024-.9-.031-2.215-.1-3.506-.165-6.321-.282-6.823-6.275a6.108 6.108 0 0 0-2.81-3.726c-.019-.006-.032-.016-.051-.022a4.809 4.809 0 0 0-1.683-.494h-.005c-.12-.01-.244-.02-.369-.025a6.9 6.9 0 0 0-1.243.05h-.01a3.617 3.617 0 0 0-3.316 2.946c-.044.113-.1 2.35-.1 2.35s-15.541-.549-18.888-.765c-1.984-.115-2.52-.534-2.958-1.206zm29.184 1.624a3.721 3.721 0 0 1-1.963.569h-.01a7.51 7.51 0 0 1-.948-.005l-3.382-.136.062-1.48a3.2 3.2 0 0 1 1.539-2.765 3.712 3.712 0 0 1 1.48-.5 3.588 3.588 0 0 1 3.256 1.424 3.42 3.42 0 0 1 .574 2.176 1.447 1.447 0 0 1-.609.72z" class="cls-10" data-name="Path 5162" transform="translate(803.392 -1689.742)"/>
                </g>
                <path id="Path_5415" d="M-1085.022 1703.052a2.177 2.177 0 0 1-2.114-1.666c-.62-2.571-1.272-5.131-1.934-7.61a2.174 2.174 0 0 1 1.54-2.663 2.176 2.176 0 0 1 2.664 1.54c.672 2.513 1.332 5.107 1.96 7.712a2.177 2.177 0 0 1-1.6 2.626 2.207 2.207 0 0 1-.516.061z" class="cls-3" data-name="Path 5415" transform="translate(1115.62 -1405.371)"/>
                <path id="Path_5416" d="M-1083.686 1785.906a2.18 2.18 0 0 1-1.675-.786 2.18 2.18 0 0 1-.406-2.03c.061-.2 6.052-20.031 3.479-40.508 0-.036-.009-.075-.01-.111a364.238 364.238 0 0 0-6.173-41.6 2.176 2.176 0 0 1 1.693-2.57 2.176 2.176 0 0 1 2.57 1.692 370.412 370.412 0 0 1 6.245 42.1c2.086 16.689-1.135 32.533-2.781 39.111 17.02-1.955 97.289-11.253 125.674-15.928a77.4 77.4 0 0 0 8.353-1.7c4.016-1.21 7.514-4.475 10.04-9.422 5.638-11.038 5.909-28.576.677-43.641-6.813-19.616-33.928-23.336-37-23.7-11.14-1.3-24.155 4.534-33.655 8.8-11.306 5.075-20.051 2.957-20.417 2.865-9.26-2.428-10.405-15.826-11.731-31.341-1.373-16.065-2.929-34.275-13.731-41.9a65.787 65.787 0 0 0-12.937-6.983 2.178 2.178 0 0 1-1.342-2.321 14.483 14.483 0 0 0-.955-6.592c-1.757-4.306-5.635-6.882-11.524-7.655-16.079-2.109-34.564 5.289-35.785 8.807-.688 1.984 1.385 6.756 3.567 11.475a2.176 2.176 0 0 1-1.062 2.889 2.176 2.176 0 0 1-2.888-1.061c-3.422-7.4-4.853-11.49-3.729-14.729 2.28-6.572 23.984-13.855 40.464-11.7 5.767.757 10.121 3.022 12.942 6.73a17.727 17.727 0 0 1 3.381 10.716 70.207 70.207 0 0 1 12.364 6.855c12.47 8.8 14.117 28.082 15.571 45.094 1.136 13.295 2.209 25.853 8.479 27.5.048.011 7.7 1.8 17.549-2.621 9.962-4.473 23.6-10.6 35.944-9.152 15.084 1.768 34.768 9.791 40.6 26.591 5.6 16.114 5.231 35.022-.912 47.049-3.08 6.029-7.484 10.051-12.738 11.63a81.48 81.48 0 0 1-8.862 1.81c-31.734 5.227-128.072 16.206-129.04 16.317a2.118 2.118 0 0 1-.239.02z" class="cls-3" data-name="Path 5416" transform="translate(1119.561 -1392.254)"/>
            </g>
        </g>
    </g>
</svg>
