<svg xmlns="http://www.w3.org/2000/svg" width="737.666" height="448.031" viewBox="0 0 737.666 448.031">
    <defs>
        <style>
            .cls-1{fill:#fff}.cls-2{fill:#0cc}.cls-3{fill:#7ce0db}.cls-4{fill:#639}.cls-6{fill:#0027e7}.cls-7{fill:#e2e2e2}.cls-13,.cls-8{fill:#339}.cls-8{opacity:.2}.cls-10{fill:none;stroke:#fff;stroke-miterlimit:10;stroke-width:3.546px}.cls-12{fill:#04b2ad}.cls-14{fill:#c39}.cls-15{fill:#d6d6eb}
        </style>
    </defs>
    <g id="axe_-_tehran" transform="translate(-611 -384)">
        <g id="Group_6700" transform="translate(710.357 616.756)">
            <path id="Path_5226" d="M206.89 286.911c2.325-9.574-11.482-23.581-11.173-35.281.309-11.682 6.776-19.384 6.776-31.684s-16.314-24.308-18.149-31.684c-1.853-7.376 2.453-15.388 2.162-23.69s-13.226-15.7-24.308-15.388-19.385 7.376-21.528 13.226c-2.162 5.85 3.07 25.234 2.616 36.3-.454 11.082-17.386 21.219-17.386 30.448s10.464 12.608 10.773 25.234-10.773 22.455-6.159 40.6 30.158 20.929 30.158 20.929 37.661 6.216 46.218-29.01z" class="cls-1" transform="translate(-124.792 -144.559)"/>
            <path id="Path_5227" d="M198.151 294.483s2.671-8.775 0-16.6c-3.125-9.175-11.227-14.279-9.7-29.649 1.544-15.388 9.847-19.948 7.376-30.1-2.453-10.156-5.686-5.468-11.536-15.933s-7.685-24.308-4.923-35.063c2.761-10.773-13.208-18.44-21.528-17.223-8.321 1.2-15.261 3.6-17 12.263s3.252 21.292 2.907 29.322c-.345 8.012-15.224 21.528-15.86 30.666s12.753 20.674 11.209 31.139-13.535 21.528-11.227 33.537c2.307 11.99 18.349 26.869 31.538 28.3 10.028 1.09 11.518 1.653 17.531-.309 13.02-4.291 21.213-20.35 21.213-20.35z" class="cls-2" transform="translate(-123.429 -144.065)"/>
            <path id="Path_5228" d="M151.806 312.731s-15.1-19.639-12.953-28.559 13.28-20.929 12.953-35.681c-.327-14.77-9.865-11.391-9.556-20s3.379-13.226 8.3-18.458 11.391-9.847 8.3-20.62c-3.07-10.773-9.792-15.66-9.7-21.837.164-10.682 10.5-19.094 10.5-19.094s-17.713 3.833-18.331 12.953 7.067 23.381 4 35.063-16.332 18.222-17.077 29.885c-.763 11.645 8.157 17.8 9.084 27.033s-11.518 20.275-9.683 31.684c3.833 23.688 24.163 27.631 24.163 27.631z" class="cls-3" transform="translate(-123.519 -145.127)"/>
            <path id="Path_5229" d="M163.1 319.488a1.979 1.979 0 0 1-.327-.018 56.122 56.122 0 0 1-14.207-3.87c-10.01-4.269-16.441-10.937-18.567-19.312-3.016-11.845.127-20.4 2.907-27.959 1.744-4.76 3.252-8.884 3.161-13.335-.145-5.777-2.725-9.229-5.45-12.881-2.616-3.506-5.323-7.122-5.323-12.426 0-5.577 4.287-10.646 8.811-16.005 4.124-4.869 8.375-9.9 8.575-14.588.2-4.724-.727-11.246-1.635-17.55-1.2-8.448-2.253-15.751-.8-19.675 2.616-7.122 12.045-14.879 24.308-15.224 12.1-.345 27.051 7.757 27.433 18.313a46.987 46.987 0 0 1-1.4 11.427c-.872 4.2-1.708 8.157-.836 11.627.563 2.235 3.524 5.868 6.395 9.374 5.287 6.449 11.845 14.5 11.845 23.054 0 6.849-1.835 12.281-3.6 17.531-1.562 4.651-3.034 9.047-3.179 14.225-.145 5.414 2.453 11.391 4.978 17.168 2.6 5.959 5.032 11.573 4.869 16.987a3.045 3.045 0 0 1-6.086-.2c.127-4.033-2.053-9.047-4.36-14.37-2.78-6.395-5.65-13.008-5.487-19.766.164-6.1 1.853-11.137 3.488-16.024 1.69-5.014 3.27-9.738 3.27-15.588 0-6.395-5.559-13.189-10.464-19.2-3.6-4.4-6.7-8.193-7.594-11.754-1.217-4.833-.2-9.683.781-14.352a41.79 41.79 0 0 0 1.272-9.956c-.109-2.8-2.6-5.941-6.667-8.43a27.566 27.566 0 0 0-14.516-4.015 23.285 23.285 0 0 0-12.481 4.015 16.771 16.771 0 0 0-6.286 7.231c-.908 2.471.163 10.046 1.108 16.714.945 6.577 1.908 13.371 1.69 18.676-.291 6.758-5.232 12.608-10.01 18.258-3.633 4.287-7.376 8.72-7.376 12.063 0 3.288 1.817 5.7 4.106 8.775 2.889 3.851 6.468 8.648 6.649 16.369.145 5.6-1.726 10.664-3.524 15.569-2.6 7.049-5.269 14.352-2.725 24.362 4.033 15.86 27.287 18.621 27.523 18.64a3.043 3.043 0 0 1 2.689 3.361 2.947 2.947 0 0 1-2.958 2.759z" class="cls-4" transform="translate(-125.29 -146.634)"/>
        </g>
        <g id="Group_6701" transform="translate(739.854 728.277)">
            <path id="Path_5230" d="M152.022 299.238a3.047 3.047 0 0 1-3.052-3.052v-85.114a3.052 3.052 0 0 1 6.1 0v85.114a3.047 3.047 0 0 1-3.048 3.052z" class="cls-4" transform="translate(-135.445 -208.02)"/>
            <path id="Path_5231" d="M152.44 239.956a3.043 3.043 0 0 1-2.162-5.2l14.152-14.152a3.045 3.045 0 0 1 4.306 4.306l-14.152 14.152a3.042 3.042 0 0 1-2.144.894z" class="cls-4" transform="translate(-135.1 -198.462)"/>
            <path id="Path_5232" d="M158.1 231.2a3.038 3.038 0 0 1-2.017-.763l-13.535-11.99a3.05 3.05 0 1 1 4.051-4.56l13.535 11.99a3.047 3.047 0 0 1 .254 4.306 3.107 3.107 0 0 1-2.288 1.017z" class="cls-4" transform="translate(-141.526 -203.858)"/>
        </g>
        <circle id="Ellipse_16" cx="53.993" cy="53.993" r="53.993" class="cls-1" transform="translate(1231.323 691.344)"/>
        <circle id="Ellipse_17" cx="48.452" cy="48.452" r="48.452" class="cls-2" transform="translate(1231.323 696.885)"/>
        <path id="Path_5233" d="M413.11 240.106c0 26.76 13.843 49.688 50.523 47.671 0 0-35.608-15.606-35.408-48.452.2-31.829 35.408-48.452 35.408-48.452-29.285-3.361-50.523 22.473-50.523 49.233z" class="cls-3" transform="translate(820.139 506.012)"/>
        <path id="Path_5234" d="M374.9 86.259c4.306.436 22.418 3.306 23.926 21.347a4.733 4.733 0 0 0 5.3 4.324c6.976-.872 18.2.309 17.568 17.023-.89 23.508-71.252 15.224-74.995 14.77a1.562 1.562 0 0 0-.291-.018c-1.671-.109-18.258-1.526-16.968-17.586.963-12.19 12.081-14.08 18.222-14.189a4.717 4.717 0 0 0 4.542-3.724c1.308-6.1 5.759-17.6 20.929-21.8a5.27 5.27 0 0 1 1.767-.147z" class="cls-1" transform="translate(751.746 420.795)"/>
        <path id="Path_5235" d="M500.96 254.2l.272-179.438a6 6 0 0 0-5.868-6l-36.044-.636-30.575-11.076-35.953 6.922-41.276-6.7-25.8 11.518h-38.24a4.218 4.218 0 0 0-4.215 4.21v180.457c0 6.758-1.926 21.256-6.413 26.306L136.07 429.3h176.641l28.214-148.336s24.326-29.831 51.849-27.687c35.735 2.78 51.668 38.224 51.668 38.224l22.346 140.088 192.864-1.381-147.864-149.5A37.749 37.749 0 0 1 500.96 254.2z" class="cls-1" transform="translate(593.872 396.955)"/>
        <path id="Path_5236" fill="#c6c6c6" d="M336.361 57.73l4.339 178.13s-7.721-25.416-22.727-41.167-22.655-23.145-22.655-23.145-21.6 24.907-27.723 34.463-14.3 22.745-14.3 22.745l2.494-171.026L297.065 65z" opacity="0.5" transform="translate(689.617 397.512)"/>
        <path id="Path_5237" d="M316.06 177.94l44.764 152.406s-1.235-10.81-13.426-13.716-12.3-1.508-12.3-1.508 2.925 10.228 1.381 13.607 23.527 1.617 23.527 1.617" class="cls-6" transform="translate(740.875 495.691)"/>
        <path id="Path_5238" d="M326.85 254.456s13.353-11.336 25.143-3.4c11.809 7.939 11.954 21.328 11.954 21.328l-31.865.763z" class="cls-6" transform="translate(749.688 553.104)"/>
        <path id="Path_5239" d="M343.544 129.48l-37.225 240.444-168.429 2.544s169.664-175.351 183.817-198.9a299.084 299.084 0 0 0 21.837-44.088z" class="cls-7" transform="translate(595.358 456.111)"/>
        <path id="Path_5240" d="M383.5 89.667s-15.842 1-20.311 8.684-2.071 13.226-6.7 18.149c-3.724 3.96-18.6-1.108-19.294 11.536-.509 9.411 4.615 14.389 18.313 14.08 0 0-26 7.231-25.543-13.843s20.693-18 20.693-18 4.07-20.729 14.461-22.418a35.394 35.394 0 0 1 18.381 1.812z" class="cls-8" transform="translate(752.225 421.73)"/>
        <path id="Path_5241" d="M504.907 375.035l-126.59-130.6s-57.845-53.285-65.675-82.625-10.882-36.43-10.882-36.43l29.358 224.42 2.761 25.234z" class="cls-7" transform="translate(729.195 452.764)"/>
        <path id="Path_5242" d="M309.429 65.69v118.033l-9.229-26.67.8-95.323z" class="cls-8" transform="translate(727.922 400.777)"/>
        <path id="Path_5243" d="M323.309 65.43h-8.157l-2.562 149.3 9.193 13.789z" class="cls-8" transform="translate(738.041 403.801)"/>
        <path id="Path_5244" d="M232.561 66.36l-4.578 186.051a26.57 26.57 0 0 1-3.234-.545c-1.072-.309-2.616 4.723-3.524 5.7-.908.963-1.544-191.211-1.544-191.211z" class="cls-8" transform="translate(662.158 404.561)"/>
        <path id="Path_5245" fill="#0cc" d="M277.291 128.046L277 199.225s32.374 3.815 47.744 29.195c0 0-4.324-47.417-12.136-60.751C303.67 152.408 277 121.36 277 121.36z" opacity="0.5" transform="translate(708.974 449.48)"/>
        <path id="Path_5246" d="M298.781 127.519l-.327 71.706s-32.374 3.815-47.744 29.195c0 0 4.324-47.417 12.136-60.751 8.956-15.26 35.608-46.308 35.608-46.308z" class="cls-2" transform="translate(687.502 449.48)"/>
        <path id="Path_5247" d="M348.97 61.73l-1.126 88.37s.345 47.762-8.266 64.33c-8.884 17.1-21.347 37.879-34.5 54.266s-84.569 87.8-84.569 87.8l-64.948 72-21-.69L307.04 244s11.536-12.463 18.567-26.288l.908-17.786 3.706-131.168z" class="cls-8" transform="translate(592.639 400.777)"/>
        <path id="Path_5248" d="M271.562 144.476a1.545 1.545 0 0 1-.872-.272l-7.049-4.742a1.57 1.57 0 1 1 1.762-2.6l7.049 4.742a1.571 1.571 0 0 1-.89 2.87z" class="cls-1" transform="translate(697.497 461.918)"/>
        <path id="Path_5249" d="M294.664 64.956l.454 97.377s-.309-.763-4.469 3.07c-4.16 3.851-22.964 23.8-25.4 26.924s-9.138 15.351-9.81 17.659S259.22 61.74 259.22 61.74z" class="cls-8" transform="translate(691.31 400.787)"/>
        <path id="Path_5250" d="M258.32 166.441l1.308.327s4.869-9.356 7.067-11.918 6.595-7.794 8.956-10.119 6-6.231 6-6.231l10.9-11.336 19.076 19.8 1.562-1.2-21.078-23.324s-18.185 16.587-22.073 22.745-11.718 21.256-11.718 21.256z" class="cls-1" transform="translate(693.717 450.361)"/>
        <path id="Path_5251" d="M291.549 151.754a1.566 1.566 0 0 1-1.308-.69c-4.778-7.1-19.893-20.148-20.057-20.293a1.571 1.571 0 1 1 2.053-2.38c.636.545 15.588 13.444 20.6 20.911a1.573 1.573 0 0 1-.418 2.18 1.5 1.5 0 0 1-.87.272z" class="cls-1" transform="translate(702.964 454.912)"/>
        <path id="Path_5252" d="M279.419 138.683a1.571 1.571 0 0 1-1.054-2.743l8.284-7.321a1.57 1.57 0 1 1 2.089 2.344l-8.284 7.321a1.517 1.517 0 0 1-1.035.399z" class="cls-1" transform="translate(709.661 455.084)"/>
        <path id="Path_5253" d="M290.508 161.807a1.628 1.628 0 0 1-1.163-.509 141.412 141.412 0 0 0-16.914-15.479 1.57 1.57 0 1 1 1.889-2.507 141.216 141.216 0 0 1 17.332 15.878 1.576 1.576 0 0 1-.109 2.216 1.485 1.485 0 0 1-1.035.401z" class="cls-1" transform="translate(704.73 467.15)"/>
        <path id="Path_5254" d="M308.295 189.417a1.584 1.584 0 0 1-1.435-.945l-9.592-22.382a1.562 1.562 0 1 1 2.87-1.235l9.592 22.382a1.568 1.568 0 0 1-.818 2.053 1.506 1.506 0 0 1-.617.127z" class="cls-1" transform="translate(725.422 484.232)"/>
        <path id="Path_5255" d="M294.212 164.394a1.571 1.571 0 0 1 0-3.143l11.227-.091h.018a1.572 1.572 0 0 1 0 3.143l-11.246.091z" class="cls-1" transform="translate(721.756 481.986)"/>
        <path id="Path_5256" d="M279.489 168.12c-.309 0-.509 0-7.594-2.325a1.568 1.568 0 0 1 .981-2.979c2.979.981 6.3 2.053 6.867 2.18a1.574 1.574 0 0 1-.254 3.125zm0-3.143zm0 0z" class="cls-1" transform="translate(703.923 483.273)"/>
        <path id="Path_5257" d="M267.685 173.5a1.611 1.611 0 0 1-1-.363 1.542 1.542 0 0 1-.2-2.2 64.777 64.777 0 0 1 13.154-11.337 1.568 1.568 0 1 1 1.671 2.652c-.073.055-7.539 4.833-12.426 10.682a1.543 1.543 0 0 1-1.199.566z" class="cls-1" transform="translate(700.085 480.51)"/>
        <path id="Path_5258" d="M280.574 169.026a1.554 1.554 0 0 1-1.435-.945 1.573 1.573 0 0 1 .817-2.071c8.956-3.906 14.716-3.96 15.043-3.96a1.562 1.562 0 0 1 0 3.125c-.054 0-5.432.054-13.789 3.706a1.4 1.4 0 0 1-.636.145z" class="cls-1" transform="translate(710.613 482.713)"/>
        <path id="Path_5259" d="M303.143 181.129a1.569 1.569 0 0 1-1.145-.491 120.415 120.415 0 0 0-28.868-22.11 1.564 1.564 0 1 1 1.435-2.78 120.874 120.874 0 0 1 29.74 22.764 1.574 1.574 0 0 1-.073 2.216 1.792 1.792 0 0 1-1.089.401z" class="cls-1" transform="translate(705.121 477.424)"/>
        <path id="Path_5260" d="M251.571 198.1a1.32 1.32 0 0 1-.454-.073 1.56 1.56 0 0 1-1.036-1.962c1.562-5.087 13.371-32.974 21.274-42.966a1.565 1.565 0 0 1 2.453 1.944c-7.648 9.683-19.366 37.515-20.729 41.948a1.592 1.592 0 0 1-1.508 1.109z" class="cls-1" transform="translate(686.931 474.914)"/>
        <path id="Path_5261" d="M259.278 164.241a1.669 1.669 0 0 1-.509-.091 29.2 29.2 0 0 0-5.468-.182h-.018a1.559 1.559 0 0 1-1.562-1.544 1.54 1.54 0 0 1 1.544-1.581c5.65-.073 6.449.309 6.7.418a1.557 1.557 0 0 1 .727 2.089 1.576 1.576 0 0 1-1.414.891zm-.672-.145zm0 0zm0 0zm-.018 0z" class="cls-1" transform="translate(688.326 481.721)"/>
        <g id="Group_6702" transform="translate(1266.596 739.359)">
            <path id="Path_5262" d="M441.962 305.338a3.047 3.047 0 0 1-3.052-3.052v-85.114a3.052 3.052 0 0 1 6.1 0v85.114a3.071 3.071 0 0 1-3.048 3.052z" class="cls-4" transform="translate(-425.385 -214.12)"/>
            <path id="Path_5263" d="M442.386 246.056a3.043 3.043 0 0 1-2.162-5.2l14.152-14.152a3.059 3.059 0 0 1 4.306 0 3.027 3.027 0 0 1 0 4.306l-14.152 14.156a2.967 2.967 0 0 1-2.144.89z" class="cls-4" transform="translate(-425.046 -204.562)"/>
            <path id="Path_5264" d="M448.042 237.3a3.037 3.037 0 0 1-2.017-.763l-13.535-11.99a3.05 3.05 0 1 1 4.051-4.56l13.535 11.99a3.047 3.047 0 0 1 .254 4.306 3.107 3.107 0 0 1-2.288 1.017z" class="cls-4" transform="translate(-431.466 -209.958)"/>
        </g>
        <path id="Path_5265" d="M273.385 158.216a1.518 1.518 0 0 1-.818-.236c-8.684-5.3-14.625-6.54-14.679-6.558a1.575 1.575 0 0 1 .618-3.088c.273.055 6.558 1.363 15.7 6.958a1.579 1.579 0 0 1-.818 2.925z" class="cls-1" transform="translate(692.332 471.486)"/>
        <path id="Path_5266" d="M294.255 153.463a1.565 1.565 0 0 1-.436-3.07l6.595-1.926a1.57 1.57 0 1 1 .872 3.016l-6.595 1.926a1.793 1.793 0 0 1-.436.054z" class="cls-1" transform="translate(721.785 471.57)"/>
        <path id="Path_5270" d="M310.889 194.265a1.554 1.554 0 0 1-1.435-.945c-6.413-14.716-23.472-34.663-23.654-34.863a1.572 1.572 0 1 1 2.38-2.053c.709.836 17.531 20.511 24.144 35.644a1.573 1.573 0 0 1-.818 2.071 1.237 1.237 0 0 1-.617.146z" class="cls-1" transform="translate(715.852 477.658)"/>
        <path id="Path_5272" d="M138.469 387.927a2.952 2.952 0 0 1-2.107-.854 3.043 3.043 0 0 1-.091-4.306c21.583-22.509 41.4-43.347 58.88-61.751 23.763-25 44.274-46.581 64.058-66.947 51.522-53.048 85.441-91.418 87.33-139.234a3.045 3.045 0 1 1 6.086.236c-.945 23.835-9.374 46.581-26.542 71.561-15.86 23.091-37.7 46.109-62.514 71.67-19.748 20.347-40.259 41.912-64 66.892-17.477 18.385-37.3 39.241-58.9 61.769a2.952 2.952 0 0 1-2.2.964z" class="cls-4" transform="translate(593.344 441.76)"/>
        <path id="Path_5273" d="M252.221 196.793a1.32 1.32 0 0 1-.454-.073 1.56 1.56 0 0 1-1.036-1.962c1.508-4.905 17.822-28.414 19.675-31.084a1.567 1.567 0 1 1 2.58 1.78c-7.176 10.3-18.222 26.851-19.257 30.212a1.586 1.586 0 0 1-1.508 1.127z" class="cls-1" transform="translate(687.462 483.486)"/>
        <path id="Path_5276" d="M221.052 262.409a3.047 3.047 0 0 1-3.052-3.052V73.342a6.854 6.854 0 0 1 6.849-6.849h34.718L282.53 55.32l42.33 5.941h.618l42.33-5.941 22.964 11.173h34.7a6.873 6.873 0 0 1 6.867 6.867v57.409a3.052 3.052 0 1 1-6.1 0V73.36a.775.775 0 0 0-.781-.781h-36.1L366.79 61.606l-40.913 5.741h-1.472l-40.913-5.741-22.563 10.973h-36.134a.748.748 0 0 0-.745.745v186.015a2.972 2.972 0 0 1-2.998 3.07z" class="cls-4" transform="translate(660.786 395.543)"/>
        <path id="Path_5277" d="M335.692 206.561a3.047 3.047 0 0 1-3.052-3.052v-76.757a3.052 3.052 0 1 1 6.1 0v76.757a3.047 3.047 0 0 1-3.048 3.052z" class="cls-4" transform="translate(754.416 451.391)"/>
        <path id="Path_5278" d="M332.34 398.965a3.037 3.037 0 0 1-3-2.525c-.945-5.378-23.127-132.04-25.252-153.9-2.58-26.343-5.432-173.5-5.559-179.747a3.044 3.044 0 1 1 6.086-.127c.036 1.526 2.961 153.169 5.523 179.275 2.126 21.637 24.962 152.133 25.2 153.441a3.047 3.047 0 0 1-2.471 3.524 2.734 2.734 0 0 1-.527.059z" class="cls-4" transform="translate(726.558 399.111)"/>
        <path id="Path_5279" d="M234.691 279.624a3.153 3.153 0 0 1-.581-.055 3.06 3.06 0 0 1-2.416-3.561c.018-.127 2.525-13.062 6.086-31.756a3.043 3.043 0 0 1 5.977 1.145c-3.561 18.712-6.068 31.647-6.086 31.775a3.031 3.031 0 0 1-2.98 2.452z" class="cls-4" transform="translate(671.928 547.828)"/>
        <path id="Path_5280" d="M239.291 245.54a2.959 2.959 0 0 1-.563-.054 3.054 3.054 0 0 1-2.434-3.561l.273-1.472.545-2.852.254-1.363a3.05 3.05 0 1 1 6 1.126l-.254 1.363-.545 2.852-.272 1.472a3.065 3.065 0 0 1-3.004 2.489z" class="cls-4" transform="translate(675.685 541.273)"/>
        <path id="Path_5281" d="M240.451 368.125a2.957 2.957 0 0 1-.563-.054 3.054 3.054 0 0 1-2.434-3.561c12.3-65.33 19.294-105.007 20.257-114.745 2.562-26.106 5.486-177.749 5.523-179.275a3.044 3.044 0 0 1 6.086.127c-.127 6.25-2.979 153.4-5.559 179.747-1.235 12.535-11.736 69.6-20.329 115.272a3.017 3.017 0 0 1-2.981 2.489z" class="cls-4" transform="translate(676.632 405.498)"/>
        <path id="Path_5282" d="M314.782 200.159a3.047 3.047 0 0 1-3.052-3.052V64.522a3.052 3.052 0 1 1 6.1 0v132.6a3.043 3.043 0 0 1-3.048 3.037z" class="cls-4" transform="translate(737.339 400.566)"/>
        <path id="Path_5283" d="M242.222 164.55a3.047 3.047 0 0 1-3.052-3.052v-53.376a3.052 3.052 0 1 1 6.1 0V161.5a3.047 3.047 0 0 1-3.048 3.05z" class="cls-4" transform="translate(678.076 436.176)"/>
        <path id="Path_5284" d="M242.222 115.732a3.047 3.047 0 0 1-3.052-3.052v-47.8a3.052 3.052 0 1 1 6.1 0v47.8a3.047 3.047 0 0 1-3.048 3.052z" class="cls-4" transform="translate(678.076 400.859)"/>
        <path id="Path_5285" d="M398.021 149.618c-.945 0-1.817-.018-2.6-.018-.636 0-1.235-.018-1.744-.018-7.467 0-48.707-.618-49.106-.618h-.236l-.236-.036a20.664 20.664 0 0 1-8.248-3.815c-3.724-2.816-8.139-8.193-8.1-17.8a15.722 15.722 0 0 1 4.942-11.936c5.214-4.905 13.226-5.868 17.35-6.013 1.308-5.178 5.25-16.732 15.261-21.964 7.667-4.015 17.023-3.4 27.832 1.817a3.047 3.047 0 0 1-2.652 5.487c-8.975-4.324-16.5-4.978-22.364-1.908-10.137 5.3-12.59 19.948-12.608 20.093l-.436 2.725-2.761-.163c-.091 0-10.264-.509-15.46 4.378a9.836 9.836 0 0 0-3 7.5c-.055 12.445 9.538 15.188 11.137 15.551 3.743.055 41.639.618 48.725.618.545 0 1.181 0 1.835.018 5.432.073 15.533.218 20.511-4.687 2.162-2.144 3.216-5.069 3.216-8.956 0-9.81-4.8-14.825-14.243-14.879a8.217 8.217 0 0 1-7.994-6.649 7.639 7.639 0 0 0-.2-.818 3.05 3.05 0 1 1 5.886-1.6c.109.418.218.836.291 1.235a2.082 2.082 0 0 0 2.053 1.726 22.031 22.031 0 0 1 12.9 3.779c4.905 3.579 7.394 9.374 7.412 17.186 0 5.523-1.69 10.01-5.032 13.3-5.98 5.865-15.736 6.465-22.331 6.465z" class="cls-4" transform="translate(750.423 419.605)"/>
        <path id="Path_5286" d="M367.557 98.5a3.014 3.014 0 0 1-2.707-1.653c-.127-.254-.236-.454-.309-.581a2.948 2.948 0 0 1-.545-.963 3.062 3.062 0 0 1 1.654-3.903 3.1 3.1 0 0 1 4 1.49c.145.254.363.636.636 1.181a3.055 3.055 0 0 1-1.326 4.106 3.219 3.219 0 0 1-1.403.323zm-3.2-2.6z" class="cls-4" transform="translate(779.869 424.811)"/>
        <path id="Path_5287" d="M328.334 97.366a1.744 1.744 0 0 1-1.744-1.744V74.384a1.744 1.744 0 0 1 3.488 0V95.6a1.748 1.748 0 0 1-1.744 1.766z" class="cls-4" transform="translate(749.476 409.689)"/>
        <path id="Path_5288" d="M322.114 97.928a1.745 1.745 0 0 1-1.744-1.744v-21.22a1.744 1.744 0 0 1 3.488 0v21.219a1.745 1.745 0 0 1-1.744 1.745z" class="cls-4" transform="translate(744.396 410.162)"/>
        <path id="Path_5289" d="M227.554 97.366a1.745 1.745 0 0 1-1.744-1.744V74.384a1.744 1.744 0 1 1 3.488 0V95.6a1.748 1.748 0 0 1-1.744 1.766z" class="cls-4" transform="translate(667.165 409.689)"/>
        <path id="Path_5290" d="M233.784 97.928a1.745 1.745 0 0 1-1.744-1.744v-21.22a1.744 1.744 0 0 1 3.488 0v21.219a1.756 1.756 0 0 1-1.744 1.745z" class="cls-4" transform="translate(672.253 410.162)"/>
        <path id="Path_5291" d="M306.934 93.418a1.745 1.745 0 0 1-1.744-1.744v-21.22a1.744 1.744 0 1 1 3.488 0v21.219a1.745 1.745 0 0 1-1.744 1.745z" class="cls-4" transform="translate(731.997 406.479)"/>
        <path id="Path_5292" d="M248.834 92.856a1.745 1.745 0 0 1-1.744-1.744V69.874a1.744 1.744 0 0 1 3.488 0v21.219a1.76 1.76 0 0 1-1.744 1.763z" class="cls-4" transform="translate(684.545 406.006)"/>
        <path id="Path_5293" d="M291.02 148.511a1.566 1.566 0 0 1-1.308-.69c-4.778-7.085-18.694-18.331-18.839-18.44a1.563 1.563 0 1 1 1.962-2.434c.581.472 14.425 11.663 19.475 19.13a1.573 1.573 0 0 1-.418 2.18 1.629 1.629 0 0 1-.872.254z" class="cls-4" transform="translate(703.492 453.758)"/>
        <path id="Path_5294" d="M279.649 136.1a1.571 1.571 0 0 1-1.054-2.743l6.776-6a1.57 1.57 0 0 1 2.089 2.344l-6.776 6a1.55 1.55 0 0 1-1.035.399z" class="cls-4" transform="translate(709.849 454.055)"/>
        <path id="Path_5295" d="M279.981 153.631a1.571 1.571 0 0 1-.945-2.816l17.132-13.189a1.568 1.568 0 0 1 1.908 2.489L280.944 153.3a1.474 1.474 0 0 1-.963.331z" class="cls-1" transform="translate(710.135 462.5)"/>
        <path id="Path_5296" d="M293.065 151.8a1.565 1.565 0 0 1-.436-3.07l6.595-1.926a1.57 1.57 0 1 1 .872 3.016l-6.595 1.926a1.79 1.79 0 0 1-.436.054z" class="cls-4" transform="translate(720.813 470.215)"/>
        <path id="Path_5297" d="M304.154 173.867a1.576 1.576 0 0 1-1.417-.89c-3.434-7.085-17.695-26.343-17.84-26.542a1.571 1.571 0 0 1 2.525-1.871c.6.8 14.57 19.675 18.131 27.033a1.557 1.557 0 0 1-.727 2.089 1.291 1.291 0 0 1-.672.181z" class="cls-4" transform="translate(715.175 467.916)"/>
        <path id="Path_5298" d="M303.834 173.417a1.576 1.576 0 0 1-1.417-.89c-3.434-7.085-17.695-26.343-17.84-26.542a1.572 1.572 0 1 1 2.525-1.871c.6.8 14.57 19.675 18.131 27.033a1.557 1.557 0 0 1-.727 2.089 1.291 1.291 0 0 1-.672.181z" class="cls-1" transform="translate(714.914 467.549)"/>
        <path id="Path_5299" d="M294.722 162.344a1.571 1.571 0 0 1 0-3.143l11.227-.091h.018a1.571 1.571 0 0 1 0 3.143l-11.246.091z" class="cls-4" transform="translate(722.172 480.311)"/>
        <path id="Path_5300" d="M308.437 183.333a1.567 1.567 0 0 1-1.4-.854l-9.72-19a1.564 1.564 0 1 1 2.78-1.435l9.72 19a1.567 1.567 0 0 1-.672 2.107 1.469 1.469 0 0 1-.708.182z" class="cls-4" transform="translate(725.426 482.014)"/>
        <path id="Path_5301" d="M271.845 142.02a1.605 1.605 0 0 1-.8-.218l-6.845-4.052a1.564 1.564 0 0 1 1.6-2.689l6.849 4.051a1.549 1.549 0 0 1 .545 2.144 1.568 1.568 0 0 1-1.349.764z" class="cls-4" transform="translate(697.887 460.486)"/>
        <path id="Path_5302" d="M270.511 165.373a1.9 1.9 0 0 1-.545-.091 27.46 27.46 0 0 0-9.411-.963 1.573 1.573 0 0 1-.127-3.143 29.979 29.979 0 0 1 10.628 1.145 1.553 1.553 0 0 1 .927 2.017 1.579 1.579 0 0 1-1.472 1.035z" class="cls-1" transform="translate(694.206 481.969)"/>
        <path id="Path_5303" d="M260.511 162.22c-.018-.018-2.053-.945-7.776-.709a1.573 1.573 0 0 1-.127-3.143c6.667-.272 9.1.908 9.356 1.054l-1.49 2.761c.001.017.019.017.037.037z" class="cls-4" transform="translate(687.819 479.672)"/>
        <path id="Path_5305" d="M266.088 169.865a1.626 1.626 0 0 1-1.072-.418 1.575 1.575 0 0 1-.091-2.216c.636-.672 15.424-16.623 16.877-17.986a1.569 1.569 0 0 1 2.126 2.307c-1.126 1.054-12.445 13.208-16.714 17.8a1.519 1.519 0 0 1-1.126.513z" class="cls-1" transform="translate(698.775 471.918)"/>
        <path id="Path_5306" d="M265.244 170.365a1.517 1.517 0 0 1-1.036-.4 1.56 1.56 0 0 1-.127-2.216c.036-.055 4.415-5 8.92-9.974 9.283-10.264 10.01-10.646 10.446-10.864a1.566 1.566 0 0 1 1.508 2.743c-1.417 1.054-12.118 12.9-18.549 20.166a1.426 1.426 0 0 1-1.162.545zm19.693-20.674a.064.064 0 0 0-.036.018c.018-.001.018-.019.036-.019z" class="cls-4" transform="translate(698.094 470.201)"/>
        <path id="Path_5307" d="M276.3 169.714a1.576 1.576 0 0 1-1.417-.89 1.557 1.557 0 0 1 .727-2.089c8.92-4.324 21.728-6.5 22.273-6.595a1.565 1.565 0 0 1 .509 3.088c-.127.018-12.917 2.2-21.419 6.322a1.415 1.415 0 0 1-.673.164z" class="cls-4" transform="translate(707.113 481.135)"/>
        <path id="Path_5308" d="M284.866 168.533c-.345 0-.527 0-13.189-4.578a1.563 1.563 0 1 1 1.054-2.943c4.415 1.6 11.591 4.178 12.445 4.433a1.559 1.559 0 0 1-.309 3.088zm0-3.143zm0 0z" class="cls-4" transform="translate(703.778 481.789)"/>
        <path id="Path_5309" d="M264.455 176.734a1.611 1.611 0 0 1-1-.363 1.542 1.542 0 0 1-.2-2.2c5.159-6.2 18.531-16.187 19.094-16.623a1.572 1.572 0 0 1 1.871 2.525c-.127.109-13.644 10.192-18.567 16.114a1.615 1.615 0 0 1-1.198.547z" class="cls-4" transform="translate(697.446 478.785)"/>
        <path id="Path_5310" d="M251.791 195.233a1.32 1.32 0 0 1-.454-.073 1.56 1.56 0 0 1-1.037-1.96c1.508-4.905 17.822-28.414 19.675-31.084a1.567 1.567 0 0 1 2.58 1.78c-7.176 10.3-18.222 26.851-19.257 30.212a1.586 1.586 0 0 1-1.507 1.125z" class="cls-4" transform="translate(687.11 482.213)"/>
        <path id="Path_5311" d="M251.331 194.527a1.32 1.32 0 0 1-.454-.073 1.56 1.56 0 0 1-1.036-1.962c1.417-4.6 12.735-30.612 20.856-40.895a1.565 1.565 0 0 1 2.453 1.944c-7.558 9.556-18.821 35.008-20.311 39.877a1.592 1.592 0 0 1-1.508 1.109z" class="cls-4" transform="translate(686.735 473.689)"/>
        <path id="Path_5312" d="M270.851 163.393a1.9 1.9 0 0 1-.545-.091 27.46 27.46 0 0 0-9.411-.963 1.573 1.573 0 1 1-.127-3.143 29.98 29.98 0 0 1 10.628 1.145 1.576 1.576 0 0 1-.545 3.052z" class="cls-4" transform="translate(694.484 480.352)"/>
        <path id="Path_5313" d="M279.482 162.738a1.572 1.572 0 0 1-.69-2.979l15.987-7.975a1.572 1.572 0 1 1 1.4 2.816l-15.987 7.975a1.678 1.678 0 0 1-.71.163z" class="cls-1" transform="translate(709.726 474.195)"/>
        <path id="Path_5314" d="M279.177 161.284a1.564 1.564 0 0 1-.708-2.961l16.732-8.484a1.568 1.568 0 0 1 1.417 2.8l-16.732 8.484a1.619 1.619 0 0 1-.709.161z" class="cls-4" transform="translate(709.467 472.596)"/>
        <path id="Path_5315" d="M302.773 178.969a1.569 1.569 0 0 1-1.145-.491 120.231 120.231 0 0 0-28.868-22.11 1.564 1.564 0 1 1 1.435-2.78 120.875 120.875 0 0 1 29.74 22.764 1.575 1.575 0 0 1-.073 2.216 1.792 1.792 0 0 1-1.089.401z" class="cls-4" transform="translate(704.819 475.658)"/>
        <path id="Path_5316" d="M392.495 352.422c-3.4-9.719-9.756-16.8-18.4-20.511-9.72-4.178-17.713-2.889-22.727-1.072a27.652 27.652 0 0 0-7.358 3.96l-40.3-199.332-.981-.908 13.843 132.549 13.789 99.23 19.893-.545-4.978-24.617a3.057 3.057 0 0 0 1.508-.8c.091-.091 9.865-9.284 24.871-2.852 7.067 3.034 12.118 8.666 14.988 16.75a39.253 39.253 0 0 1 2.253 11.718 3.043 3.043 0 0 0 3.034 3.052h.018a3.067 3.067 0 0 0 3.052-3.033 43.4 43.4 0 0 0-2.505-13.589z" class="cls-8" transform="translate(729.988 460.26)"/>
        <path id="Path_5317" d="M313.81 198.131a1.578 1.578 0 0 1-1.453-.963c-6.922-16.859-26.6-40.6-26.8-40.84a1.561 1.561 0 1 1 2.4-2c.818.981 20.184 24.362 27.287 41.658a1.585 1.585 0 0 1-.854 2.053 2.048 2.048 0 0 1-.58.092z" class="cls-4" transform="translate(715.674 475.953)"/>
        <path id="Path_5318" d="M303.914 171.057a1.576 1.576 0 0 1-1.417-.89c-3.434-7.085-17.695-26.343-17.84-26.542a1.572 1.572 0 0 1 2.525-1.871c.6.8 14.57 19.675 18.131 27.033a1.557 1.557 0 0 1-.727 2.089 1.337 1.337 0 0 1-.672.181z" class="cls-4" transform="translate(714.979 465.621)"/>
        <path id="Path_5319" d="M280.111 152.1a1.59 1.59 0 0 1-1.235-.6 1.546 1.546 0 0 1 .254-2.2l18.149-14.461a1.565 1.565 0 1 1 1.944 2.453l-18.149 14.461a1.459 1.459 0 0 1-.963.347z" class="cls-4" transform="translate(710.223 460.211)"/>
        <path id="Path_5320" d="M289.9 158.866a1.628 1.628 0 0 1-1.163-.509 125.728 125.728 0 0 0-16.078-14.716 1.571 1.571 0 0 1 1.871-2.525 126.87 126.87 0 0 1 16.532 15.133 1.576 1.576 0 0 1-.109 2.216 1.529 1.529 0 0 1-1.053.401z" class="cls-4" transform="translate(704.917 465.367)"/>
        <path id="Path_5321" d="M265.859 161.239a1.541 1.541 0 0 1-.981-.345 1.559 1.559 0 0 1-.218-2.2l18.2-22.328a1.562 1.562 0 0 1 2.416 1.98l-18.2 22.328a1.58 1.58 0 0 1-1.217.565z" class="cls-1" transform="translate(698.604 461.27)"/>
        <path id="Path_5322" d="M275.506 156.7a1.518 1.518 0 0 1-.817-.236 59.743 59.743 0 0 0-16.423-7.013 1.561 1.561 0 1 1 .654-3.052 61.772 61.772 0 0 1 17.4 7.394 1.565 1.565 0 0 1-.818 2.907z" class="cls-4" transform="translate(692.664 469.898)"/>
        <path id="Path_5323" d="M265.469 159.639a1.541 1.541 0 0 1-.981-.345 1.559 1.559 0 0 1-.218-2.2l18.2-22.328a1.562 1.562 0 0 1 2.416 1.98l-18.2 22.328a1.607 1.607 0 0 1-1.217.565z" class="cls-4" transform="translate(698.286 459.963)"/>
        <path id="Path_5324" d="M255.437 176.717a.318.318 0 0 1 .018-.091c.345-1.69 5.214-23.926 6.468-28.486 0 0-5.777 11.1-7.049 15.878-1.29 4.8-1.944 17.223-1.944 17.223z" class="cls-4" transform="translate(689.314 471.352)"/>
        <path id="Path_5325" d="M364.652 283.2a1.537 1.537 0 0 1-1.472-1.054l-14.28-41.077a1.569 1.569 0 0 1 2.961-1.036l14.279 41.076a1.567 1.567 0 0 1-.963 2 1.462 1.462 0 0 1-.525.091z" class="cls-4" transform="translate(767.623 545.545)"/>
        <path id="Path_5326" d="M354.861 255.05a1.537 1.537 0 0 1-1.471-1.05l-19.239-55.338a1.569 1.569 0 0 1 2.961-1.036l19.239 55.338a1.567 1.567 0 0 1-.963 2 1.887 1.887 0 0 1-.527.086z" class="cls-4" transform="translate(755.576 510.906)"/>
        <path id="Path_5327" d="M348.848 294.225a1.57 1.57 0 0 1-1.508-1.145l-31.683-114.018a1.565 1.565 0 0 1 3.016-.836l31.684 114.018a1.557 1.557 0 0 1-1.508 1.98z" class="cls-4" transform="translate(740.497 494.986)"/>
        <path id="Path_5328" d="M350.77 294.848a3.08 3.08 0 0 1-2.943-2.234l-31.266-112.492a3.055 3.055 0 0 1 5.886-1.635l31.266 112.492a3.05 3.05 0 0 1-2.126 3.761 3.161 3.161 0 0 1-.817.108z" class="cls-8" transform="translate(741.191 494.309)"/>
        <path id="Path_5329" d="M390.681 309.014a1.59 1.59 0 0 1-1.472-1l-37.842-98.521a1.564 1.564 0 0 1 2.925-1.108l37.842 98.521a1.558 1.558 0 0 1-.908 2.017 1.433 1.433 0 0 1-.545.091z" class="cls-4" transform="translate(769.626 519.729)"/>
        <path id="Path_5330" d="M409.307 294.662a1.557 1.557 0 0 1-1.381-.836l-35.644-66.565a1.58 1.58 0 0 1 .636-2.126 1.564 1.564 0 0 1 2.126.636l35.644 66.565a1.58 1.58 0 0 1-.636 2.126 1.393 1.393 0 0 1-.745.2z" class="cls-4" transform="translate(786.644 534.08)"/>
        <path id="Path_5331" d="M214.271 312.49a1.222 1.222 0 0 1-.436-.073 1.543 1.543 0 0 1-1.054-1.944l31.393-106.878a1.564 1.564 0 0 1 3 .89l-31.395 106.878a1.592 1.592 0 0 1-1.508 1.127z" class="cls-4" transform="translate(656.468 515.727)"/>
        <path id="Path_5332" d="M234.751 206.294a1.221 1.221 0 0 1-.436-.073 1.543 1.543 0 0 1-1.054-1.944l7.558-25.743a1.564 1.564 0 0 1 3 .89l-7.558 25.743a1.592 1.592 0 0 1-1.51 1.127z" class="cls-4" transform="translate(673.194 495.26)"/>
        <path id="Path_5333" d="M197.442 285.262a1.668 1.668 0 0 1-.509-.091 1.567 1.567 0 0 1-.963-2l15.606-44.91a1.569 1.569 0 1 1 2.961 1.036l-15.606 44.91a1.577 1.577 0 0 1-1.489 1.055z" class="cls-4" transform="translate(642.721 544.098)"/>
        <path id="Path_5334" d="M210.3 251a1.669 1.669 0 0 1-.509-.091 1.567 1.567 0 0 1-.963-2l17.713-50.959a1.569 1.569 0 0 1 2.961 1.036l-17.713 50.959A1.577 1.577 0 0 1 210.3 251z" class="cls-4" transform="translate(653.224 511.176)"/>
        <path id="Path_5335" d="M182.017 309.361a1.549 1.549 0 0 1-.563-.109 1.573 1.573 0 0 1-.908-2.017l37.842-98.521a1.564 1.564 0 1 1 2.925 1.108l-37.842 98.521a1.539 1.539 0 0 1-1.454 1.018z" class="cls-4" transform="translate(630.113 520)"/>
        <path id="Path_5336" d="M162.4 292.266a1.558 1.558 0 0 1-1.381-2.307l32.392-60.5a1.569 1.569 0 1 1 2.761 1.49l-32.392 60.5a1.56 1.56 0 0 1-1.38.817z" class="cls-4" transform="translate(614.09 537.094)"/>
        <path id="Path_5337" d="M385.521 247.631c-12.644-4.233-25.67 7.885-25.67 7.885l.091 2.453a9.791 9.791 0 0 0-3.234-2.362 22.456 22.456 0 0 0-17.077 0s-6.776-11.536-16.914-10.464-13.789 10.61-14.734 15.224c0 0-10.791-3.27-17.023 2.053s-8.23 14.334-8.23 14.334l77.938-1.108.054 1.381h42.039c0-.02 2.289-22.856-17.24-29.396z" class="cls-1" transform="translate(713.653 550.52)"/>
        <path id="Path_5338" d="M413.669 298.823a3.02 3.02 0 0 1-2.669-1.58l-38.587-70.289a3.049 3.049 0 0 1 5.341-2.943L416.34 294.3a3.05 3.05 0 0 1-1.2 4.142 3.118 3.118 0 0 1-1.471.381z" class="cls-8" transform="translate(786.588 532.027)"/>
        <path id="Path_5339" d="M393.635 311.176a3.07 3.07 0 0 1-2.852-1.962l-37.842-98.521a3.048 3.048 0 0 1 5.686-2.2l37.842 98.521a3.068 3.068 0 0 1-1.744 3.942 2.849 2.849 0 0 1-1.09.22z" class="cls-8" transform="translate(770.832 519.057)"/>
        <path id="Path_5340" d="M381.2 325.313a3.032 3.032 0 0 1-2.87-2.053l-44.6-128.3a3.051 3.051 0 1 1 5.759-2.017l44.6 128.3a3.068 3.068 0 0 1-1.871 3.888 2.87 2.87 0 0 1-1.018.182z" class="cls-8" transform="translate(755.166 506.281)"/>
        <path id="Path_5341" d="M213.64 331.771a2.78 2.78 0 0 1-.854-.127 3.045 3.045 0 0 1-2.071-3.779l43.166-147.718a3.047 3.047 0 1 1 5.85 1.708l-43.166 147.718a3.047 3.047 0 0 1-2.925 2.198z" class="cls-8" transform="translate(654.736 495.701)"/>
        <path id="Path_5342" d="M162.252 289.651a3.246 3.246 0 0 1-1.453-.363 3.053 3.053 0 0 1-1.235-4.124l28.05-51.795a3.044 3.044 0 0 1 5.359 2.889l-28.05 51.795a3.038 3.038 0 0 1-2.671 1.598z" class="cls-8" transform="translate(612.763 539.654)"/>
        <path id="Path_5343" d="M181.515 307.928a3.112 3.112 0 0 1-1.072-.2 3.035 3.035 0 0 1-1.762-3.924l35.045-92.472a3.042 3.042 0 1 1 5.686 2.162l-35.045 92.472a3.061 3.061 0 0 1-2.852 1.962z" class="cls-8" transform="translate(628.509 521.359)"/>
        <path id="Path_5344" d="M197.134 313.279a2.939 2.939 0 0 1-1.017-.182 3.075 3.075 0 0 1-1.871-3.888l37.534-106.588a3.045 3.045 0 0 1 5.741 2.035l-37.535 106.588a3.024 3.024 0 0 1-2.852 2.035z" class="cls-8" transform="translate(641.249 514.191)"/>
        <path id="Path_5345" d="M361.11 259.418a3.046 3.046 0 0 1-2.925-2.2 1.147 1.147 0 0 0-.073-.236 105.2 105.2 0 0 0-12.535-26.482c-11.464-17.114-25.6-25.6-42.057-25.216-17.55.4-31.811 8.9-42.384 25.253a86.658 86.658 0 0 0-10.7 24.417c-.127.527-.2.8-.2.818a3.039 3.039 0 0 1-5.922-1.363c.018-.091.109-.472.272-1.126 1.181-5 6.322-27.523 10.991-58.335a97.734 97.734 0 0 1 9.938-29.74 143.19 143.19 0 0 1 15.46-23.726 155.557 155.557 0 0 1 20.547-21.565 3.044 3.044 0 0 1 3.888.018 156.175 156.175 0 0 1 20.347 21.583 145.91 145.91 0 0 1 15.37 23.708 99.83 99.83 0 0 1 9.992 29.722 545.692 545.692 0 0 0 12.826 60.225c.055.218.109.345.109.4a3.034 3.034 0 0 1-2.107 3.743 3.3 3.3 0 0 1-.837.102zm-56.537-60.225a48.158 48.158 0 0 1 27.523 8.593 70.587 70.587 0 0 1 18.658 19.475 3.882 3.882 0 0 0 .236.345c-1.944-9.12-4.033-19.911-5.868-31.72-3.216-20.565-14.843-38.805-24.035-50.487a161.39 161.39 0 0 0-17.622-19.058A161.885 161.885 0 0 0 285.68 145.4c-9.247 11.663-20.947 29.9-24.054 50.469-1.762 11.627-3.579 22.073-5.25 30.866A64.671 64.671 0 0 1 274 208.423a53.727 53.727 0 0 1 29.413-9.211c.361-.018.761-.018 1.161-.018z" class="cls-4" transform="translate(682.218 447.73)"/>
        <g id="Group_6703" transform="translate(688.137 796.033)">
            <path id="Path_5346" d="M191.884 274.258s0-15.424-13.68-18.258a38.633 38.633 0 0 0-6.431-.872 12.286 12.286 0 0 1-8.484-3.96 14.7 14.7 0 0 0-12.227-4.56c-11.99.763-14.461 12.9-14.461 12.9s-11.845-2.126-16.914 3.252a21.384 21.384 0 0 0-5.378 12.463" class="cls-1" transform="translate(-112.037 -244.291)"/>
            <path id="Path_5347" d="M115.332 278.5h-.109a2.258 2.258 0 0 1-2.162-2.362 23.543 23.543 0 0 1 6-13.916c4.524-4.8 13.044-4.578 16.95-4.2a22.58 22.58 0 0 1 2.471-4.941 17.034 17.034 0 0 1 13.462-7.721c7.994-.509 12.681 3.343 15.188 6.649a4.781 4.781 0 0 0 4.015 1.853h.182a23.567 23.567 0 0 1 8.557.981 21.446 21.446 0 0 1 14.056 13.357 2.265 2.265 0 0 1-4.342 1.29 16.915 16.915 0 0 0-11.064-10.337 19.179 19.179 0 0 0-7.031-.781h-.2a9.307 9.307 0 0 1-7.812-3.633c-2.689-3.543-6.486-5.178-11.3-4.869-10.155.654-12.372 10.991-12.39 11.1a2.26 2.26 0 0 1-2.616 1.78c-2.961-.527-11.409-1.09-14.879 2.58a19.5 19.5 0 0 0-4.778 11.009 2.175 2.175 0 0 1-2.198 2.161z" class="cls-2" transform="translate(-113.059 -245.315)"/>
            <path id="Path_5348" d="M184.132 275.993s-.182-10.428-8.92-13.171a22.724 22.724 0 0 0-6.649-1.145 5.865 5.865 0 0 1-5.378-3.67c-1.69-4.178-5.686-9.937-14.734-9.937-6.268 0-9.756 6.2-10.864 8.975a4.644 4.644 0 0 1-4.615 2.925c-3.779-.254-9.629-.4-13.117 3.942a23.523 23.523 0 0 0-4.6 11.573" class="cls-12" transform="translate(-111.261 -243.065)"/>
        </g>
        <path id="Path_5349" d="M385.521 248.024c-12.644-4.233-25.67 7.885-25.67 7.885l.073 1.871a9.669 9.669 0 0 0-3.216-2.344 22.456 22.456 0 0 0-17.077 0s-6.776-11.536-16.914-10.464-13.789 10.61-14.734 15.224c0 0-10.791-3.27-17.023 2.053s-8.23 14.334-8.23 14.334l77.92-1.108.073 1.926 41.367-1.308c-.019.017 2.96-21.511-16.569-28.069z" class="cls-8" transform="translate(713.653 550.381)"/>
        <path id="Path_5350" d="M323.88 253.725s10.047 11.246 8.175 20.293l30.721-.745s2.453-12.772-5.069-20.638c-7.684-7.993-16.514-9.247-33.827 1.09z" class="cls-12" transform="translate(747.262 551.527)"/>
        <path id="Path_5351" d="M323.88 253.812s6.758 10.319 4.869 19.366l26.978-1.308s5-11.246-4.342-19.33c-4.56-3.924-10.192-9.065-27.505 1.272z" class="cls-3" transform="translate(747.262 552.693)"/>
        <path id="Path_5352" d="M373.159 278.951l-4.778-.781 2.38.4-2.38-.382a32.086 32.086 0 0 0-.709-11.409 23.923 23.923 0 0 0-14.425-16.932c-13.535-5.832-26.633 8.557-26.76 8.7l-3.6-3.234a42.827 42.827 0 0 1 9.613-7.613c7.848-4.524 15.678-5.323 22.655-2.307a28.9 28.9 0 0 1 17.259 20.4 35.964 35.964 0 0 1 .745 13.158z" class="cls-2" transform="translate(746.453 549.318)"/>
        <path id="Path_5353" d="M362.027 274.78s-.454-17.241-11.227-18.622-10.773 1.381-13.535 0-2.78-11.246-15.86-10.791-12.9 14.679-12.9 14.679a4.632 4.632 0 0 1-2.889.963c-1.453-.145-6.395-1.526-10.919-.963-4.506.563-8.1 4.36-10.919 13.462z" class="cls-12" transform="translate(714.511 550.748)"/>
        <path id="Path_5354" d="M360.212 266.21s.618-8.466-4.923-8.466-8.92 3.379-13.607 2.616-12.39-6.922-16.841-5.686a37 37 0 0 0-11.541 5.686c-3.234 2.307-2.325 2.471-6.558 2.471-4.215 0-6.885-3.851-11.246-3.688-4.36.145-10.628 4.615-11.645 7.067s76.361 0 76.361 0z" class="cls-3" transform="translate(714.563 558.229)"/>
        <path id="Path_5355" d="M366.146 280.542a2.28 2.28 0 0 1-2.271-2.253c-.036-4.578-1.49-17.041-7.576-19.711a20.134 20.134 0 0 0-15.206-.018 2.277 2.277 0 0 1-2.907-.908c-.055-.091-6.177-10.264-14.734-9.356-9.465 1-12.154 10.537-12.753 13.444a2.251 2.251 0 0 1-2.87 1.708c-.091-.036-9.7-2.834-14.9 1.617-5.6 4.778-7.467 13.008-7.485 13.1a2.27 2.27 0 1 1-4.433-.981c.091-.4 2.235-9.81 8.975-15.551 5.268-4.506 13.026-3.779 16.859-3.052 2.071-6.885 7.176-13.825 16.151-14.77 9.1-.963 15.606 6.558 18.058 9.974a24.488 24.488 0 0 1 17.1.672c4.324 1.889 7.376 6.577 9.047 13.9a51.121 51.121 0 0 1 1.235 9.919 2.272 2.272 0 0 1-2.253 2.289z" class="cls-2" transform="translate(712.208 549.418)"/>
        <g id="Group_6704" transform="translate(1225.2 805.238)">
            <path id="Path_5356" d="M408.68 251.123s31.32-6.468 41.476 18.8h-24.889z" class="cls-1" transform="translate(-408.68 -250.382)"/>
            <path id="Path_5357" d="M425.267 269.936l-16.587-18.8s31.32-6.468 41.476 18.8" class="cls-8" transform="translate(-408.68 -250.374)"/>
            <path id="Path_5358" d="M425.121 271.246l-16.441-20.638s30.158-3.833 40.913 20.6" class="cls-12" transform="translate(-408.68 -250.376)"/>
            <path id="Path_5359" d="M422.713 267.73l-10.283-12.9s18.839-2.4 25.58 12.881" class="cls-3" transform="translate(-405.617 -246.86)"/>
        </g>
        <path id="Path_5360" d="M451.83 274.846A43.532 43.532 0 0 0 441.256 261c-9.411-8.03-20.711-9.81-33.628-5.287l-1.6-4.56c18.331-6.413 31.066-.127 38.515 6.3a47.33 47.33 0 0 1 11.736 15.5z" class="cls-2" transform="translate(814.356 553.297)"/>
        <path id="Path_5361" d="M735.154 267.224H101.242a3.052 3.052 0 0 1 0-6.1h633.912a3.052 3.052 0 1 1 0 6.1z" class="cls-13" transform="translate(562.934 563.627)"/>
        <path id="Path_5362" d="M488.052 267.224h-26.07a3.052 3.052 0 0 1 0-6.1h26.07a3.052 3.052 0 0 1 0 6.1z" class="cls-13" transform="translate(857.562 563.627)"/>
        <path id="Path_5363" d="M339.445 203.113a3.036 3.036 0 0 1-2.4-1.163c-24.671-31.52-36.189-58.3-37.316-86.858a3.045 3.045 0 1 1 6.086-.236c1.072 27.2 12.19 52.9 36.026 83.352a3.038 3.038 0 0 1-.527 4.269 3.1 3.1 0 0 1-1.869.636z" class="cls-4" transform="translate(727.536 441.777)"/>
        <path id="Path_5364" d="M327.876 170.9a3.022 3.022 0 0 1-2.344-1.09c-.509-.6-1.017-1.217-1.508-1.817a3.045 3.045 0 0 1 4.687-3.888c.49.6.981 1.181 1.49 1.78a3.049 3.049 0 0 1-.382 4.288 2.908 2.908 0 0 1-1.943.727z" class="cls-4" transform="translate(746.809 483.492)"/>
        <path id="Path_5365" d="M490.127 342a3 3 0 0 1-2.2-.945c-21.6-22.546-41.349-43.311-58.771-61.642-23.617-24.835-44-46.308-63.749-66.638-12.535-12.917-25.743-26.706-37.352-40.059a3.051 3.051 0 1 1 4.6-4.015c11.518 13.244 24.653 26.96 37.134 39.8 19.766 20.347 40.168 41.821 63.8 66.674 17.422 18.331 37.152 39.1 58.753 61.624a3.043 3.043 0 0 1-.091 4.306 2.987 2.987 0 0 1-2.124.895z" class="cls-4" transform="translate(750.062 487.301)"/>
        <g id="Group_6705" transform="translate(957.214 475.008)">
            <path id="Path_5366" d="M289.48 71.9v8.248a2.855 2.855 0 0 0 3.052 2.979 2.81 2.81 0 0 0 3.052-2.671s.036-5.741 0-8.557c0-.109-3.052-3.288-3.052-3.288z" class="cls-13" transform="translate(-238.048 -68.61)"/>
            <circle id="Ellipse_18" cx="2.634" cy="2.634" r="2.634" class="cls-14" transform="translate(51.868 16.369)"/>
            <path id="Path_5367" d="M283.82 71.9v8.248a2.855 2.855 0 0 0 3.052 2.979 2.81 2.81 0 0 0 3.052-2.671s.036-5.741 0-8.557c0-.109-3.052-3.288-3.052-3.288z" class="cls-13" transform="translate(-242.671 -68.61)"/>
            <circle id="Ellipse_19" cx="2.634" cy="2.634" r="2.634" class="cls-14" transform="translate(41.585 16.369)"/>
            <path id="Path_5368" d="M278.15 71.9v8.248a2.855 2.855 0 0 0 3.052 2.979 2.81 2.81 0 0 0 3.052-2.671s.036-5.741 0-8.557c0-.109-3.052-3.288-3.052-3.288z" class="cls-13" transform="translate(-247.302 -68.61)"/>
            <circle id="Ellipse_20" cx="2.634" cy="2.634" r="2.634" class="cls-14" transform="translate(31.266 16.369)"/>
            <path id="Path_5369" d="M272.49 71.9v8.248a2.855 2.855 0 0 0 3.052 2.979 2.81 2.81 0 0 0 3.052-2.671s.036-5.741 0-8.557c0-.109-3.052-3.288-3.052-3.288z" class="cls-13" transform="translate(-251.924 -68.61)"/>
            <circle id="Ellipse_21" cx="2.634" cy="2.634" r="2.634" class="cls-14" transform="translate(20.984 16.369)"/>
            <path id="Path_5370" d="M266.83 71.9v8.248a2.855 2.855 0 0 0 3.052 2.979 2.811 2.811 0 0 0 3.052-2.671s.036-5.741 0-8.557c0-.109-3.052-3.288-3.052-3.288z" class="cls-13" transform="translate(-256.547 -68.61)"/>
            <circle id="Ellipse_22" cx="2.634" cy="2.634" r="2.634" class="cls-14" transform="translate(10.701 16.369)"/>
            <path id="Path_5371" d="M261.17 71.9v8.248a2.855 2.855 0 0 0 3.052 2.979 2.81 2.81 0 0 0 3.052-2.671s.036-5.741 0-8.557c0-.109-3.052-3.288-3.052-3.288z" class="cls-13" transform="translate(-261.17 -68.61)"/>
            <circle id="Ellipse_23" cx="2.634" cy="2.634" r="2.634" class="cls-14" transform="translate(.436 16.369)"/>
        </g>
        <path id="Path_5372" d="M103.277 266.884H81.712a3.052 3.052 0 1 1 0-6.1h21.565a3.052 3.052 0 1 1 0 6.1z" class="cls-13" transform="translate(546.983 563.348)"/>
        <circle id="Ellipse_24" cx="4.505" cy="4.505" r="4.505" class="cls-14" transform="translate(611 823.02)"/>
        <path id="Path_5373" d="M467.415 300.1a57.065 57.065 0 1 1 40.331-16.714 56.659 56.659 0 0 1-40.331 16.714zm0-107.986a50.941 50.941 0 1 0 50.941 50.941 51 51 0 0 0-50.941-50.941z" class="cls-4" transform="translate(817.9 502.281)"/>
        <g id="Group_6706" transform="translate(1073.107 384)">
            <path id="Path_5374" d="M342.117 74.231s55.392.4 57.227 0c6.359-1.381 16.932-9.32 9.229-24.308-3.488-6.776-10.156-7.7-14.607-7.467a5.509 5.509 0 0 1-5.577-3.87c-2.017-6.5-7.194-17.677-19.185-17.895-14.204-.253-19.294 9.666-20.747 17.95a5.477 5.477 0 0 1-4.833 4.469c-5.232.527-16.732 2.725-17.313 15.424-.745 15.08 15.806 15.697 15.806 15.697z" class="cls-1" transform="translate(-323.881 -16.743)"/>
            <path id="Path_5375" d="M381.865 24.7a16.834 16.834 0 0 0-11.282-4.451C356.376 20 351.289 29.917 349.836 38.2A5.477 5.477 0 0 1 345 42.671c-5.232.527-18.113 3.07-18.694 15.769-.709 15.079 17.223 15.351 17.223 15.351s-13.153-5.6-11.663-15.515c1.944-13.008 11.9-8.284 16.732-9.283a12.16 12.16 0 0 0 9.665-10.846c.363-4.106 1.29-8.539 3.506-10.61 6.361-6.013 20.096-2.837 20.096-2.837z" class="cls-15" transform="translate(-323.879 -17.103)"/>
            <path id="Path_5376" d="M384.838 78.33c-3.652 0-8.157 0-13.716-.036-13.916-.055-27.8-.145-27.941-.145h-.091a25.113 25.113 0 0 1-7.449-1.635c-5.378-2.071-9.029-5.741-10.537-10.61a3.045 3.045 0 0 1 5.814-1.817c2.271 7.3 11.736 7.939 12.372 7.975 21.274.145 53.648.291 56.609.036a12.946 12.946 0 0 0 8.393-6.686c1.726-3.67 1.29-8.121-1.344-13.208-2.144-4.16-6.086-6.122-11.736-5.814a8.551 8.551 0 0 1-8.666-6.013c-1.8-5.814-6.3-15.569-16.332-15.751h-.472c-11.972 0-15.987 8.375-17.223 15.442a8.506 8.506 0 0 1-7.539 6.958 25.308 25.308 0 0 0-5.98 1.255 3.051 3.051 0 0 1-2.017-5.759 31.288 31.288 0 0 1 7.376-1.562A2.412 2.412 0 0 0 346.5 39a27.164 27.164 0 0 1 6.358-13.734c4.269-4.614 10.137-6.885 17.441-6.74a20.2 20.2 0 0 1 15.624 7.685 36.338 36.338 0 0 1 6.431 12.372 2.48 2.48 0 0 0 2.507 1.726c8.03-.436 14.243 2.8 17.477 9.1 4.4 8.557 3.216 14.843 1.435 18.6a19.1 19.1 0 0 1-12.717 10.083c-.449.092-1.121.238-16.218.238zm14.952-6.213z" class="cls-4" transform="translate(-324.962 -18.516)"/>
        </g>
        <path id="Path_5377" d="M168.127 102.151s55.392.4 57.227 0c6.359-1.381 16.932-9.32 9.229-24.308-3.488-6.776-10.156-7.7-14.607-7.467a5.509 5.509 0 0 1-5.577-3.87C212.382 60 207.2 48.83 195.214 48.612c-14.207-.254-19.294 9.665-20.747 17.949a5.477 5.477 0 0 1-4.833 4.469c-5.232.527-16.732 2.725-17.313 15.424-.745 15.079 15.806 15.7 15.806 15.7" class="cls-1" transform="translate(607.124 390.061)"/>
        <path id="Path_5378" d="M207.255 52.623a16.834 16.834 0 0 0-11.282-4.451c-14.207-.254-19.294 9.665-20.747 17.949a5.477 5.477 0 0 1-4.833 4.469c-5.232.527-16.732 2.725-17.313 15.424-.709 15.079 15.842 15.7 15.842 15.7s-13.153-5.6-11.663-15.515c1.944-13.008 11.9-8.284 16.732-9.283a12.16 12.16 0 0 0 9.665-10.846c.363-4.106 1.29-8.539 3.506-10.61 6.358-6.016 20.093-2.837 20.093-2.837z" class="cls-15" transform="translate(607.746 389.701)"/>
        <path id="Path_5379" d="M211.254 106.242c-4.469 0-10.21-.018-17.6-.036a3.043 3.043 0 0 1 .018-6.086c26.6.109 31.647-.018 32.538-.091a12.946 12.946 0 0 0 8.393-6.686c1.726-3.67 1.29-8.121-1.344-13.208-2.144-4.16-6.086-6.122-11.736-5.814a8.551 8.551 0 0 1-8.666-6.013c-1.8-5.814-6.3-15.569-16.332-15.751-12.354-.218-16.441 8.266-17.695 15.442a8.506 8.506 0 0 1-7.539 6.958c-9.338.945-14.243 5.16-14.588 12.535a10.626 10.626 0 0 0 2.58 8.121c3.706 4.015 10.264 4.378 10.337 4.378a3.045 3.045 0 1 1-.236 6.086c-.363-.018-9.138-.4-14.588-6.34a16.689 16.689 0 0 1-4.185-12.537c.309-6.468 3.2-11.573 8.375-14.734a27.41 27.41 0 0 1 11.682-3.579 2.412 2.412 0 0 0 2.144-1.962 27.164 27.164 0 0 1 6.359-13.734c4.269-4.614 10.137-6.885 17.441-6.74a20.2 20.2 0 0 1 15.624 7.685 36.338 36.338 0 0 1 6.431 12.372 2.48 2.48 0 0 0 2.507 1.726c8.03-.436 14.243 2.8 17.477 9.1 4.4 8.557 3.2 14.843 1.435 18.6a19.1 19.1 0 0 1-12.717 10.083c-.455.083-1.109.225-16.115.225zm14.843-6.213z" class="cls-4" transform="translate(605.728 388.295)"/>
        <path id="Path_5380" d="M335.363 39.394h-22.491a3.052 3.052 0 0 1 0-6.1h22.491a3.052 3.052 0 1 1 0 6.1z" class="cls-14" transform="translate(735.778 377.551)"/>
        <path id="Path_5381" d="M332.613 44.794h-22.491a3.052 3.052 0 1 1 0-6.1h22.491a3.052 3.052 0 0 1 0 6.1z" class="cls-4" transform="translate(733.532 381.961)"/>
        <path id="Path_5382" d="M152.243 81.014h-22.491a3.052 3.052 0 0 1 0-6.1h22.491a3.052 3.052 0 0 1 0 6.1z" class="cls-14" transform="translate(586.219 411.543)"/>
        <path id="Path_5383" d="M412.623 116.764h-22.491a3.052 3.052 0 0 1 0-6.1h22.491a3.052 3.052 0 0 1 0 6.1z" class="cls-14" transform="translate(798.879 440.74)"/>
    </g>
</svg>
