<svg xmlns="http://www.w3.org/2000/svg" width="24" height="24" viewBox="0 0 24 24">
    <defs>
        <style>
            .prefix__cls-2{fill:#0cc}
        </style>
    </defs>
    <g id="prefix__icon-_become_host" data-name="icon- become host" transform="translate(7155 10456)">
        <path id="prefix__Rectangle_3906" fill="none" d="M0 0H24V24H0z" data-name="Rectangle 3906" transform="translate(-7155 -10456)"/>
        <g id="prefix__Group_8399" data-name="Group 8399" transform="translate(-7995.879 -11108.875)">
            <path id="prefix__Path_76899" d="M861.971 666.609l-6.236-6.234a1.114 1.114 0 0 0-1.578.016l-.395.411-1.558-1.469a4.74 4.74 0 0 0 .292-1.648 4.844 4.844 0 0 0-1.528-3.516 4.809 4.809 0 1 0-5.153 7.945v10h.994v-10.7l-.339-.114a3.815 3.815 0 1 1 4.926-2.731l-1.171-1.1a2.553 2.553 0 1 0-4.23 2.131 2.508 2.508 0 0 0 1.849.63 2.568 2.568 0 0 0 1.111-.335l.949.894a3.726 3.726 0 0 1-.936.493l-.33.118v1.85l1.119 1.632-1.272 1.978 1.711 1.711-1.732 1.733 1.23 1.641-.933.934v1.506l-.5.5.124-11.5-.994-.01-.125 11.536-.525-.526v-1.7h-.994v2.109l2 2 2-2v-1.505l.672-.674a.956.956 0 0 0 .088-1.239l-.735-.984 1.155-1.156a.949.949 0 0 0 0-1.34l-1.177-1.177.855-1.329a.949.949 0 0 0-.017-1.048l-.962-1.4v-.856a4.743 4.743 0 0 0 1.005-.6l1.3 1.222-.427.445a1.111 1.111 0 0 0 .016 1.551l6.183 6.18a1.091 1.091 0 0 0 .781.326 1.1 1.1 0 0 0 .784-.326l2.7-2.7a1.115 1.115 0 0 0 .003-1.575zm-15.84-8.929a1.558 1.558 0 0 1 1.556-1.552 1.545 1.545 0 0 1 1.261.65 1.316 1.316 0 0 0-.949.436 1.24 1.24 0 0 0-.1.115c-.023.03-.044.061-.064.092l-.018.037a1.3 1.3 0 0 0 .063 1.393c.022.03.046.061.08.1a1.2 1.2 0 0 0 .092.1l.12.113a1.7 1.7 0 0 1-.5.078 1.558 1.558 0 0 1-1.541-1.562zm2.6.209l.022-.023a.3.3 0 0 1 .213-.095h.045l.01-.005.061.017.055.026a.287.287 0 0 1 .047.037l3.891 3.671-.448.467-2.976-2.8-.913-.86a.285.285 0 0 1-.046-.055.332.332 0 0 1-.022-.04.311.311 0 0 1 .056-.34zm12.308 9.777l-2.486 2.485a.084.084 0 0 1-.119 0l-6.179-6.177a.088.088 0 0 1 0-.121l.433-.45.019.017 1.726-1.831.469-.488a.084.084 0 0 1 .119 0l6.233 6.232a.087.087 0 0 1 0 .119l-.215.214z" class="prefix__cls-2" data-name="Path 76899"/>
            <path id="prefix__Rectangle_3907" d="M0 0H0.934V0.934H0z" class="prefix__cls-2" data-name="Rectangle 3907" transform="translate(847.49 662.007)"/>
            <path id="prefix__Path_76900" d="M856.21 662.911l-.383-.4a.665.665 0 0 0-.94-.021l-1.282 1.227a.666.666 0 0 0-.022.94l.383.4a.666.666 0 0 0 .94.022l1.282-1.224a.664.664 0 0 0 .022-.944zm-1.612 1.841a.223.223 0 0 1-.314-.007l-.383-.4a.222.222 0 0 1 .008-.314l.48-.459.69.722zm1.282-1.224l-.481.459-.689-.722.481-.459a.223.223 0 0 1 .153-.061h.005a.224.224 0 0 1 .156.068l.383.4a.223.223 0 0 1-.008.315z" class="prefix__cls-2" data-name="Path 76900"/>
            <path id="prefix__Rectangle_3908" d="M0 0H0.797V2.714H0z" class="prefix__cls-2" data-name="Rectangle 3908" transform="rotate(-43.66 1261.85 -737.257)"/>
            <path id="prefix__Rectangle_3909" d="M0 0H0.797V1.892H0z" class="prefix__cls-2" data-name="Rectangle 3909" transform="rotate(-43.693 1261.008 -737.596)"/>
            <path id="prefix__Path_76901" d="M857.818 664.6l-.383-.4a.666.666 0 0 0-.94-.022l-1.283 1.224a.664.664 0 0 0-.022.94l.382.405a.664.664 0 0 0 .466.206h.016a.661.661 0 0 0 .458-.184l1.283-1.224a.666.666 0 0 0 .023-.945zm-1.614 1.84a.22.22 0 0 1-.313-.007l-.383-.405a.221.221 0 0 1 .007-.313l.481-.459.688.721zm1.283-1.228l-.481.459-.689-.721.481-.459a.22.22 0 0 1 .313.007l.383.405a.222.222 0 0 1-.007.308z" class="prefix__cls-2" data-name="Path 76901"/>
        </g>
    </g>
</svg>
