<svg xmlns="http://www.w3.org/2000/svg" width="24" height="24" viewBox="0 0 24 24">
    <g id="prefix__icon-_like" data-name="icon- like" transform="translate(23921 23883)">
        <g id="prefix__Group_7969" data-name="Group 7969" transform="translate(-23921 -23883)">
            <path id="prefix__Rectangle_3654" fill="none" d="M0 0H24V24H0z" data-name="Rectangle 3654"/>
        </g>
        <path id="prefix__Path_76781" fill="#0cc" stroke="#0cc" stroke-width="0.5px" d="M214.447 794.959a4.274 4.274 0 0 0-5.831.422l-.616.638-.615-.635a4.3 4.3 0 0 0-5.831-.425 4.484 4.484 0 0 0-.31 6.494l6.047 6.244a.984.984 0 0 0 .706.3.972.972 0 0 0 .707-.3l6.047-6.244a4.479 4.479 0 0 0-.304-6.494zm-.409 5.8L208.013 807l-6.05-6.244a3.48 3.48 0 0 1 .241-5.037 3.3 3.3 0 0 1 4.462.359l1.334 1.381 1.335-1.378a3.324 3.324 0 0 1 4.462-.359 3.482 3.482 0 0 1 .241 5.037z" data-name="Path 76781" transform="translate(-24117 -24672)"/>
    </g>
</svg>
