<svg xmlns="http://www.w3.org/2000/svg" width="812.001" height="510.372" viewBox="0 0 812.001 510.372">
    <defs>
        <style>
            .prefix__cls-2{fill:#fff}.prefix__cls-3{fill:#0cc}.prefix__cls-4{fill:#7ce0db}.prefix__cls-5{fill:#f9f8f7}.prefix__cls-10,.prefix__cls-6{fill:#339}.prefix__cls-6{opacity:.2;isolation:isolate}.prefix__cls-9{fill:#c39}.prefix__cls-12{fill:#d6d6eb}.prefix__cls-13{fill:#639}
        </style>
    </defs>
    <g id="prefix__pic" transform="translate(-554 -354.319)">
        <g id="prefix__pic-2" data-name="pic" transform="translate(554 354.319)">
            <path id="prefix__Path_76950" fill="#c6c6c6" d="M405.509 221.267c-190.786 0-345.449 154.663-345.449 345.449h690.9c-.002-190.786-154.665-345.449-345.451-345.449z" data-name="Path 76950" transform="translate(14.748 -66.845)"/>
            <path id="prefix__Path_76951" d="M361.077 277.309c-136.275 0-246.748 110.473-246.748 246.75h493.5c-.003-136.277-110.476-246.75-246.752-246.75z" class="prefix__cls-2" data-name="Path 76951" transform="translate(59.179 -20.962)"/>
            <g id="prefix__Group_8560" data-name="Group 8560" transform="translate(325.794 359.725)">
                <rect id="prefix__Rectangle_3942" width="21.825" height="90.936" class="prefix__cls-3" data-name="Rectangle 3942" rx="6" transform="translate(2.729 2.728)"/>
                <path id="prefix__Path_76952" d="M211.7 430.542a13.656 13.656 0 0 1-13.64-13.641V347.79a13.64 13.64 0 0 1 27.281 0v69.11a13.655 13.655 0 0 1-13.641 13.642zm0-90.936a8.194 8.194 0 0 0-8.184 8.184v69.11a8.184 8.184 0 1 0 16.369 0v-69.11a8.193 8.193 0 0 0-8.185-8.184z" class="prefix__cls-3" data-name="Path 76952" transform="translate(-198.061 -334.15)"/>
            </g>
            <g id="prefix__Group_8561" data-name="Group 8561" transform="translate(460.487 416.402)">
                <path id="prefix__Path_76953" d="M283.985 453.27a10.366 10.366 0 0 1-10.365-10.37v-65.722a10.365 10.365 0 0 1 10.365-10.365 10.365 10.365 0 0 1 10.367 10.365V442.9a10.367 10.367 0 0 1-10.367 10.37z" class="prefix__cls-3" data-name="Path 76953" transform="translate(-270.892 -364.085)"/>
                <path id="prefix__Path_76954" d="M285.213 457.226a13.11 13.11 0 0 1-13.093-13.095v-65.725a13.094 13.094 0 0 1 26.188 0v65.725a13.11 13.11 0 0 1-13.095 13.095zm0-86.457a7.645 7.645 0 0 0-7.637 7.637v65.725a7.638 7.638 0 1 0 15.275 0v-65.725a7.646 7.646 0 0 0-7.638-7.637z" class="prefix__cls-3" data-name="Path 76954" transform="translate(-272.12 -365.313)"/>
            </g>
            <g id="prefix__Group_8563" data-name="Group 8563" transform="translate(302.452 390.34)">
                <g id="prefix__Group_8562" data-name="Group 8562">
                    <path id="prefix__Path_76955" d="M220.982 387.646h-27.888a6.365 6.365 0 0 1-6.366-6.366v-22.431a6.366 6.366 0 0 1 12.731 0v16.067h21.523a6.366 6.366 0 1 1 0 12.731z" class="prefix__cls-3" data-name="Path 76955" transform="translate(-183.998 -349.755)"/>
                    <path id="prefix__Path_76956" d="M222.209 391.6h-27.888a9.105 9.105 0 0 1-9.094-9.094v-22.429a9.094 9.094 0 1 1 18.187 0v13.339h18.795a9.094 9.094 0 1 1 0 18.187zm-27.888-35.163a3.643 3.643 0 0 0-3.637 3.638v22.432a3.642 3.642 0 0 0 3.637 3.638h27.888a3.637 3.637 0 1 0 0-7.275h-24.251v-18.793a3.642 3.642 0 0 0-3.637-3.638z" class="prefix__cls-3" data-name="Path 76956" transform="translate(-185.227 -350.983)"/>
                </g>
            </g>
            <g id="prefix__Group_8565" data-name="Group 8565" transform="translate(334.888 373.358)">
                <g id="prefix__Group_8564" data-name="Group 8564">
                    <path id="prefix__Path_76957" d="M230.024 367.707h-19.1a6.366 6.366 0 0 1 0-12.731h12.731v-5.465a6.366 6.366 0 0 1 12.731 0v11.831a6.367 6.367 0 0 1-6.362 6.365z" class="prefix__cls-3" data-name="Path 76957" transform="translate(-201.832 -340.419)"/>
                    <path id="prefix__Path_76958" d="M231.251 371.662h-19.1a9.094 9.094 0 1 1 0-18.187h10v-2.735a9.094 9.094 0 0 1 18.187 0v11.829a9.1 9.1 0 0 1-9.087 9.093zm-19.1-12.731a3.637 3.637 0 1 0 0 7.275h19.1a3.641 3.641 0 0 0 3.637-3.637V350.74a3.637 3.637 0 0 0-7.275 0v8.192z" class="prefix__cls-3" data-name="Path 76958" transform="translate(-203.061 -341.646)"/>
                </g>
            </g>
            <g id="prefix__Group_8567" data-name="Group 8567" transform="translate(441.552 435.286)">
                <g id="prefix__Group_8566" data-name="Group 8566">
                    <path id="prefix__Path_76959" d="M267.741 394.687h13.6a4.533 4.533 0 1 0 0-9.066h-9.065v-3.892a4.533 4.533 0 0 0-9.066 0v8.424a4.533 4.533 0 0 0 4.531 4.534z" class="prefix__cls-3" data-name="Path 76959" transform="translate(-260.481 -374.468)"/>
                    <path id="prefix__Path_76960" d="M282.57 398.643h-13.6a7.269 7.269 0 0 1-7.26-7.262v-8.423a7.26 7.26 0 1 1 14.521 0v1.162h6.34a7.261 7.261 0 0 1 0 14.522zm-13.6-17.491a1.808 1.808 0 0 0-1.8 1.806v8.423a1.808 1.808 0 0 0 1.8 1.806h13.6a1.805 1.805 0 0 0 0-3.61h-11.8v-6.618a1.808 1.808 0 0 0-1.801-1.807z" class="prefix__cls-3" data-name="Path 76960" transform="translate(-261.709 -375.696)"/>
                </g>
            </g>
            <g id="prefix__Group_8568" data-name="Group 8568" transform="translate(330.381 364.499)">
                <path id="prefix__Path_76961" d="M201.492 418.361a.91.91 0 0 1-.909-.909v-72.958a7.728 7.728 0 0 1 7.719-7.719h2.892a.909.909 0 1 1 0 1.819H208.3a5.906 5.906 0 0 0-5.9 5.9v72.958a.91.91 0 0 1-.908.909z" class="prefix__cls-4" data-name="Path 76961" transform="translate(-200.583 -336.775)"/>
            </g>
            <g id="prefix__Group_8569" data-name="Group 8569" transform="translate(464.959 421.407)">
                <path id="prefix__Path_76962" d="M275.488 447.285a.91.91 0 0 1-.909-.909v-69.168a9.152 9.152 0 0 1 9.141-9.143.909.909 0 0 1 0 1.819 7.333 7.333 0 0 0-7.322 7.324v69.168a.91.91 0 0 1-.91.909z" class="prefix__cls-4" data-name="Path 76962" transform="translate(-274.579 -368.065)"/>
            </g>
            <g id="prefix__Group_8570" data-name="Group 8570" transform="translate(306.244 394.448)">
                <path id="prefix__Path_76963" d="M188.221 374.9a.909.909 0 0 1-.909-.909v-16.349a4.4 4.4 0 0 1 4.4-4.4.909.909 0 1 1 0 1.819 2.585 2.585 0 0 0-2.581 2.581v16.348a.907.907 0 0 1-.91.91z" class="prefix__cls-4" data-name="Path 76963" transform="translate(-187.312 -353.242)"/>
            </g>
            <g id="prefix__Group_8571" data-name="Group 8571" transform="translate(357.885 377.8)">
                <path id="prefix__Path_76964" d="M216.615 354.318a.91.91 0 0 1-.909-.909v-4.922a4.4 4.4 0 0 1 4.4-4.4.909.909 0 1 1 0 1.819 2.585 2.585 0 0 0-2.581 2.581v4.922a.91.91 0 0 1-.91.909z" class="prefix__cls-4" data-name="Path 76964" transform="translate(-215.706 -344.088)"/>
            </g>
            <g id="prefix__Group_8572" data-name="Group 8572" transform="translate(445.039 439.038)">
                <path id="prefix__Path_76965" d="M264.535 389.488a.91.91 0 0 1-.909-.909v-7.219a3.606 3.606 0 0 1 3.6-3.6.909.909 0 0 1 0 1.819 1.783 1.783 0 0 0-1.782 1.782v7.219a.91.91 0 0 1-.909.908z" class="prefix__cls-4" data-name="Path 76965" transform="translate(-263.626 -377.759)"/>
            </g>
            <g id="prefix__Group_8578" data-name="Group 8578" transform="translate(72.08 154.92)">
                <g id="prefix__Group_8573" data-name="Group 8573">
                    <path id="prefix__Path_76966" d="M754.914 572.444H58.56v-2.728c0-191.985 156.19-348.175 348.177-348.175s348.177 156.19 348.177 348.175zm-690.887-5.456h685.42C747.974 379.265 594.8 227 406.737 227S65.5 379.265 64.027 566.988z" class="prefix__cls-5" data-name="Path 76966" transform="translate(-58.56 -221.541)"/>
                </g>
                <g id="prefix__Group_8574" data-name="Group 8574" transform="translate(24.675 24.675)">
                    <path id="prefix__Path_76967" d="M719.132 561.337h-647v-2.728c0-178.379 145.123-323.5 323.5-323.5s323.5 145.122 323.5 323.5zM77.6 555.88h636.065c-1.47-174.119-143.574-315.316-318.035-315.316S79.065 381.761 77.6 555.88z" class="prefix__cls-5" data-name="Path 76967" transform="translate(-72.127 -235.108)"/>
                </g>
                <g id="prefix__Group_8575" data-name="Group 8575" transform="translate(49.349 49.349)">
                    <path id="prefix__Path_76968" d="M683.349 550.229H85.694V547.5c0-164.773 134.053-298.826 298.828-298.826S683.349 382.728 683.349 547.5zm-592.186-5.456H677.88c-1.468-160.515-132.5-290.64-293.359-290.64S92.629 384.257 91.163 544.773z" class="prefix__cls-5" data-name="Path 76968" transform="translate(-85.694 -248.675)"/>
                </g>
                <g id="prefix__Group_8576" data-name="Group 8576" transform="translate(74.026 74.024)">
                    <path id="prefix__Path_76969" d="M647.564 539.121H99.262v-2.728c0-151.167 122.984-274.151 274.151-274.151s274.151 122.984 274.151 274.151zm-542.833-5.456h537.363C640.622 386.761 520.659 267.7 373.413 267.7S106.206 386.761 104.731 533.665z" class="prefix__cls-5" data-name="Path 76969" transform="translate(-99.262 -262.242)"/>
                </g>
                <g id="prefix__Group_8577" data-name="Group 8577" transform="translate(98.7 98.7)">
                    <path id="prefix__Path_76970" d="M611.782 528.013H112.829v-2.728c0-137.561 111.913-249.475 249.477-249.475s249.476 111.913 249.476 249.475zM118.3 522.557h488.011c-1.471-133.3-110.366-241.29-244.006-241.29S119.769 389.258 118.3 522.557z" class="prefix__cls-5" data-name="Path 76970" transform="translate(-112.829 -275.81)"/>
                </g>
            </g>
            <path id="prefix__Path_76971" d="M210.866 451.858l6.169-18.506-6.169-18.506 6.169-18.506-18.506-18.506-24.675-12.334-18.506 12.338-12.337-6.169-12.338 30.844 6.169 12.338-12.342 12.332 12.337 12.337 12.338 12.338z" class="prefix__cls-6" data-name="Path 76971" transform="translate(67.51 51.239)"/>
            <path id="prefix__Path_76972" d="M149.179 451.858h18.506l-6.169-12.338 12.338-12.337v-12.337l12.337-6.169 6.169-12.338-12.337-6.169 18.506-12.337-24.675-12.333-18.506 12.338-12.337-6.169-12.338 30.844 6.169 12.338-12.342 12.332z" class="prefix__cls-2" data-name="Path 76972" transform="translate(67.51 51.239)"/>
            <path id="prefix__Path_76973" d="M265.75 443.527l6.169-24.675-12.337-30.844-43.182-12.337-18.506 12.337 6.169 18.506-18.506 12.337 6.169 24.675z" class="prefix__cls-6" data-name="Path 76973" transform="translate(117.495 59.57)"/>
            <path id="prefix__Path_76974" d="M191.725 443.527h30.844l-6.169-18.506 6.169-6.169 12.338-6.169-6.169-12.337 11.5-17.863-23.838-6.812-18.506 12.337 6.169 18.506-18.506 12.337z" class="prefix__cls-2" data-name="Path 76974" transform="translate(117.495 59.57)"/>
            <path id="prefix__Path_76975" d="M295.64 465.743l-18.506-49.35 18.506-18.506 55.519-18.506 12.341-24.675 61.687-6.169 18.506 43.181-12.338 30.843 6.169 18.506-12.337 24.675z" class="prefix__cls-6" data-name="Path 76975" transform="translate(192.472 37.354)"/>
            <path id="prefix__Path_76976" d="M277.134 405.285l18.506 49.35 18.506-30.844 18.506-6.168 12.338 12.337 43.181-43.181-12.337-24.679-24.675 6.169-55.519 18.51z" class="prefix__cls-2" data-name="Path 76976" transform="translate(192.472 48.462)"/>
            <path id="prefix__Path_76977" d="M317.836 379.38l37.012-6.169 37.012-24.675-61.687 6.169z" class="prefix__cls-2" data-name="Path 76977" transform="translate(225.796 37.354)"/>
            <path id="prefix__Rectangle_3943" d="M0 0H24.675V246.749H0z" class="prefix__cls-2" data-name="Rectangle 3943" transform="translate(407.919 256.348)"/>
            <path id="prefix__Rectangle_3944" fill="#c8c7c6" d="M0 0H12.337V246.749H0z" data-name="Rectangle 3944" transform="translate(420.257 256.348)"/>
            <path id="prefix__Path_76978" d="M335.314 168.772h-81.766l-57.817 57.817v81.766l57.817 57.817h81.766l57.817-57.817v-81.766z" class="prefix__cls-2" data-name="Path 76978" transform="translate(125.826 -109.824)"/>
            <path id="prefix__Path_76979" fill="#f69" d="M253.106 348.28l-50.591-50.589v-71.546l50.591-50.589h71.543l50.591 50.589v71.546l-50.591 50.589z" data-name="Path 76979" transform="translate(131.38 -104.27)"/>
            <g id="prefix__Group_8579" data-name="Group 8579" transform="translate(316.1 53.494)">
                <path id="prefix__Path_76980" d="M337.769 374.084H256a5.463 5.463 0 0 1-3.858-1.6l-57.812-57.816a5.463 5.463 0 0 1-1.6-3.858v-81.765a5.457 5.457 0 0 1 1.6-3.858l57.817-57.817a5.454 5.454 0 0 1 3.858-1.6h81.764a5.455 5.455 0 0 1 3.859 1.6l57.817 57.817a5.457 5.457 0 0 1 1.6 3.858v81.766a5.463 5.463 0 0 1-1.6 3.858l-57.817 57.817a5.464 5.464 0 0 1-3.859 1.598zm-79.5-10.912h77.241l54.622-54.622v-77.245l-54.622-54.62h-77.245l-54.622 54.62v77.245z" class="prefix__cls-9" data-name="Path 76980" transform="translate(-192.731 -165.773)"/>
            </g>
            <g id="prefix__Group_8580" data-name="Group 8580" transform="translate(69.352 499.46)">
                <path id="prefix__Path_76981" d="M753.414 421.893H62.516a5.456 5.456 0 1 1 0-10.912h690.9a5.456 5.456 0 1 1 0 10.912z" class="prefix__cls-3" data-name="Path 76981" transform="translate(-57.06 -410.981)"/>
            </g>
            <g id="prefix__Group_8581" data-name="Group 8581" transform="translate(402.464 250.893)">
                <path id="prefix__Path_76982" d="M270.346 531.969h-24.673a5.455 5.455 0 0 1-5.456-5.456V279.766a5.455 5.455 0 0 1 5.456-5.456h24.673a5.455 5.455 0 0 1 5.456 5.456v246.747a5.455 5.455 0 0 1-5.456 5.456zm-19.217-10.912h13.76V285.222h-13.76z" class="prefix__cls-9" data-name="Path 76982" transform="translate(-240.217 -274.31)"/>
            </g>
            <g id="prefix__Group_8582" data-name="Group 8582" transform="translate(464.15 380.437)">
                <path id="prefix__Path_76983" d="M427.64 473.653H298.1a5.452 5.452 0 0 1-5.109-3.539l-18.507-49.349a5.455 5.455 0 0 1 1.251-5.773l18.506-18.507a5.467 5.467 0 0 1 2.133-1.318l53.374-17.791 11.325-22.654a5.464 5.464 0 0 1 4.338-2.99l61.688-6.167a5.456 5.456 0 0 1 5.56 3.279l18.507 43.182a5.455 5.455 0 0 1 .049 4.176l-11.6 28.987 5.536 16.61a5.458 5.458 0 0 1-.295 4.165l-12.336 24.675a5.456 5.456 0 0 1-4.88 3.014zM301.879 462.74h122.389l9.817-19.637-5.453-16.363a5.441 5.441 0 0 1 .111-3.75l11.5-28.745L424.2 356.82l-54.715 5.471-10.985 21.986a5.451 5.451 0 0 1-3.155 2.735l-54.3 18.1-15.112 15.112z" class="prefix__cls-10" data-name="Path 76983" transform="translate(-274.134 -345.538)"/>
            </g>
            <g id="prefix__Group_8583" data-name="Group 8583" transform="translate(297.594 429.784)">
                <path id="prefix__Path_76984" d="M268.206 451.438h-74.024a5.453 5.453 0 0 1-5.292-4.132l-6.171-24.675a5.458 5.458 0 0 1 2.268-5.863l15.039-10.027-4.851-14.552a5.454 5.454 0 0 1 2.15-6.264l18.506-12.338a5.457 5.457 0 0 1 4.525-.707l43.182 12.338a5.455 5.455 0 0 1 3.566 3.221l12.336 30.842a5.459 5.459 0 0 1 .227 3.35l-6.167 24.675a5.455 5.455 0 0 1-5.294 4.132zm-69.765-10.912h65.505l4.707-18.829-10.687-26.721-38.184-10.91-12.938 8.628 4.851 14.553a5.453 5.453 0 0 1-2.15 6.264l-15.308 10.2z" class="prefix__cls-10" data-name="Path 76984" transform="translate(-182.555 -372.671)"/>
            </g>
            <g id="prefix__Group_8594" data-name="Group 8594" transform="translate(116.53 411.279)">
                <g id="prefix__Group_8584" data-name="Group 8584" transform="translate(70.028)">
                    <path id="prefix__Path_76985" fill="#339" stroke="#707070" stroke-linejoin="round" d="M213.322 459.769h-61.687a5.461 5.461 0 0 1-3.858-1.6L123.1 433.5a5.456 5.456 0 0 1 0-7.715l9.556-9.557-4.409-8.817a5.465 5.465 0 0 1-.187-4.469l12.34-30.849a5.459 5.459 0 0 1 7.506-2.854l9.5 4.752 15.874-10.579a5.453 5.453 0 0 1 5.465-.34l24.675 12.336a5.424 5.424 0 0 1 1.417 1.022l18.507 18.507a5.454 5.454 0 0 1 1.319 5.582l-5.59 16.781 5.594 16.781a5.436 5.436 0 0 1 0 3.45l-6.167 18.507a5.456 5.456 0 0 1-5.178 3.731zM153.9 448.856h55.49l4.35-13.048-5.593-16.783a5.405 5.405 0 0 1 0-3.448l5.1-15.306-15.5-15.5-21.047-10.522-15.87 10.579a5.461 5.461 0 0 1-5.467.342l-7.033-3.518-9.225 23.063 5.072 10.145a5.458 5.458 0 0 1-1.022 6.3l-8.479 8.479z" data-name="Path 76985" transform="translate(-121.504 -362.496)"/>
                </g>
                <g id="prefix__Group_8585" data-name="Group 8585" transform="translate(0 82.123)">
                    <path id="prefix__Path_76986" d="M115.3 418.562H88.456a5.456 5.456 0 1 1 0-10.912H115.3a5.456 5.456 0 1 1 0 10.912z" class="prefix__cls-10" data-name="Path 76986" transform="translate(-83 -407.65)"/>
                </g>
                <g id="prefix__Group_8586" data-name="Group 8586" transform="translate(56.077 80.606)">
                    <path id="prefix__Path_76987" d="M126.293 417.728h-7a5.456 5.456 0 1 1 0-10.912h7a5.456 5.456 0 1 1 0 10.912z" class="prefix__cls-10" data-name="Path 76987" transform="translate(-113.833 -406.816)"/>
                </g>
                <g id="prefix__Group_8587" data-name="Group 8587" transform="translate(186.174 82.123)">
                    <path id="prefix__Path_76988" d="M213.055 418.562h-22.234a5.456 5.456 0 1 1 0-10.912h22.234a5.456 5.456 0 1 1 0 10.912z" class="prefix__cls-10" data-name="Path 76988" transform="translate(-185.365 -407.65)"/>
                </g>
                <g id="prefix__Group_8588" data-name="Group 8588" transform="translate(269.475 78.485)">
                    <path id="prefix__Path_76989" d="M257.84 416.562h-21.217a5.456 5.456 0 1 1 0-10.912h21.217a5.456 5.456 0 1 1 0 10.912z" class="prefix__cls-10" data-name="Path 76989" transform="translate(-231.167 -405.65)"/>
                </g>
                <g id="prefix__Group_8589" data-name="Group 8589" transform="translate(335.251 78.485)">
                    <path id="prefix__Path_76990" d="M289.132 416.562h-16.343a5.456 5.456 0 1 1 0-10.912h16.343a5.456 5.456 0 0 1 0 10.912z" class="prefix__cls-10" data-name="Path 76990" transform="translate(-267.333 -405.65)"/>
                </g>
                <g id="prefix__Group_8590" data-name="Group 8590" transform="translate(488.632 82.123)">
                    <path id="prefix__Path_76991" d="M392.285 418.562h-35.162a5.456 5.456 0 1 1 0-10.912h35.161a5.456 5.456 0 0 1 0 10.912z" class="prefix__cls-10" data-name="Path 76991" transform="translate(-351.667 -407.65)"/>
                </g>
                <g id="prefix__Group_8591" data-name="Group 8591" transform="translate(436.494 78.485)">
                    <path id="prefix__Path_76992" d="M342.4 416.562h-13.944a5.456 5.456 0 1 1 0-10.912H342.4a5.456 5.456 0 1 1 0 10.912z" class="prefix__cls-10" data-name="Path 76992" transform="translate(-323 -405.65)"/>
                </g>
                <g id="prefix__Group_8592" data-name="Group 8592" transform="translate(542.586 80.606)">
                    <path id="prefix__Path_76993" d="M394.973 417.728h-8.184a5.456 5.456 0 1 1 0-10.912h8.184a5.456 5.456 0 0 1 0 10.912z" class="prefix__cls-10" data-name="Path 76993" transform="translate(-381.333 -406.816)"/>
                </g>
                <g id="prefix__Group_8593" data-name="Group 8593" transform="translate(575.143 82.123)">
                    <path id="prefix__Path_76994" d="M445.792 418.562h-41.1a5.456 5.456 0 0 1 0-10.912h41.1a5.456 5.456 0 1 1 0 10.912z" class="prefix__cls-10" data-name="Path 76994" transform="translate(-399.234 -407.65)"/>
                </g>
            </g>
            <g id="prefix__Group_6706" data-name="Group 6706" transform="translate(605.161 190.722)">
                <path id="prefix__Path_5374" d="M513.68 368.675s-126.72.909-130.919 0c-14.55-3.159-38.739-21.321-21.113-55.609 7.979-15.5 23.234-17.616 33.417-17.081a12.6 12.6 0 0 0 12.758-8.854c4.614-14.87 16.458-40.439 43.89-40.938 32.5-.578 44.139 22.112 47.469 41.065a12.535 12.535 0 0 0 11.056 10.223c11.969 1.206 38.279 6.235 39.606 35.283 1.7 34.5-36.164 35.911-36.164 35.911z" class="prefix__cls-2" data-name="Path 5374" transform="translate(-348.557 -237.168)"/>
                <path id="prefix__Path_5375" d="M392.457 255.368a38.505 38.505 0 0 1 25.809-10.185c32.5-.569 44.139 22.117 47.469 41.067a12.533 12.533 0 0 0 11.06 10.23c11.969 1.206 41.438 7.024 42.766 36.074 1.622 34.5-39.4 35.118-39.4 35.118s30.091-12.811 26.681-35.494c-4.447-29.758-27.224-18.951-38.279-21.237a27.829 27.829 0 0 1-22.11-24.813c-.831-9.394-2.952-19.535-8.021-24.273-14.562-13.755-45.975-6.487-45.975-6.487z" class="prefix__cls-12" data-name="Path 5375" transform="translate(-318.271 -237.995)"/>
                <path id="prefix__Path_5376" d="M421.528 378.056c8.355 0 18.66 0 31.378-.082 31.828-.125 63.6-.331 63.921-.331h.208a57.445 57.445 0 0 0 17.041-3.741c12.3-4.729 20.655-13.133 24.105-24.273a6.967 6.967 0 1 0-13.289-4.192l-.011.035c-5.2 16.7-26.848 18.162-28.3 18.244-48.669.331-122.731.666-129.5.082a29.621 29.621 0 0 1-19.2-15.3c-3.948-8.4-2.952-18.578 3.075-30.216 4.91-9.517 13.922-14 26.848-13.3a19.562 19.562 0 0 0 19.824-13.757c4.118-13.3 14.413-35.618 37.362-36.034h1.08c27.388 0 36.573 19.16 39.4 35.327a19.461 19.461 0 0 0 17.247 15.918 57.936 57.936 0 0 1 13.68 2.872 6.98 6.98 0 0 0 4.614-13.175 71.476 71.476 0 0 0-16.874-3.574 5.519 5.519 0 0 1-4.9-4.483 62.113 62.113 0 0 0-14.55-31.418c-9.766-10.549-23.191-15.75-39.9-15.419a46.216 46.216 0 0 0-35.743 17.582 83.172 83.172 0 0 0-14.712 28.3 5.673 5.673 0 0 1-5.734 3.948c-18.369-1-32.584 6.406-39.983 20.819-10.067 19.577-7.357 33.956-3.283 42.558a43.705 43.705 0 0 0 29.1 23.067c1.022.205 2.559.543 37.096.543z" class="prefix__cls-13" data-name="Path 5376" transform="translate(-351.667 -241.226)"/>
            </g>
            <g id="prefix__Group_6706-2" data-name="Group 6706" transform="translate(475.111)">
                <path id="prefix__Path_5374-2" d="M393.289 225.353s-88.483.635-91.416 0c-10.159-2.206-27.05-14.888-14.743-38.83 5.571-10.825 16.223-12.3 23.334-11.927a8.8 8.8 0 0 0 8.908-6.182c3.223-10.383 11.493-28.238 30.647-28.585 22.689-.406 30.82 15.439 33.145 28.672a8.749 8.749 0 0 0 7.72 7.139c8.357.842 26.728 4.354 27.656 24.636 1.187 24.091-25.251 25.077-25.251 25.077z" class="prefix__cls-2" data-name="Path 5374" transform="translate(-277.99 -133.526)"/>
                <path id="prefix__Path_5375-2" d="M308.643 146.236a26.886 26.886 0 0 1 18.022-7.113c22.694-.4 30.82 15.445 33.144 28.676a8.753 8.753 0 0 0 7.722 7.144c8.357.842 28.934 4.9 29.862 25.188 1.133 24.087-27.512 24.522-27.512 24.522s21.012-8.945 18.629-24.784c-3.1-20.779-19.009-13.233-26.728-14.83a19.427 19.427 0 0 1-15.437-17.325c-.582-6.558-2.062-13.64-5.6-16.949-10.168-9.603-32.102-4.529-32.102-4.529z" class="prefix__cls-12" data-name="Path 5375" transform="translate(-256.841 -134.104)"/>
                <path id="prefix__Path_5376-2" d="M328.941 231.9c5.835 0 13.029 0 21.91-.056 22.225-.087 44.41-.231 44.633-.231h.145a40.18 40.18 0 0 0 11.9-2.612c8.592-3.3 14.424-9.172 16.832-16.949a4.865 4.865 0 0 0-9.279-2.928l-.007.024c-3.628 11.662-18.747 12.682-19.762 12.74-33.985.231-85.7.464-90.427.056a20.683 20.683 0 0 1-13.408-10.68c-2.757-5.862-2.061-12.973 2.148-21.1 3.428-6.646 9.721-9.779 18.746-9.286a13.662 13.662 0 0 0 13.842-9.607c2.875-9.286 10.065-24.871 26.09-25.162h.753c19.124 0 25.539 13.378 27.512 24.667a13.59 13.59 0 0 0 12.042 11.124 40.426 40.426 0 0 1 9.552 2.006 4.874 4.874 0 0 0 3.223-9.2 49.913 49.913 0 0 0-11.783-2.5 3.856 3.856 0 0 1-3.419-3.13 43.384 43.384 0 0 0-10.159-21.939c-6.82-7.366-16.194-11-27.859-10.767a32.27 32.27 0 0 0-24.958 12.276 58.019 58.019 0 0 0-10.272 19.764 3.965 3.965 0 0 1-4 2.757c-12.826-.7-22.752 4.472-27.919 14.537-7.028 13.67-5.136 23.709-2.292 29.716a30.518 30.518 0 0 0 20.319 16.107c.708.139 1.781.373 25.897.373z" class="prefix__cls-13" data-name="Path 5376" transform="translate(-280.161 -136.36)"/>
            </g>
            <g id="prefix__Group_7317" data-name="Group 7317" transform="translate(0 220.013)">
                <g id="prefix__Group_6706-2-2" data-name="Group 6706-2" transform="translate(60.726)">
                    <path id="prefix__Path_5374-2-2" d="M84.245 360.126s103.114.733 106.532 0c11.84-2.548 31.522-17.2 17.182-44.852-6.493-12.5-18.907-14.208-27.194-13.777a10.248 10.248 0 0 1-10.381-7.142c-3.756-11.993-13.393-32.615-35.714-33.017-26.442-.467-35.916 17.836-38.626 33.121a10.163 10.163 0 0 1-9 8.246c-9.739.971-31.149 5.027-32.23 28.458-1.38 27.824 29.431 28.963 29.431 28.963z" class="prefix__cls-2" data-name="Path 5374-2" transform="translate(-50.308 -254.058)"/>
                    <path id="prefix__Path_5375-2-2" d="M158.241 268.738a31.505 31.505 0 0 0-21-8.215c-26.446-.458-35.916 17.84-38.626 33.123a10.158 10.158 0 0 1-9 8.25c-9.739.973-33.719 5.665-34.8 29.1-1.32 27.823 32.062 28.325 32.062 28.325s-24.486-10.334-21.712-28.629c3.619-24 22.154-15.285 31.149-17.129a22.511 22.511 0 0 0 17.986-20.018c.677-7.577 2.4-15.756 6.527-19.577 11.845-11.09 37.414-5.23 37.414-5.23z" class="prefix__cls-12" data-name="Path 5375-2" transform="translate(-50.308 -254.725)"/>
                    <path id="prefix__Path_5376-2-2" d="M163.77 367.691c-6.8 0-15.185 0-25.533-.067-25.9-.1-51.752-.266-52.016-.266h-.167a47.134 47.134 0 0 1-13.868-3.017c-10.012-3.821-16.807-10.594-19.615-19.579a5.611 5.611 0 0 1 3.743-7.027 5.679 5.679 0 0 1 7.08 3.676c4.229 13.468 21.847 14.648 23.031 14.713 39.6.267 99.87.537 105.381.066a24.053 24.053 0 0 0 15.625-12.337c3.212-6.771 2.4-14.984-2.5-24.371-4-7.675-11.329-11.294-21.847-10.727a15.908 15.908 0 0 1-16.132-11.1c-3.35-10.727-11.729-28.727-30.4-29.063h-.878c-22.287 0-29.76 15.454-32.061 28.494a15.785 15.785 0 0 1-14.035 12.838 47.57 47.57 0 0 0-11.132 2.315 5.689 5.689 0 0 1-7.193-3.543 5.618 5.618 0 0 1 3.439-7.084 58.817 58.817 0 0 1 13.73-2.881 4.473 4.473 0 0 0 3.978-3.611 49.927 49.927 0 0 1 11.84-25.342c7.946-8.508 18.869-12.7 32.466-12.435a37.723 37.723 0 0 1 29.085 14.179 66.884 66.884 0 0 1 11.973 22.829 4.612 4.612 0 0 0 4.665 3.185c14.948-.8 26.515 5.167 32.535 16.79 8.192 15.79 5.987 27.388 2.664 34.327a35.494 35.494 0 0 1-23.68 18.6c-.824.167-2.073.438-30.178.438z" class="prefix__cls-13" data-name="Path 5376-2" transform="translate(-52.317 -257.331)"/>
                </g>
                <path id="prefix__Path_5380" d="M71.61 295.82H29.745a5.63 5.63 0 0 1 0-11.256H71.61a5.632 5.632 0 1 1 .411 11.256c-.136.005-.271.005-.411 0z" class="prefix__cls-9" data-name="Path 5380" transform="translate(-14.557 -235.039)"/>
                <path id="prefix__Path_5381" d="M66.682 306.613H24.815a5.632 5.632 0 1 1-.411-11.256h42.28a5.63 5.63 0 0 1 0 11.256z" class="prefix__cls-13" data-name="Path 5381" transform="translate(-18.928 -226.199)"/>
            </g>
        </g>
        <text id="prefix__ایست" fill="#fff" font-family="IRANSans-Medium, IRANSans" font-size="55px" font-weight="500" transform="translate(974 526)">
            <tspan x="-66.251" y="0">ایست</tspan>
        </text>
    </g>
</svg>
