<svg xmlns="http://www.w3.org/2000/svg" width="495.235" height="416.237" viewBox="0 0 495.235 416.237">
    <defs>
        <style>
            .cls-1{fill:#c39}.cls-2{fill:#c6c6c6}.cls-3{fill:#fff}.cls-4{fill:#d4ecff}.cls-6{fill:#639}.cls-7{stroke:#639;fill:none;stroke-linecap:round;stroke-width:5px;stroke-linejoin:round}.cls-10{fill:#0cc}.cls-13{fill:#7ce0db}
        </style>
    </defs>
    <g id="axe-rule" transform="translate(-421 -432)">
        <path id="Path_5382" d="M152.243 81.014h-22.491a3.052 3.052 0 0 1 0-6.1h22.491a3.052 3.052 0 0 1 0 6.1z" class="cls-1" transform="translate(658.705 391.543)"/>
        <g id="Group_6767" transform="translate(94.436 -193)">
            <g id="Group_6766" transform="translate(-12.766 -454)">
                <g id="Group_6747" transform="translate(2011.945 875.988)">
                    <path id="Path_5420" d="M-1617.5 545.644l135.176-78.083-152.38 7.179-9.465 9.054-2.058 13.58 1.509 9.228 4.527 11.211 4.527 8.779 5.075 6.584z" class="cls-2"/>
                    <g id="Group_6737">
                        <path id="Path_5421" d="M-1356.034 598.666c0-19.113-13.466-42.436-30.018-51.992v3.292c14.98 8.649 27.167 29.757 27.167 47.053s-12.187 24.332-27.167 15.684l-229.516-132.512c-8.273-4.776-15.775-5.223-21.21-2.089l134.826-77.862q.345-.211.7-.4l.043-.025c5.4-2.891 12.736-2.364 20.81 2.3l184.646 106.605a12.994 12.994 0 0 0-2.124 2.066l-7-4.041-37.365 81.2-15.454 21.1a30.348 30.348 0 0 0 1.662-10.379z" class="cls-3"/>
                        <path id="Path_5422" d="M-1636.812 478.123l.024-.013z" class="cls-4"/>
                    </g>
                    <g id="Group_6738">
                        <path id="Path_5423" d="M-1617.492 474.684l229.517 132.516c14.626 8.444 26.583 1.93 27.14-14.483 0 .207.026.419.026.625 0 17.3-12.187 24.332-27.166 15.684l-229.517-132.516c-8.272-4.777-15.774-5.223-21.209-2.089.001 0 15.877-2.816 21.209.263z" class="cls-3"/>
                    </g>
                    <path id="Path_5424" d="M-1587.147 588.891l.024-.014z" class="cls-4"/>
                    <path id="Path_5425" d="M-1254.435 466.925c16.552 9.556 30.017 32.878 30.017 51.991 0 9.227-3.145 15.8-8.255 19.068l-.006.009-.082.048q-.454.285-.93.537l-134.683 77.822 8.246-14.9-.96-14.883-2.607-8.368-3.978-8.917s-3.292-6.1-3.5-6.241-4.869-6.173-4.869-6.173l-4.535-4.733-4.931-3.154-4.1-4.021z" class="cls-2"/>
                    <g id="Group_6739">
                        <path id="Path_5426" fill="#639" stroke="#639" stroke-miterlimit="10" stroke-width="3px" d="M-1616.927 547.064v-3.292c-14.98-8.649-27.166-29.757-27.166-47.054s12.186-24.332 27.166-15.684l229.516 132.512c16.552 9.556 30.018 1.782 30.018-17.33s-13.466-42.435-30.018-51.991v3.292c14.98 8.648 27.167 29.756 27.167 47.053s-12.187 24.332-27.167 15.683l-229.516-132.511c-16.552-9.556-30.018-1.782-30.018 17.33s13.466 42.435 30.018 51.992z"/>
                    </g>
                    <g id="Group_6740">
                        <path id="Path_5427" d="M-1416.615 523.708l-102.1-59.526-3.924 2.243 102.1 59.526z" class="cls-6"/>
                        <path id="Path_5428" d="M-1418.358 502.894l-83.207-48.512-3.924 2.243 83.207 48.512z" class="cls-6"/>
                        <path id="Path_5429" d="M-1432.821 504.359l-77.316-45.077-3.924 2.243 77.317 45.077z" class="cls-6"/>
                        <path id="Path_5430" d="M-1408.042 518.808l-18.889-11.014-3.924 2.243 18.889 11.014z" class="cls-6"/>
                    </g>
                    <path id="Path_5431" d="M-1636.778 478.1l134.826-77.862q.345-.211.7-.4l.043-.025c5.4-2.891 12.736-2.364 20.81 2.3l152.522 88.059" class="cls-7"/>
                    <path id="Line_246" d="M214.37 123.767L0 0" class="cls-7" transform="translate(-1625.803 474.282)"/>
                    <path id="Path_5432" d="M-1365.683 531.186l111.248-64.261c16.552 9.556 30.017 32.878 30.017 51.991 0 9.227-3.145 15.8-8.255 19.068l-.006.009-.082.048q-.454.285-.93.537l-133.225 75.187" class="cls-7"/>
                    <path id="Line_247" fill="#d4ecff" stroke="#639" stroke-linecap="round" stroke-miterlimit="10" stroke-width="5px" d="M0 24.771L37.504 0" transform="translate(-1615.756 521.525)"/>
                    <g id="Group_6742">
                        <path id="Path_5433" fill="#bfbfd4" d="M-1457.491 565.15c.181-.1.379-.188.558-.292 19.945-11.515 19.945-30.185 0-41.7s-52.284-11.515-72.229 0c-.427.246-.792.515-1.2.767a33.423 33.423 0 0 1 6.518 2.916z"/>
                        <path id="Path_5434" d="M-1441.974 525.63v-9.389h-2.707c-2.432-4.186-6.479-8.127-12.253-11.46-19.946-11.516-52.284-11.516-72.229 0-5.773 3.333-9.821 7.274-12.252 11.46h-2.7v9.312c-.034 7.572 4.946 15.151 14.953 20.928 19.946 11.516 52.284 11.516 72.229 0 9.974-5.757 14.96-13.304 14.959-20.851z" class="cls-10"/>
                        <path id="Path_5435" d="M-1456.933 537.092c-19.945 11.515-52.283 11.515-72.229 0s-19.946-30.186 0-41.7 52.283-11.515 72.229 0 19.945 30.184 0 41.7z" class="cls-10"/>
                        <path id="Path_5436" d="M-1456.933 537.091c-19.945 11.516-52.283 11.516-72.229 0-9.559-5.519-14.485-12.682-14.882-19.913-.431 7.857 4.495 15.793 14.882 21.79 19.946 11.516 52.284 11.516 72.229 0 10.387-6 15.313-13.932 14.881-21.789-.396 7.23-5.322 14.393-14.881 19.912z" class="cls-3"/>
                        <g id="Group_6741">
                            <path id="Path_5437" d="M-1517.665 526a2.3 2.3 0 0 1-1.346-1.881l.052-19.213c0-1.464 2.065-2.651 4.6-2.649s4.59 1.191 4.589 2.659l-.043 15.931 46.235-5.662c2.486-.3 4.924.612 5.451 2.045s-1.06 2.843-3.542 3.148l-51.794 6.342a7.288 7.288 0 0 1-3.851-.535c-.12-.056-.239-.117-.351-.185z" class="cls-3"/>
                        </g>
                    </g>
                    <g id="Group_6746">
                        <path id="Path_5438" fill="#0cc" stroke="#0cc" stroke-width="3px" d="M-1371.435 523.686a.765.765 0 0 1-.424-.791l1.458-10.725 7.391 3.6-7.541 7.763a.765.765 0 0 1-.884.153z"/>
                        <path id="Path_5439" fill="#c1d0dc" stroke="#639" stroke-linecap="round" stroke-linejoin="round" stroke-width="5px" d="M-1343.531 489.536c-6.443.456-14.6-3.513-18.213-8.865s-1.324-10.06 5.118-10.516 14.6 3.514 18.213 8.866 1.324 10.06-5.118 10.515z"/>
                        <path id="Path_5440" d="M-1277 368.378l-30.434-14.815-55.526 120.014 13.219 6.435-13.219-6.435-.428.88a74.642 74.642 0 0 0-7.248 39.118 1.915 1.915 0 0 0 .353 1.732c.943 1.4 3.683 2.7 3.683 2.7s1.948 1.32 2.217.883l3.883-2.883c8.81-6.394 15.511-15.886 20.8-25.4l2.5-4.5z" class="cls-13"/>
                        <g id="Group_6743">
                            <path id="Path_5441" d="M-1281.982 367.3c-7.613.538-17.248-4.152-21.521-10.476s-1.565-11.886 6.048-12.424 17.248 4.151 21.52 10.475 1.565 11.882-6.047 12.425z" class="cls-4"/>
                        </g>
                        <path id="Path_5442" d="M-1284.4 372.4c-7.612.539-17.247-4.152-21.52-10.475s-1.565-11.887 6.048-12.425 17.248 4.152 21.52 10.476 1.566 11.889-6.048 12.424z" class="cls-1"/>
                        <path id="Path_5443" d="M-1284.478 372.738c-7.612.538-17.247-4.152-21.52-10.476-1.721-2.547-2.291-4.963-1.883-6.985-2.076 2.325-2.064 5.869.525 9.7 4.272 6.324 13.907 11.014 21.519 10.476 4.547-.322 7.327-2.443 7.931-5.44-1.349 1.513-3.572 2.513-6.572 2.725z" class="cls-3"/>
                        <path id="Rectangle_3266" d="M0 0H7.492V33.848H0z" class="cls-1" transform="rotate(-64.044 -370.847 1222.39)"/>
                        <path id="Path_5444" d="M-1216.637 244.377l-30.434-14.815-57.521 118.169-.344.706.059.028c-.7 2.143-.194 4.818 1.718 7.646 4.273 6.325 13.908 11.015 21.52 10.476 3.408-.24 5.823-1.493 7.079-3.364l.059.028z" class="cls-13"/>
                        <path id="Line_248" d="M0 98.223L47.294 0" class="cls-7" transform="translate(-1265.302 246.129)"/>
                        <path id="Line_249" d="M54.442 0L0 111.842" class="cls-7" transform="translate(-1302.884 231.314)"/>
                        <path id="Path_5445" d="M-1224.117 248.42c-7.613.538-17.248-4.152-21.521-10.476s-1.565-11.886 6.048-12.424 17.248 4.151 21.52 10.475 1.565 11.887-6.047 12.425z" class="cls-2"/>
                        <path id="Path_5446" d="M-1226.887 244.322c-4.511.091-10.392-3.127-13.135-7.187s-1.31-7.426 3.2-7.517 10.392 3.126 13.135 7.187 1.312 7.426-3.2 7.517z" class="cls-6"/>
                        <g id="Group_6744">
                            <path id="Path_5447" d="M-1223.929 238.708l-13.131-6.392 12.265-25.2a7.3 7.3 0 0 1 9.761-3.37 7.3 7.3 0 0 1 3.369 9.761z" class="cls-10"/>
                            <path id="Path_5448" d="M-1227.157 240.452a11.412 11.412 0 0 1-9.285-4.52c-1.843-2.728-.675-5.128 2.609-5.36a11.41 11.41 0 0 1 9.285 4.519c1.848 2.729.675 5.129-2.609 5.361z" class="cls-10"/>
                        </g>
                        <path id="Path_5449" d="M-1218.07 235.995c4.273 6.324 1.565 11.887-6.047 12.425" class="cls-7"/>
                        <path id="Path_5450" d="M-1224.117 248.42c-7.613.538-17.248-4.152-21.521-10.476s-1.565-11.886 6.048-12.424" class="cls-7"/>
                        <g id="Group_6745">
                            <path id="Path_5451" d="M-1269.36 270.7l-2.332-3.45c-1.338-1.982-1.26-4.749.22-7.791l6.3-12.947a9.451 9.451 0 0 1 7.075-4.781l6.2-.438a5.1 5.1 0 0 0 3.014-1.49l2.905.238-2.01-2.947v.007a1.592 1.592 0 0 0-1.565-.618l-6.2.439c-5.653.4-12.271 4.871-14.752 9.967l-6.3 12.948c-2.1 4.326-2.216 8.261-.312 11.081l2.332 3.449c1.339 1.982 1.261 4.749-.22 7.791l-25.4 52.192a1.612 1.612 0 0 0-.031 1.662l2.005 2.94.807-2.716a5.113 5.113 0 0 0 2.559-2.263l25.405-52.192c2.095-4.326 2.205-8.261.3-11.081z" class="cls-1"/>
                            <path id="Path_5452" d="M-1269.657 270.236c-1.338-1.982-1.26-4.749.22-7.79l6.3-12.948a9.446 9.446 0 0 1 7.075-4.78l6.2-.439a5.121 5.121 0 0 0 3.839-2.593c.646-1.328-.024-2.32-1.5-2.216l-6.2.438c-5.654.4-12.272 4.871-14.752 9.967l-6.3 12.948c-2.106 4.326-2.216 8.261-.312 11.081l2.332 3.45c1.339 1.981 1.261 4.748-.22 7.791l-25.405 52.191c-.647 1.328.024 2.321 1.5 2.217a5.125 5.125 0 0 0 3.839-2.594l25.405-52.192c2.106-4.327 2.217-8.262.312-11.081z" class="cls-1"/>
                        </g>
                        <path id="Line_250" d="M0 117.738L60.204 0" class="cls-7" transform="translate(-1341.229 376.688)"/>
                        <path id="Path_5453" d="M-1349.015 443.046l-17.971 38.842 13.219 6.435-13.219-6.435-.428.88c-2.217 4.554-3.633 23.343-4.3 30.445s6.884 5.133 6.884 5.133l11.063-8.785" class="cls-7"/>
                        <path id="Line_251" d="M31.436 0L0 67.946" class="cls-7" transform="translate(-1342.896 361.874)"/>
                    </g>
                </g>
                <path id="Path_5380" d="M335.363 39.394h-22.491a3.052 3.052 0 0 1 0-6.1h22.491a3.052 3.052 0 1 1 0 6.1z" class="cls-1" transform="translate(496.149 1360.551)"/>
                <path id="Path_5381" d="M332.613 44.794h-22.491a3.052 3.052 0 1 1 0-6.1h22.491a3.052 3.052 0 0 1 0 6.1z" class="cls-6" transform="translate(493.903 1364.961)"/>
                <path id="Path_5383" d="M412.623 116.764h-22.491a3.052 3.052 0 0 1 0-6.1h22.491a3.052 3.052 0 0 1 0 6.1z" class="cls-1" transform="translate(-47.75 1305.74)"/>
            </g>
        </g>
    </g>
</svg>
