<svg xmlns="http://www.w3.org/2000/svg" id="prefix__icon_linkdin-white" width="36.966" height="36.966" data-name="icon linkdin-white" viewBox="0 0 36.966 36.966">
    <path id="prefix__Rectangle_17" fill="none" d="M0 0H36.966V36.966H0z" data-name="Rectangle 17"/>
    <g id="prefix__Group_40" data-name="Group 40" transform="translate(11.552 9.178)">
        <path id="prefix__Path_210" fill="#c6c6c6" d="M43.961 33.865v6.247H40.34v-5.828c0-1.463-.523-2.463-1.834-2.463a1.981 1.981 0 0 0-1.858 1.324 2.479 2.479 0 0 0-.12.883v6.083h-3.622s.049-9.871 0-10.892h3.622v1.544c-.007.012-.018.024-.024.036h.024v-.036a3.6 3.6 0 0 1 3.264-1.8c2.383 0 4.169 1.557 4.169 4.9zm-14.844-9.9a1.887 1.887 0 1 0-.048 3.764h.023a1.888 1.888 0 1 0 .024-3.764zm-1.834 16.147H30.9V29.219h-3.62z" data-name="Path 210" transform="translate(-27.068 -23.969)"/>
    </g>
</svg>
