<svg xmlns="http://www.w3.org/2000/svg" width="32" height="32" viewBox="0 0 32 32">
    <defs>
        <style>
            .cls-2{fill:#0cc;stroke:#0cc;stroke-width:.5px}
        </style>
    </defs>
    <g id="icon_more_picters" transform="translate(-137 -1130)">
        <path id="Path_77211" fill="none" d="M0 0h32v32H0z" opacity="0.5" transform="translate(137 1130)"/>
        <g id="image-gallery" transform="translate(141 1133)">
            <g id="Group_9255">
                <path id="Path_77207" d="M17.453 24a2 2 0 0 1-.51-.066L1.48 19.793a2.018 2.018 0 0 1-1.414-2.45l1.951-7.272a.5.5 0 0 1 .966.258L1.033 17.6a1.015 1.015 0 0 0 .71 1.229L17.2 22.967a1 1 0 0 0 1.217-.7l.781-2.894a.5.5 0 0 1 .966.26l-.78 2.89A2 2 0 0 1 17.453 24z" class="cls-2"/>
            </g>
            <g id="Group_9256">
                <path id="Path_77208" d="M22 18H6a2 2 0 0 1-2-2V4a2 2 0 0 1 2-2h16a2 2 0 0 1 2 2v12a2 2 0 0 1-2 2zM6 3a1 1 0 0 0-1 1v12a1 1 0 0 0 1 1h16a1 1 0 0 0 1-1V4a1 1 0 0 0-1-1z" class="cls-2"/>
            </g>
            <g id="Group_9257">
                <path id="Path_77209" d="M9 9a2 2 0 1 1 2-2 2 2 0 0 1-2 2zm0-3a1 1 0 1 0 1 1 1 1 0 0 0-1-1z" class="cls-2"/>
            </g>
            <g id="Group_9258">
                <path id="Path_77210" d="M4.57 16.93a.5.5 0 0 1-.354-.853l4.723-4.723a1.537 1.537 0 0 1 2.121 0l1.406 1.406 3.892-4.67a1.5 1.5 0 0 1 1.142-.54h.011a1.5 1.5 0 0 1 1.139.523l5.23 6.1a.5.5 0 0 1-.759.651l-5.23-6.1a.5.5 0 0 0-.38-.174.531.531 0 0 0-.384.18l-4.243 5.091a.5.5 0 0 1-.362.179.481.481 0 0 1-.376-.146l-1.793-1.793a.514.514 0 0 0-.707 0l-4.723 4.723a.5.5 0 0 1-.353.146z" class="cls-2"/>
            </g>
        </g>
    </g>
</svg>
