<svg xmlns="http://www.w3.org/2000/svg" width="36.966" height="36.966" viewBox="0 0 36.966 36.966">
    <g id="prefix__icon_pinterst-white" data-name="icon pinterst-white" transform="translate(-1649.999 -19.001)">
        <path id="prefix__Rectangle_1506" fill="none" d="M0 0H36.966V36.966H0z" data-name="Rectangle 1506" transform="translate(1649.999 19.001)"/>
        <path id="prefix__XMLID_799_" fill="#c6c6c6" d="M47.874 2.2A8.237 8.237 0 0 0 42.112 0a9.056 9.056 0 0 0-6.679 2.575 7.61 7.61 0 0 0-2.252 5.275c0 2.391 1 4.226 2.675 4.909a.886.886 0 0 0 .336.069.748.748 0 0 0 .73-.6c.057-.213.188-.738.244-.965a.906.906 0 0 0-.242-.98 3.122 3.122 0 0 1-.71-2.133 5.369 5.369 0 0 1 5.567-5.4c2.869 0 4.651 1.631 4.651 4.255a8.842 8.842 0 0 1-1 4.319 2.971 2.971 0 0 1-2.458 1.72 1.629 1.629 0 0 1-1.3-.592 1.49 1.49 0 0 1-.261-1.295c.128-.541.3-1.106.471-1.652a10.223 10.223 0 0 0 .6-2.69 1.953 1.953 0 0 0-1.966-2.149c-1.494 0-2.665 1.518-2.665 3.455a5.138 5.138 0 0 0 .367 1.934l-1.519 6.433c-.123.522-.862 4.644.362 4.973 1.375.369 2.6-3.646 2.728-4.1.1-.369.456-1.764.673-2.622a4.156 4.156 0 0 0 2.772 1.071 6.181 6.181 0 0 0 4.964-2.487 9.968 9.968 0 0 0 1.866-6.095A7.028 7.028 0 0 0 47.874 2.2z" transform="translate(1627.088 27.432)"/>
    </g>
</svg>
