<svg xmlns="http://www.w3.org/2000/svg" id="prefix__telegram-logo" width="23.104" height="19.401" viewBox="0 0 23.104 19.401">
    <path id="prefix__Path_221" fill="#c6c6c6" d="M18.6 29.4a.957.957 0 0 1-.513-.148l-5.809-3.7-3.116 2.1a.965.965 0 0 1-.843.111.882.882 0 0 1-.575-.589l-1.566-5.562-5.59-2.007a.841.841 0 0 1-.011-1.6l21.255-7.94a.965.965 0 0 1 .3-.067 1.016 1.016 0 0 1 .11 0 .941.941 0 0 1 .586.244c.017.016.033.031.048.048a.829.829 0 0 1 .224.5.818.818 0 0 1 0 .137.787.787 0 0 1-.015.1L19.5 28.7a.873.873 0 0 1-.548.632.966.966 0 0 1-.352.068zm-5.813-5.6l5.175 3.3 2.792-13.751-10.084 9.104 2.092 1.332zm-4.308-.733l.693 2.465 1.493-1.008L8.71 23.28a.888.888 0 0 1-.231-.212zm-5.048-4.28l3.838 1.378a.88.88 0 0 1 .558.583l.487 1.732a.84.84 0 0 1 .275-.529l9.611-8.679z" data-name="Path 221" transform="translate(0 -9.997)"/>
</svg>
