<svg xmlns="http://www.w3.org/2000/svg" width="36.97" height="36.97" viewBox="0 0 36.97 36.97">
    <g id="prefix__icon_twitter-white" data-name="icon twitter-white" transform="translate(-1538.001 -41.999)">
        <g id="prefix__Group_6690" data-name="Group 6690" transform="translate(1538.001 41.999)">
            <path id="prefix__Rectangle_1504" fill="none" d="M0 0H36.97V36.97H0z" data-name="Rectangle 1504"/>
        </g>
        <g id="prefix__twitter" transform="translate(1543.551 48.87)">
            <g id="prefix__Group_7398" data-name="Group 7398">
                <path id="prefix__Path_76641" fill="#c6c6c6" d="M26.07 50.51a11.133 11.133 0 0 1-3.079.845 5.319 5.319 0 0 0 2.35-2.955 10.673 10.673 0 0 1-3.389 1.3 5.343 5.343 0 0 0-9.245 3.659 5.516 5.516 0 0 0 .124 1.22 15.122 15.122 0 0 1-11.016-5.6 5.356 5.356 0 0 0 1.642 7.151 5.273 5.273 0 0 1-2.415-.659v.059a5.374 5.374 0 0 0 4.282 5.257 5.329 5.329 0 0 1-1.4.176 4.72 4.72 0 0 1-1.012-.091A5.4 5.4 0 0 0 7.906 64.6a10.731 10.731 0 0 1-6.627 2.282A10 10 0 0 1 0 66.8a15.034 15.034 0 0 0 8.2 2.4 15.116 15.116 0 0 0 15.211-15.22c0-.237-.008-.465-.02-.692a10.669 10.669 0 0 0 2.679-2.778z" data-name="Path 76641" transform="translate(0 -48)"/>
            </g>
        </g>
    </g>
</svg>
