<svg xmlns="http://www.w3.org/2000/svg" width="232.441" height="185.953" viewBox="0 0 232.441 185.953">
    <defs>
        <style>
            .prefix__cls-2{fill:#c39}.prefix__cls-3{fill:#639}.prefix__cls-4{fill:#5a47a0}.prefix__cls-5{fill:#0cc}
        </style>
    </defs>
    <g id="prefix__icon_-1_hour_support" data-name="icon -1 hour support" transform="translate(478.65 657.105)">
        <path id="prefix__Rectangle_1662-2" fill="none" d="M0 0H232.441V185.953H0z" data-name="Rectangle 1662-2" transform="translate(-478.65 -657.105)"/>
        <g id="prefix__Group_6525" data-name="Group 6525">
            <g id="prefix__Group_3244-2" data-name="Group 3244-2">
                <path id="prefix__Path_621-2" d="M-276.071-566.144h-.024a11.035 11.035 0 0 0-11.044 11.026 11.034 11.034 0 0 0 11.026 11.044h.024a11.035 11.035 0 0 0 11.044-11.026 11.036 11.036 0 0 0-11.026-11.044zm3.317 14.385a4.688 4.688 0 0 1-3.334 1.379h-.012a4.728 4.728 0 0 1-4.726-4.732 4.729 4.729 0 0 1 4.732-4.726h.013a4.728 4.728 0 0 1 4.72 4.736 4.729 4.729 0 0 1-1.392 3.343z" class="prefix__cls-2" data-name="Path 621-2"/>
                <path id="prefix__Path_623-2" d="M-291.455-512.11a3.569 3.569 0 0 0 3.043-4.028 3.569 3.569 0 0 0-4.028-3.043 3.569 3.569 0 0 0-3.043 4.027 3.569 3.569 0 0 0 4.027 3.044z" class="prefix__cls-2" data-name="Path 623-2"/>
                <path id="prefix__Path_624-3" d="M-426.71-519.548a3.569 3.569 0 0 0 3.043-4.028 3.569 3.569 0 0 0-4.028-3.043 3.569 3.569 0 0 0-3.043 4.027 3.569 3.569 0 0 0 4.027 3.044z" class="prefix__cls-3" data-name="Path 624-3"/>
                <path id="prefix__Path_625-3" d="M-265.55-598.694a3.57 3.57 0 0 0-3.044 4.028 3.569 3.569 0 0 0 4.028 3.044 3.571 3.571 0 0 0 3.044-4.028 3.569 3.569 0 0 0-4.026-3.044z" class="prefix__cls-2" data-name="Path 625-3"/>
                <path id="prefix__Path_627-3" d="M-292.874-599.571l3.571-3.559a3.152 3.152 0 0 0-.1-4.456 3.152 3.152 0 0 0-4.357-.005l-3.568 3.556-3.556-3.569a3.153 3.153 0 0 0-4.458-.006 3.151 3.151 0 0 0-.006 4.458l3.553 3.561-3.57 3.558a3.151 3.151 0 0 0-.006 4.458 3.151 3.151 0 0 0 4.458.006l3.567-3.555 3.557 3.57a3.152 3.152 0 0 0 4.458.007 3.152 3.152 0 0 0 .007-4.458z" class="prefix__cls-4" data-name="Path 627-3"/>
                <path id="prefix__Path_76715" d="M-413.495-579.781h-40.427a2 2 0 0 1-2-2 2 2 0 0 1 2-2h40.427a2 2 0 0 1 2 2 2 2 0 0 1-2 2z" class="prefix__cls-3" data-name="Path 76715"/>
                <path id="prefix__Path_76716" d="M-420.943-569.556h-40.427a2 2 0 0 1-2-2 2 2 0 0 1 2-2h40.427a2 2 0 0 1 2 2 2 2 0 0 1-2 2z" class="prefix__cls-2" data-name="Path 76716"/>
                <path id="prefix__Path_76717" d="M-423.754-558.832h-19.911a2 2 0 0 1-2-2 2 2 0 0 1 2-2h19.911a2 2 0 0 1 2 2 2 2 0 0 1-2 2z" class="prefix__cls-4" data-name="Path 76717"/>
            </g>
            <g id="prefix__Group_6524" data-name="Group 6524">
                <path id="prefix__Path_5203" d="M-393.63-513.684a54.7 54.7 0 0 0 33.22 15.73q2.679.264 5.358.264a54.745 54.745 0 0 0 29.8-8.809 2.7 2.7 0 0 0 .79-3.741 2.7 2.7 0 0 0-3.741-.79 49.207 49.207 0 0 1-68.071-14.459 49.208 49.208 0 0 1 14.46-68.071 49.207 49.207 0 0 1 68.07 14.46 49.2 49.2 0 0 1 .034 53.559 2.7 2.7 0 0 0 .795 3.74 2.7 2.7 0 0 0 3.74-.795 54.6 54.6 0 0 0-16.119-75.515 54.609 54.609 0 0 0-17.812-7.474v-6.87a9.19 9.19 0 0 0 6.7-11.136 9.193 9.193 0 0 0-8.924-6.977h-19.461a9.192 9.192 0 0 0-9.2 9.189 9.193 9.193 0 0 0 6.977 8.924v6.889a54.292 54.292 0 0 0-26.625 14.645c-1.66 1.66-4.741 5.156-4.8 5.2-9.381 7.475-22.022 47.397 4.809 72.037zm25.059-107.691a3.789 3.789 0 0 1 3.785-3.785h19.466a3.786 3.786 0 0 1 3.786 3.784 3.785 3.785 0 0 1-3.784 3.786h-19.468a3.788 3.788 0 0 1-3.785-3.785zm6.971 14.875v-5.687h13.089v5.677a55.158 55.158 0 0 0-13.089.01z" class="prefix__cls-3" data-name="Path 5203"/>
                <path id="prefix__Path_5204" d="M-318.3-518.3a2.7 2.7 0 0 0-2.7 2.7 2.7 2.7 0 0 0 2.7 2.7 2.7 2.7 0 0 0 2.7-2.7 2.7 2.7 0 0 0-.789-1.908 2.723 2.723 0 0 0-1.911-.792z" class="prefix__cls-5" data-name="Path 5204"/>
                <path id="prefix__Path_5205" d="M-355.011-594.245a41.942 41.942 0 0 0-41.942 41.945 41.942 41.942 0 0 0 41.942 41.942 41.942 41.942 0 0 0 41.942-41.942 41.991 41.991 0 0 0-41.942-41.945zm0 78.477a36.535 36.535 0 0 1-36.535-36.532 36.535 36.535 0 0 1 36.535-36.535 36.536 36.536 0 0 1 36.535 36.535 36.576 36.576 0 0 1-36.535 36.535z" class="prefix__cls-5" data-name="Path 5205"/>
                <path id="prefix__Path_5206" d="M-337.909-573.229l-13.391 13.394a8.382 8.382 0 0 0-7.422 0l-5.993-5.993a2.7 2.7 0 0 0-3.824 0 2.7 2.7 0 0 0 0 3.823l5.993 5.993a8.4 8.4 0 0 0 3.822 11.248 8.4 8.4 0 0 0 11.248-3.822 8.4 8.4 0 0 0 0-7.426l13-13 .393-.393a2.7 2.7 0 0 0 0-3.823 2.7 2.7 0 0 0-3.823 0zm-17.1 23.92A2.993 2.993 0 0 1-358-552.3a2.994 2.994 0 0 1 2.994-2.994 3 3 0 0 1 2.994 2.994 3 3 0 0 1-3 2.994z" class="prefix__cls-5" data-name="Path 5206"/>
                <path id="prefix__Path_5207" d="M-326.1-554.973h-2.505a2.7 2.7 0 0 0-2.7 2.7 2.7 2.7 0 0 0 2.7 2.7h2.505a2.7 2.7 0 0 0 2.7-2.7 2.7 2.7 0 0 0-2.7-2.7z" class="prefix__cls-5" data-name="Path 5207"/>
                <path id="prefix__Path_5208" d="M-381.415-555.039h-2.5a2.7 2.7 0 0 0-2.7 2.7 2.7 2.7 0 0 0 2.7 2.7h2.5a2.7 2.7 0 0 0 2.7-2.7 2.7 2.7 0 0 0-2.7-2.7z" class="prefix__cls-5" data-name="Path 5208"/>
                <path id="prefix__Path_5209" d="M-354.978-576a2.7 2.7 0 0 0 2.7-2.7v-2.5a2.7 2.7 0 0 0-2.7-2.7 2.7 2.7 0 0 0-2.7 2.7v2.5a2.7 2.7 0 0 0 2.7 2.7z" class="prefix__cls-5" data-name="Path 5209"/>
                <path id="prefix__Path_5210" d="M-355.044-528.6a2.7 2.7 0 0 0-2.7 2.7v2.5a2.7 2.7 0 0 0 2.7 2.7 2.7 2.7 0 0 0 2.7-2.7v-2.5a2.7 2.7 0 0 0-2.7-2.7z" class="prefix__cls-5" data-name="Path 5210"/>
            </g>
        </g>
    </g>
</svg>
