<svg xmlns="http://www.w3.org/2000/svg" width="232.441" height="185.953" viewBox="0 0 232.441 185.953">
    <defs>
        <style>
            .prefix__cls-1{fill:#639}.prefix__cls-2{fill:#ff60b6}.prefix__cls-3{fill:#c39}.prefix__cls-5{fill:#5a47a0}
        </style>
    </defs>
    <g id="prefix__icon-_Residence_all_over_Iran" data-name="icon- Residence all over Iran" transform="translate(762.629 657.108)">
        <g id="prefix__Group_7826" data-name="Group 7826">
            <path id="prefix__Path_678-2" d="M-737.68-522.573h-.019a8.586 8.586 0 0 0-8.5 8.671 8.587 8.587 0 0 0 8.487 8.5h.019a8.586 8.586 0 0 0 8.5-8.672 8.586 8.586 0 0 0-8.487-8.499zm2.581 11.194a3.658 3.658 0 0 1-2.6 1.073h-.009a3.682 3.682 0 0 1-3.68-3.68 3.681 3.681 0 0 1 3.68-3.68h.01a3.679 3.679 0 0 1 3.673 3.684 3.669 3.669 0 0 1-1.084 2.6z" class="prefix__cls-1" data-name="Path 678-2"/>
            <path id="prefix__Path_622-3" d="M-569.8-550.761a2.778 2.778 0 0 0-2.369 3.134 2.779 2.779 0 0 0 3.134 2.369 2.777 2.777 0 0 0 2.369-3.132v-.006a2.776 2.776 0 0 0-3.132-2.369z" class="prefix__cls-2" data-name="Path 622-3"/>
            <path id="prefix__Path_682-2" d="M-692.479-625.438a2.78 2.78 0 0 0-2.369 3.134 2.777 2.777 0 0 0 3.132 2.369 2.777 2.777 0 0 0 2.369-3.134 2.776 2.776 0 0 0-3.132-2.369z" class="prefix__cls-2" data-name="Path 682-2"/>
            <path id="prefix__Path_76705" d="M-542.98-556.825h-31.458a2 2 0 0 1-2-2 2 2 0 0 1 2-2h31.458a2 2 0 0 1 2 2 2 2 0 0 1-2 2z" class="prefix__cls-2" data-name="Path 76705"/>
            <path id="prefix__Path_76706" d="M-653.05-619.048h-31.458a2 2 0 0 1-2-2 2 2 0 0 1 2-2h31.458a2 2 0 0 1 2 2 2 2 0 0 1-2 2z" class="prefix__cls-3" data-name="Path 76706"/>
            <path id="prefix__Path_76707" d="M-705.005-515.988H-720.5a2 2 0 0 1-2-2 2 2 0 0 1 2-2h15.494a2 2 0 0 1 2 2 2 2 0 0 1-1.999 2z" class="prefix__cls-2" data-name="Path 76707"/>
            <path id="prefix__Path_76708" d="M-557.425-539.341h-15.495a2 2 0 0 1-2-2 2 2 0 0 1 2-2h15.495a2 2 0 0 1 2 2 2 2 0 0 1-2 2z" class="prefix__cls-3" data-name="Path 76708"/>
            <path id="prefix__Path_76709" d="M-705.005-507.251H-720.5a2 2 0 0 1-2-2 2 2 0 0 1 2-2h15.494a2 2 0 0 1 2 2 2 2 0 0 1-1.999 2z" class="prefix__cls-3" data-name="Path 76709"/>
            <path id="prefix__Path_76710" d="M-676.764-613.006h-15.492a2 2 0 0 1-2-2 2 2 0 0 1 2-2h15.492a2 2 0 0 1 2 2 2 2 0 0 1-2 2z" class="prefix__cls-2" data-name="Path 76710"/>
            <path id="prefix__Path_76711" fill="#339" d="M-596.669-582.8a1.989 1.989 0 0 1-1.35-.525l-25.574-23.411a.815.815 0 0 0-1.1-.006 2 2 0 0 1-2.823-.156 2 2 0 0 1 .155-2.824 4.8 4.8 0 0 1 6.467.036l25.574 23.411a2 2 0 0 1 .124 2.826 2 2 0 0 1-1.473.649z" data-name="Path 76711"/>
            <path id="prefix__Path_76712" d="M-576.244-563.827a3.621 3.621 0 0 1-2.476-.968l-14.241-13.262a2 2 0 0 1-.1-2.827 2 2 0 0 1 2.826-.1l13.979 13.018 8.855-9.179-55.685-52.931a1.84 1.84 0 0 0-2.526-.011l-25.152 23.551a2 2 0 0 1-2.827-.093 2 2 0 0 1 .092-2.827l25.153-23.551a5.849 5.849 0 0 1 8.016.031l55.95 53.184a3.648 3.648 0 0 1 .112 5.161l-9.357 9.7a3.636 3.636 0 0 1-2.619 1.104z" class="prefix__cls-5" data-name="Path 76712"/>
            <path id="prefix__Path_76713" d="M-603.024-517.689a2 2 0 0 1-2-1.992 2 2 0 0 1 1.993-2.008l17.251-.069v-50.106a2 2 0 0 1 2-2 2 2 0 0 1 2 2v50.464a3.641 3.641 0 0 1-3.638 3.637l-17.6.07zm17.6-4.07z" class="prefix__cls-5" data-name="Path 76713"/>
            <path id="prefix__Path_76650" d="M-571.6-602.354a2.835 2.835 0 0 0-2.835-2.835 2.835 2.835 0 0 0-2.835 2.835 2.835 2.835 0 0 0 2.835 2.835 2.835 2.835 0 0 0 2.835-2.835zm-4.252 0a1.418 1.418 0 0 1 1.416-1.418 1.416 1.416 0 0 1 1.417 1.417 1.416 1.416 0 0 1-1.415 1.417 1.416 1.416 0 0 1-1.417-1.415z" class="prefix__cls-1" data-name="Path 76650"/>
            <g id="prefix__Group_7701" data-name="Group 7701">
                <path id="prefix__Path_76714" fill="#0cc" d="M-616.207-493.681a8.572 8.572 0 0 1-1.718-.186 64.942 64.942 0 0 0-10.5-.844c-8.018-.231-16.308-.471-19.433-6.253-4.295-7.9-7.441-7.229-13.155-6.006a40.055 40.055 0 0 1-6.506 1c-10.491.543-21.638-5.839-29.83-17.086-1.031-1.412-1.915-2.854-2.77-4.249-3.326-5.426-5.522-9.011-13.215-7.4a6.521 6.521 0 0 1-5.331-1.094c-2.553-1.879-4.076-5.665-4.656-11.575-.467-4.768-2.642-6.814-6.167-9.616-.691-.552-1.4-1.1-2.117-1.643-4.234-3.238-9.032-6.909-9.651-12.361-.4-3.566 1.016-7.252 4.344-11.27.253-.3-.187-1.437-1.44-2.537-7.933-7.036-10.115-16.449-12.225-25.552-.315-1.36-.631-2.72-.965-4.071-.831-3.321.049-5.729 2.852-7.8a7.025 7.025 0 0 1 5.126-1.658 5.549 5.549 0 0 1 3.623 2.433c1.755 2.45 3.5 3.774 5.345 4.057 2.237.343 5.007-.795 8.715-3.581 2.253-1.691 5.054-3.8 7.836-2.688 2.672 1.064 3.589 4.415 4.182 7.879 1.146 6.671 6.492 12.527 14.3 15.663 8.989 3.609 19.046 2.8 25.621-2.066 15.239-11.282 30.662-10.949 45.844.994a19.212 19.212 0 0 0 5.087 2.357c4.2 1.5 10.517 3.767 9.034 11.33a36.964 36.964 0 0 1-2.9 11.823c-1.549 4.133-2.773 7.4-1.658 10.922a18.735 18.735 0 0 1 .535 6.179c-.117 4.63.024 6.721 4.6 7.755a4.671 4.671 0 0 1 3.556 3.316 7.706 7.706 0 0 1-2.111 7.03c-2.364 2.355-3.492 4.39-3.355 6.052.215 2.627 3.646 5.074 6.963 7.441l1.409 1.009c1.887 1.35 4.026 2.88 4.578 6.461.575 3.816-1.966 12.625-5.683 15.279l-.293.214a18.055 18.055 0 0 1-1.607 1.086c-.412.23-.6 1.772-.719 2.693-.237 1.9-.532 4.261-2.458 5.644a5.181 5.181 0 0 1-3.087.919zm-39.764-19.044c4.2 0 8.419 1.845 12.513 9.379 1.756 3.25 8.581 3.447 15.181 3.637a68.246 68.246 0 0 1 11.356.944 2.971 2.971 0 0 0 .878.079 9.644 9.644 0 0 0 .423-2.177c.262-2.1.621-4.975 3.21-6.421.328-.19.714-.473 1.122-.772l.331-.242c1.686-1.2 4.037-7.946 3.658-10.465-.219-1.423-.786-1.89-2.544-3.147l-1.4-1.006c-4.049-2.888-8.638-6.161-9.044-11.1-.266-3.243 1.306-6.514 4.807-10a3.172 3.172 0 0 0 .859-1.955c-8.64-2.038-8.478-8.469-8.371-12.733a15.011 15.011 0 0 0-.3-4.549c-1.636-5.17.082-9.753 1.743-14.184 1.217-3.248 2.475-6.606 2.59-10.44l.055-.447c.653-3.059-.571-3.937-5.784-5.8a22.622 22.622 0 0 1-6.493-3.134c-13.561-10.668-26.2-10.956-39.777-.9-7.941 5.875-19.9 6.928-30.459 2.687-9.431-3.788-15.923-11.062-17.365-19.458a12.564 12.564 0 0 0-1.112-3.966 15.815 15.815 0 0 0-2.975 1.928c-3.313 2.489-7.721 5.257-12.477 4.525-3.242-.5-6.07-2.486-8.645-6.079a1.562 1.562 0 0 0-.4-.427 5.039 5.039 0 0 0-1.336.766c-1.221.9-1.273 1.291-.955 2.559.342 1.381.663 2.766.984 4.15 2.022 8.723 3.931 16.962 10.661 22.932 3.357 2.945 4.175 6.848 1.978 9.482-2.375 2.868-3.461 5.4-3.221 7.51.379 3.338 4.111 6.193 7.721 8.954.743.569 1.482 1.134 2.2 1.7 4.145 3.3 7.371 6.35 8.027 13.038.583 5.926 2.043 7.6 2.645 8.038a1.528 1.528 0 0 0 1.349.225c11.14-2.328 15.045 4.056 18.495 9.686.8 1.31 1.633 2.665 2.546 3.915 7.2 9.879 16.744 15.493 25.536 15.039a35.458 35.458 0 0 0 5.714-.9 29.389 29.389 0 0 1 6.076-.871z" data-name="Path 76714"/>
            </g>
        </g>
        <path id="prefix__Rectangle_1662-2" fill="none" d="M0 0H232.441V185.953H0z" data-name="Rectangle 1662-2" transform="translate(-762.629 -657.108)"/>
    </g>
</svg>
