<svg xmlns="http://www.w3.org/2000/svg" width="36.782" height="26.054" viewBox="0 0 36.782 26.054">
    <g id="prefix__bed" transform="translate(0 -74.667)">
        <g id="prefix__Group_8847" data-name="Group 8847" transform="translate(0 74.667)">
            <path id="prefix__Path_77012" fill="#0cc" d="M33.716 85.473V78.5a3.837 3.837 0 0 0-3.831-3.831H6.9A3.837 3.837 0 0 0 3.065 78.5v6.975A3.838 3.838 0 0 0 0 89.226v10.728a.766.766 0 0 0 1.533 0v-2.3h33.716v2.3a.766.766 0 0 0 1.533 0V89.226a3.838 3.838 0 0 0-3.066-3.753zM4.6 78.5a2.3 2.3 0 0 1 2.3-2.3h22.985a2.3 2.3 0 0 1 2.3 2.3v6.9h-2.11a2.278 2.278 0 0 0 .077-1.324l-.766-3.065a2.3 2.3 0 0 0-2.23-1.741h-4.934a2.3 2.3 0 0 0-2.3 2.3v3.065a2.273 2.273 0 0 0 .141.766h-3.346a2.272 2.272 0 0 0 .141-.766v-3.072a2.3 2.3 0 0 0-2.3-2.3H9.626A2.3 2.3 0 0 0 7.4 81.006l-.77 3.065a2.278 2.278 0 0 0 .077 1.324H4.6zm23.928 6.6a.761.761 0 0 1-.6.294h-5.7a.767.767 0 0 1-.766-.766v-3.065a.767.767 0 0 1 .766-.766h4.933a.766.766 0 0 1 .743.581l.766 3.065a.757.757 0 0 1-.144.657zm-13.2-3.539v3.065a.767.767 0 0 1-.766.766h-5.7a.766.766 0 0 1-.743-.952l.766-3.065a.772.772 0 0 1 .743-.581h4.933a.767.767 0 0 1 .763.768zm19.921 14.562H1.533V94.59h33.716v1.533zm0-3.065H1.533v-3.832a2.3 2.3 0 0 1 2.3-2.3H32.95a2.3 2.3 0 0 1 2.3 2.3v3.831z" data-name="Path 77012" transform="translate(0 -74.667)"/>
        </g>
    </g>
</svg>
