<svg xmlns="http://www.w3.org/2000/svg" width="536" height="639.051" viewBox="0 0 536 639.051">
    <defs>
        <style>
            .cls-1,.cls-10{fill:#339}.cls-2{fill:#fff}.cls-3{fill:#d6d6eb}.cls-4{fill:#639}.cls-5{fill:#c39}.cls-6{fill:#7ce0db}.cls-7{fill:#0cc}.cls-8{fill:#fcfcfc}.cls-9{fill:#e2e2e2}.cls-10{opacity:.2;isolation:isolate}
        </style>
    </defs>
    <g id="PIC_-2" data-name="PIC -2" transform="translate(-444 -652.497)">
        <g id="Group_9096" data-name="Group 9096" transform="translate(-198 13)">
            <path id="Path_76630" d="M379.629 664.7a3.774 3.774 0 0 1-.747-7.473c20.464-4.16 23.282-8.026 23.551-8.489a3.774 3.774 0 0 1 7.545.136c0 6.731-9.126 11.59-29.592 15.748a3.777 3.777 0 0 1-.757.078zm22.8-15.828z" class="cls-1" data-name="Path 76630" transform="translate(626.842 605.07)"/>
            <g id="Group_9095" data-name="Group 9095">
                <g id="Group_9093" data-name="Group 9093" transform="translate(1 -3)">
                    <path id="Path_76577" d="M483.623 236.658a7.145 7.145 0 0 1-4.25-1.406c-4.414-3.259-11.058-8.179-16.976-12.564l-8.906 7.352a5.455 5.455 0 0 1-8.658-2.509l-6.619-20.245-17.831-5.681a5.735 5.735 0 0 1-.439-10.771c18.175-7.457 61.936-25.387 75.7-30.829a5.6 5.6 0 0 1 7.555 6.278l-12.528 64.57a7.181 7.181 0 0 1-7.044 5.805zm-21.435-21.952l1.976 1.464c6.361 4.713 14.034 10.4 18.945 14.021a.855.855 0 0 0 .844.113.84.84 0 0 0 .541-.649l12.289-63.337c-14.5 5.766-54.64 22.208-73.044 29.756l19.453 6.2 7.239 22.141z" class="cls-1" data-name="Path 76577" transform="translate(636.292 482.884)"/>
                    <g id="Group_9092" data-name="Group 9092">
                        <g id="Group_7316" data-name="Group 7316" transform="translate(853.565 1002.387)">
                            <path id="Rectangle_3461" d="M0 0H6.289V75.89H0z" class="cls-1" data-name="Rectangle 3461" transform="rotate(-1.94 121.45 -1017.856)"/>
                            <path id="Rectangle_3462" d="M0 0H71.341V6.289H0z" class="cls-1" data-name="Rectangle 3462" transform="rotate(-83.608 39.642 35.449)"/>
                            <path id="Rectangle_3463" d="M0 0H71.043V6.29H0z" class="cls-1" data-name="Rectangle 3463" transform="rotate(-86.35 46.788 26.867)"/>
                        </g>
                        <g id="Group_6706" data-name="Group 6706" transform="translate(641 721.666)">
                            <path id="Path_5374" d="M179.111 293.844s-69.675.5-71.984 0c-8-1.737-21.3-11.723-11.609-30.576 4.387-8.523 12.775-9.686 18.374-9.392a6.929 6.929 0 0 0 7.015-4.868c2.537-8.176 9.049-22.235 24.132-22.509 17.867-.318 24.269 12.158 26.1 22.579a6.891 6.891 0 0 0 6.079 5.621c6.581.663 21.047 3.428 21.777 19.4.935 18.969-19.884 19.745-19.884 19.745z" class="cls-2" data-name="Path 5374" transform="translate(-88.323 -221.537)"/>
                            <path id="Path_5375" d="M121.528 231.295a21.172 21.172 0 0 1 14.191-5.6c17.87-.313 24.269 12.161 26.1 22.58a6.89 6.89 0 0 0 6.081 5.625c6.581.663 22.784 3.862 23.514 19.835.892 18.967-21.664 19.309-21.664 19.309s16.545-7.044 14.67-19.516c-2.445-16.362-14.969-10.42-21.047-11.677a15.3 15.3 0 0 1-12.157-13.643c-.457-5.165-1.623-10.741-4.41-13.346-8.006-7.562-25.278-3.567-25.278-3.567z" class="cls-3" data-name="Path 5375" transform="translate(-80.74 -221.743)"/>
                            <path id="Path_5376" d="M127.512 297.786c4.594 0 10.26 0 17.253-.045 17.5-.069 34.969-.182 35.146-.182h.114a31.6 31.6 0 0 0 9.37-2.057c6.765-2.6 11.357-7.221 13.254-13.346a3.831 3.831 0 1 0-7.313-2.286c-2.857 9.182-14.762 9.986-15.562 10.031-26.76.182-67.482.366-71.206.045a16.286 16.286 0 0 1-10.557-8.41c-2.171-4.616-1.623-10.215 1.691-16.614 2.7-5.233 7.655-7.7 14.762-7.313a10.757 10.757 0 0 0 10.9-7.564c2.264-7.313 7.925-19.584 20.543-19.813h.594c15.059 0 20.109 10.535 21.664 19.424a10.7 10.7 0 0 0 9.483 8.752 31.829 31.829 0 0 1 7.522 1.579 3.838 3.838 0 0 0 2.537-7.244 39.32 39.32 0 0 0-9.278-1.965 3.034 3.034 0 0 1-2.693-2.465 34.158 34.158 0 0 0-8-17.275c-5.37-5.8-12.751-8.66-21.938-8.478a25.408 25.408 0 0 0-19.653 9.667 45.706 45.706 0 0 0-8.089 15.562 3.12 3.12 0 0 1-3.153 2.171c-10.1-.548-17.916 3.522-21.984 11.447-5.535 10.764-4.045 18.67-1.805 23.4a24.027 24.027 0 0 0 16 12.683c.563.11 1.408.296 20.398.296z" class="cls-4" data-name="Path 5376" transform="translate(-89.102 -222.552)"/>
                        </g>
                        <path id="Path_76573" d="M333.212 628.658a3.775 3.775 0 0 1-1.863-7.059q7.187-4.066 14.089-7.94l3.455-1.944a3.773 3.773 0 0 1 3.7 6.577l-3.457 1.945q-6.891 3.874-14.072 7.93a3.758 3.758 0 0 1-1.852.491zm35.054-19.789a3.774 3.774 0 0 1-1.877-7.05c6.662-3.8 12.33-7.108 17.327-10.1a3.774 3.774 0 1 1 3.874 6.478c-5.042 3.014-10.752 6.341-17.457 10.171a3.761 3.761 0 0 1-1.866.501zm34.473-20.779a3.774 3.774 0 0 1-2.072-6.931c6.153-4.029 11.457-7.766 16.213-11.425a3.774 3.774 0 1 1 4.6 5.982c-4.909 3.776-10.365 7.623-16.678 11.757a3.758 3.758 0 0 1-2.062.618zm31.574-24.824a3.774 3.774 0 0 1-2.7-6.415 75.2 75.2 0 0 0 11.723-15.077 3.774 3.774 0 1 1 6.542 3.764 82.638 82.638 0 0 1-12.876 16.595 3.759 3.759 0 0 1-2.689 1.134zm18.959-34.657a3.879 3.879 0 0 1-.55-.039 3.776 3.776 0 0 1-3.19-4.279 48.177 48.177 0 0 0 .5-6.917 56.971 56.971 0 0 0-1.286-11.743 3.774 3.774 0 0 1 7.385-1.56 64.591 64.591 0 0 1 1.448 13.3 55.859 55.859 0 0 1-.579 8.009 3.776 3.776 0 0 1-3.728 3.23zm-7.472-38.916a3.771 3.771 0 0 1-3.259-1.867c-2.522-4.307-7.018-8.354-13.358-12.026a3.773 3.773 0 0 1 3.781-6.531c7.487 4.336 12.9 9.3 16.089 14.745a3.773 3.773 0 0 1-3.253 5.679zm-191.961-14.548h-.1a118.063 118.063 0 0 1-20.628-2.312 3.774 3.774 0 1 1 1.523-7.392 110.418 110.418 0 0 0 19.306 2.16 3.774 3.774 0 0 1-.1 7.547zm20.081-.931a3.774 3.774 0 0 1-.425-7.523 174.764 174.764 0 0 0 19.394-3.385 3.774 3.774 0 1 1 1.7 7.353 182.4 182.4 0 0 1-20.235 3.53 3.941 3.941 0 0 1-.435.025zm138.7-5.849a3.794 3.794 0 0 1-1.155-.181 151.137 151.137 0 0 0-19.058-4.7 3.774 3.774 0 0 1 1.351-7.425A158.59 158.59 0 0 1 413.767 461a3.774 3.774 0 0 1-1.152 7.367zM214.745 466.8a3.748 3.748 0 0 1-1.548-.335 78.018 78.018 0 0 1-17.912-11.106 3.773 3.773 0 1 1 4.831-5.8 70.482 70.482 0 0 0 16.184 10.023 3.775 3.775 0 0 1-1.555 7.215zm98.412-1.3a3.774 3.774 0 0 1-.931-7.431 163.176 163.176 0 0 1 20.243-3.765 3.773 3.773 0 0 1 .926 7.489 155.73 155.73 0 0 0-19.3 3.589 3.809 3.809 0 0 1-.938.111zm59.964-4.5c-.1 0-.195 0-.294-.01-6.542-.506-13.172-.7-19.752-.572a3.774 3.774 0 0 1-.146-7.546c6.814-.131 13.7.069 20.48.592a3.774 3.774 0 0 1-.288 7.536zm-188.589-19.858a3.773 3.773 0 0 1-3.221-1.8 54.627 54.627 0 0 1-7.528-20.1 3.774 3.774 0 1 1 7.457-1.169 47.114 47.114 0 0 0 6.508 17.331 3.775 3.775 0 0 1-3.215 5.745zm-5.5-38.586a3.778 3.778 0 0 1-3.581-4.969 42.478 42.478 0 0 1 11.962-18.234 3.773 3.773 0 1 1 5.067 5.592 35.025 35.025 0 0 0-9.868 15.029 3.779 3.779 0 0 1-3.582 2.582zm28.279-26.491a3.774 3.774 0 0 1-1.189-7.356 76.151 76.151 0 0 1 20.789-3.609 3.774 3.774 0 0 1 .317 7.541 68.576 68.576 0 0 0-18.726 3.23 3.784 3.784 0 0 1-1.193.195zm39.8-5.034a3.774 3.774 0 0 1-.486-7.516c6.312-.828 12.872-1.984 19.5-3.437a3.774 3.774 0 0 1 1.615 7.374c-6.836 1.5-13.611 2.691-20.136 3.546a3.862 3.862 0 0 1-.492.034zm39.312-8.517a3.775 3.775 0 0 1-1.065-7.395c6.165-1.818 12.527-3.911 18.911-6.219a3.773 3.773 0 0 1 2.566 7.1c-6.525 2.36-13.033 4.5-19.341 6.361a3.763 3.763 0 0 1-1.07.154zm37.877-13.636a3.774 3.774 0 0 1-1.467-7.253c5.985-2.519 12.118-5.269 18.231-8.174a3.773 3.773 0 1 1 3.238 6.816c-6.214 2.952-12.453 5.75-18.541 8.313a3.762 3.762 0 0 1-1.461.298zm36.4-17.258a3.774 3.774 0 0 1-1.759-7.116c5.79-3.04 11.688-6.278 17.531-9.623a3.773 3.773 0 1 1 3.748 6.55c-5.922 3.391-11.9 6.672-17.77 9.756a3.767 3.767 0 0 1-1.744.433zm34.957-19.991a3.774 3.774 0 0 1-1.986-6.985c5.595-3.457 11.269-7.088 16.863-10.795a3.773 3.773 0 1 1 4.17 6.289c-5.66 3.752-11.4 7.429-17.068 10.927a3.756 3.756 0 0 1-1.973.564zm33.582-22.248a3.773 3.773 0 0 1-2.184-6.853c5.447-3.857 10.884-7.835 16.164-11.826a3.773 3.773 0 1 1 4.551 6.02c-5.34 4.038-10.843 8.063-16.354 11.965a3.756 3.756 0 0 1-2.171.694zm32.128-24.3A3.774 3.774 0 0 1 459 258.37c5.308-4.294 10.464-8.621 15.322-12.86a3.774 3.774 0 1 1 4.962 5.688c-4.928 4.3-10.157 8.687-15.538 13.04a3.756 3.756 0 0 1-2.373.84zm30.311-26.532a3.774 3.774 0 0 1-2.613-6.5c5.278-5.064 9.94-9.852 13.857-14.231a3.774 3.774 0 1 1 5.626 5.031c-4.045 4.522-8.841 9.45-14.258 14.647a3.768 3.768 0 0 1-2.606 1.05z" class="cls-1" data-name="Path 76573" transform="translate(573.723 497.568)"/>
                        <g id="Group_7317" data-name="Group 7317" transform="translate(1022.247 847.855)">
                            <g id="Group_6706-2" data-name="Group 6706" transform="translate(41.029)">
                                <path id="Path_5374-2" d="M447.127 394.165s69.675.5 71.984 0c8-1.737 21.3-11.723 11.609-30.576-4.387-8.523-12.775-9.686-18.374-9.392a6.928 6.928 0 0 1-7.015-4.868c-2.537-8.176-9.049-22.235-24.132-22.509-17.867-.318-24.269 12.159-26.1 22.579a6.888 6.888 0 0 1-6.079 5.621c-6.581.663-21.047 3.428-21.777 19.4-.935 18.969 19.884 19.745 19.884 19.745z" class="cls-2" data-name="Path 5374" transform="translate(-424.192 -321.858)"/>
                                <path id="Path_5375-2" d="M497.127 331.616a21.184 21.184 0 0 0-14.191-5.6c-17.87-.313-24.269 12.161-26.1 22.58a6.888 6.888 0 0 1-6.083 5.624c-6.581.663-22.784 3.862-23.514 19.835-.892 18.967 21.664 19.309 21.664 19.309s-16.545-7.044-14.67-19.516c2.445-16.362 14.969-10.42 21.047-11.677a15.3 15.3 0 0 0 12.157-13.643c.457-5.165 1.623-10.741 4.41-13.346 8.003-7.561 25.28-3.566 25.28-3.566z" class="cls-3" data-name="Path 5375" transform="translate(-424.192 -322.064)"/>
                                <path id="Path_5376-2" d="M500.124 398.107c-4.594 0-10.26 0-17.253-.045-17.5-.069-34.969-.182-35.146-.182h-.114a31.559 31.559 0 0 1-9.37-2.057c-6.765-2.605-11.357-7.221-13.254-13.346a3.831 3.831 0 0 1 7.313-2.286c2.857 9.182 14.762 9.986 15.562 10.031 26.76.182 67.482.366 71.206.045a16.282 16.282 0 0 0 10.557-8.41c2.171-4.616 1.623-10.215-1.691-16.614-2.7-5.233-7.655-7.7-14.762-7.313a10.754 10.754 0 0 1-10.9-7.564c-2.264-7.313-7.925-19.584-20.543-19.813h-.594c-15.059 0-20.109 10.535-21.664 19.424a10.7 10.7 0 0 1-9.483 8.752 31.889 31.889 0 0 0-7.522 1.579 3.838 3.838 0 0 1-2.537-7.244 39.4 39.4 0 0 1 9.278-1.965 3.033 3.033 0 0 0 2.693-2.465 34.167 34.167 0 0 1 8-17.275c5.37-5.8 12.751-8.66 21.938-8.478a25.411 25.411 0 0 1 19.653 9.667 45.729 45.729 0 0 1 8.089 15.562 3.118 3.118 0 0 0 3.153 2.171c10.1-.548 17.916 3.522 21.984 11.447 5.535 10.764 4.045 18.67 1.8 23.4a24.021 24.021 0 0 1-16 12.683c-.558.112-1.403.296-20.393.296z" class="cls-4" data-name="Path 5376" transform="translate(-424.811 -322.874)"/>
                            </g>
                            <path id="Path_5380" d="M429.4 357.388h-28.289a3.839 3.839 0 0 1 0-7.673H429.4a3.839 3.839 0 0 1 .278 7.673c-.092.004-.184.004-.278 0z" class="cls-5" data-name="Path 5380" transform="translate(-390.848 -315.953)"/>
                            <path id="Path_5381" d="M424.462 368.028h-28.29a3.839 3.839 0 1 1-.278-7.673h28.569a3.839 3.839 0 0 1 0 7.673z" class="cls-4" data-name="Path 5381" transform="translate(-392.193 -313.209)"/>
                        </g>
                        <g id="Group_7318" data-name="Group 7318" transform="translate(1055.821 645.914)">
                            <path id="Path_76574" d="M435.718 196.367l7.118 21.775a2.31 2.31 0 0 0 3.664 1.058l21.26-17.55s-22.592-8.813-22.592-8.332-9.45 3.049-9.45 3.049z" class="cls-6" data-name="Path 76574" transform="translate(-414.544 -154.343)"/>
                            <path id="Path_76575" d="M496.15 162.506c-13.883 5.491-58.7 23.854-75.659 30.813a2.591 2.591 0 0 0 .2 4.867l19.366 6.169 7.1 21.706a2.349 2.349 0 0 0 1.81 1.586c.653.123 1.615-17.577 1.615-17.577s20.358 15.1 30.016 22.229a4.022 4.022 0 0 0 6.34-2.467l12.528-64.57a2.456 2.456 0 0 0-3.316-2.756z" class="cls-2" data-name="Path 76575" transform="translate(-418.885 -162.33)"/>
                            <path id="Path_76576" d="M444.624 224.392c.653.123 1.322-18.469 1.322-18.469l33.74-30.525a.259.259 0 0 0-.309-.411L435.718 201.1l7.1 21.706a2.349 2.349 0 0 0 1.806 1.586z" class="cls-7" data-name="Path 76576" transform="translate(-414.544 -159.076)"/>
                        </g>
                        <g id="Group_7320" data-name="Group 7320" transform="translate(738.361 653.431)">
                            <path id="Path_76580" d="M444.838 310.347c-1.44 36.868-20.6 76.145-45.657 110.574a386.6 386.6 0 0 1-66.713 70.779h-48.246c-96.44-86.384-160.835-193.9-70.676-282.55a127.481 127.481 0 0 1 48.55-30.1c2.033-.694 4.08-1.337 6.146-1.913.56-.169 1.135-.322 1.693-.474.3-.084.624-.169.95-.253q1.217-.306 2.436-.61c.694-.169 1.405-.338 2.1-.491l.253-.052c.981-.22 1.982-.423 2.962-.609a130.29 130.29 0 0 1 17.707-2.252 138.022 138.022 0 0 1 23.074.592 140.569 140.569 0 0 1 17.791 3.064h.018a147.855 147.855 0 0 1 19.619 6.127c.018 0 .034.018.049.018a145.81 145.81 0 0 1 47.774 30.369A132.6 132.6 0 0 1 427.6 241.5a126.59 126.59 0 0 1 17.238 68.847z" class="cls-7" data-name="Path 76580" transform="translate(-165.509 -167.31)"/>
                            <g id="Group_7319" data-name="Group 7319" transform="translate(4.855 7.949)">
                                <path id="Path_76581" d="M399.181 420.286a386.6 386.6 0 0 1-66.713 70.776h-48.246c-96.44-86.381-160.835-193.893-70.675-282.547a127.481 127.481 0 0 1 48.55-30.1 124.35 124.35 0 0 1 13.577-3.792c-33.892 21.228-54.459 80.223-55.1 111.015-2.54 69.406 57.555 127.809 123.575 137.966 18.96 3.015 37.274 1.203 55.032-3.318z" class="cls-6" data-name="Path 76581" transform="translate(-170.364 -174.625)"/>
                            </g>
                            <path id="Path_76582" d="M291.9 489.294l-3.755 1.252c-21.925-21.922-41.644-45.655-62.01-68.272-35.82-39.762-90.024-167 32.756-243.732a126.113 126.113 0 0 1 16.54-4.4c-32.13 25.07-51.138 63.633-56.811 102.177-7.516 51.986 6.263 105.245 31.943 150.966 11.906 21.296 24.437 44.472 41.337 62.009z" class="cls-8" data-name="Path 76582" transform="translate(-162.308 -166.801)"/>
                            <path id="Path_76583" d="M188.792 343.062a4.858 4.858 0 0 1-4.757-3.907c-6.059-30.342-4.141-58.924 5.7-84.955 11.9-31.47 35.208-58.223 69.273-79.514a4.832 4.832 0 0 1 1.011-.479 131.231 131.231 0 0 1 17.177-4.571 4.856 4.856 0 1 1 1.849 9.535 121.562 121.562 0 0 0-15.37 4.053c-74.067 46.546-79.025 109.429-70.119 154.031a4.862 4.862 0 0 1-4.766 5.808z" class="cls-4" data-name="Path 76583" transform="translate(-162.874 -167.985)"/>
                            <path id="Path_76584" d="M283.894 483.446a4.858 4.858 0 0 1-3.435-1.423c-13.98-13.98-27.191-28.831-39.524-42.844a4.855 4.855 0 1 1 7.289-6.416q3.287 3.732 6.654 7.535c-3.741-6.354-7.332-12.791-10.887-19.162l-1.919-3.438c-28.091-50.016-39.638-104.722-32.508-154.03a177.744 177.744 0 0 1 12.3-43.777 4.857 4.857 0 0 1 8.936 3.808 167.964 167.964 0 0 0-11.621 41.371c-6.824 47.19 4.317 99.712 31.372 147.882l1.927 3.453c11.361 20.365 23.107 41.421 38.673 57.565a4.856 4.856 0 0 1-1.961 7.976l-3.756 1.252a4.83 4.83 0 0 1-1.54.248z" class="cls-4" data-name="Path 76584" transform="translate(-155.931 -155.766)"/>
                            <path id="Path_76585" d="M227.2 220.349a4.857 4.857 0 0 1-4.325-7.057c1.493-2.942 3.089-5.864 4.742-8.686a4.856 4.856 0 0 1 8.383 4.908c-1.556 2.655-3.058 5.406-4.465 8.177a4.854 4.854 0 0 1-4.335 2.658z" class="cls-4" data-name="Path 76585" transform="translate(-152.103 -159.565)"/>
                            <path id="Path_76586" d="M246.537 193.768a4.856 4.856 0 0 1-3.548-8.17 142.171 142.171 0 0 1 16.391-15.024 4.856 4.856 0 0 1 5.975 7.657 132.61 132.61 0 0 0-15.268 13.995 4.843 4.843 0 0 1-3.55 1.542z" class="cls-4" data-name="Path 76586" transform="translate(-147.119 -167.985)"/>
                            <path id="Path_76587" d="M325.8 383.122a354.79 354.79 0 0 1-33.535 105.733h-8.3C273.746 466.7 264.08 443.9 257.258 419.84a376.456 376.456 0 0 1-8.517-146.888c5.369-35.4 13.478-69.1 28.322-100.553a138.022 138.022 0 0 1 23.074.592c9.225 20.347 17.825 41.254 24.053 63.228 12.51 47.481 8.432 98.149 1.61 146.903z" class="cls-8" data-name="Path 76587" transform="translate(-146.229 -167.31)"/>
                            <path id="Path_76588" d="M361.808 276.03c-5.567-37.849-23.986-75.686-55.048-100.772a147.861 147.861 0 0 1 19.619 6.127c.018 0 .034.018.049.018 116.4 77.04 63.194 201.361 27.865 240.584-20.382 22.616-40.1 46.35-62.025 68.272l-3.757-1.252c16.912-17.537 29.438-40.713 41.357-62.01 25.679-45.721 39.458-98.98 31.94-150.966" class="cls-8" data-name="Path 76588" transform="translate(-135.043 -166.513)"/>
                            <path id="Path_76589" d="M309.122 423.974v20.642h-48.233v-20.642h48.233" class="cls-5" data-name="Path 76589" transform="translate(-142.166 -102.378)"/>
                            <path id="Path_76590" d="M389.834 414.6a4.856 4.856 0 0 1-4.042-7.541c22.688-34.19 35.269-67.355 36.385-95.907a121.08 121.08 0 0 0-16.577-66.207 127.761 127.761 0 0 0-22.1-27.868 141.826 141.826 0 0 0-46.113-29.33l-.117-.043a143.305 143.305 0 0 0-18.809-5.888c-.067-.014-.133-.028-.2-.044a136.4 136.4 0 0 0-17.177-2.958 133.4 133.4 0 0 0-22.268-.572 126.047 126.047 0 0 0-17.045 2.166c-.972.185-1.921.377-2.85.585l-.229.048c-.7.152-1.376.313-2.033.474l-2.408.6c-.257.067-.551.145-.831.223l-.255.069c-.444.121-.9.243-1.338.376-1.995.557-3.919 1.156-5.976 1.858a4.856 4.856 0 0 1-3.137-9.191c2.233-.762 4.33-1.415 6.41-1.995.431-.131.971-.278 1.5-.42l.225-.062c.3-.084.649-.175 1-.267l2.489-.624c.748-.182 1.5-.361 2.228-.521l.225-.047c1.04-.231 2.093-.445 3.126-.642a135.391 135.391 0 0 1 18.323-2.327 143.315 143.315 0 0 1 23.887.611 146.161 146.161 0 0 1 18.229 3.128c.057.011.114.024.172.038a153.092 153.092 0 0 1 20.189 6.3l.132.049a151.63 151.63 0 0 1 49.371 31.389 137.472 137.472 0 0 1 23.765 29.981 130.675 130.675 0 0 1 17.9 71.465c-1.186 30.36-14.325 65.25-38 100.924a4.851 4.851 0 0 1-4.051 2.17z" class="cls-4" data-name="Path 76590" transform="translate(-147.699 -168.305)"/>
                            <path id="Path_76591" d="M333.462 496.138h-48.245a4.857 4.857 0 0 1-3.24-1.239c-74.194-66.455-114.111-131.722-115.438-188.743-.862-36.995 14.143-70.938 44.6-100.884 7.819-7.681 35.362-28.191 50.979-31.392a4.856 4.856 0 1 1 1.95 9.514c-12.769 2.618-38.942 21.752-46.121 28.805-28.464 27.989-42.493 59.524-41.7 93.731 1.582 67.943 60.805 135.431 110.83 180.5h44.655a383.11 383.11 0 0 0 54.106-55.143 4.855 4.855 0 1 1 7.579 6.072 391.547 391.547 0 0 1-56.9 57.7 4.861 4.861 0 0 1-3.055 1.079z" class="cls-4" data-name="Path 76591" transform="translate(-166.504 -166.894)"/>
                            <path id="Path_76592" d="M293.259 494.706h-8.3a4.858 4.858 0 0 1-4.41-2.821c-9.24-20.026-19.672-43.972-26.974-69.725a382 382 0 0 1-8.654-148.885c6.263-41.294 15.392-73.673 28.74-101.953a4.856 4.856 0 0 1 4.1-2.775 143.429 143.429 0 0 1 23.886.613 4.853 4.853 0 0 1 3.9 2.821c7.688 16.957 17.4 39.545 24.3 63.909 5.369 20.37 8.06 42.186 8.258 66.786a4.857 4.857 0 0 1-4.816 4.894h-.042a4.856 4.856 0 0 1-4.854-4.818c-.19-23.779-2.779-44.811-7.913-64.3-6.368-22.468-15.28-43.58-22.626-59.907a134.231 134.231 0 0 0-16.639-.44c-12.272 26.789-20.772 57.577-26.687 96.572a372.064 372.064 0 0 0 8.42 144.923c6.758 23.835 16.377 46.3 25.127 65.395h2.17a349.764 349.764 0 0 0 24-64.319 4.856 4.856 0 1 1 9.39 2.484 359.557 359.557 0 0 1-26.035 68.864 4.857 4.857 0 0 1-4.341 2.682z" class="cls-4" data-name="Path 76592" transform="translate(-147.223 -168.305)"/>
                            <path id="Path_76593" d="M392.044 341.071a4.865 4.865 0 0 1-4.781-5.742c7.81-42.137 2.965-101.623-63.67-147.14a153.087 153.087 0 0 1 12.813 16.423 4.857 4.857 0 1 1-8.044 5.444 137.591 137.591 0 0 0-27.4-30.025 4.855 4.855 0 0 1 4.166-8.5 153.092 153.092 0 0 1 20.189 6.3 4.886 4.886 0 0 1 1.044.523c31.567 20.893 53.27 46.782 64.5 76.95 9.352 25.112 11.353 52.633 5.947 81.8a4.859 4.859 0 0 1-4.764 3.967z" class="cls-4" data-name="Path 76593" transform="translate(-132.298 -167.508)"/>
                            <path id="Path_76594" d="M293.265 475.452a4.846 4.846 0 0 1-1.536-.249l-3.757-1.252a4.857 4.857 0 0 1-1.961-7.979c15.535-16.108 27.269-37.118 38.618-57.436l2-3.574c27.057-48.176 38.2-100.7 31.371-147.9a4.857 4.857 0 0 1 9.614-1.391c7.128 49.309-4.416 104.015-32.513 154.04l-1.99 3.558c-10.6 18.971-21.518 38.527-35.751 54.712a4.856 4.856 0 0 1-4.092 7.469z" class="cls-4" data-name="Path 76594" transform="translate(-136.039 -146.85)"/>
                        </g>
                        <g id="Group_7322" data-name="Group 7322" transform="translate(723.84 1062.609)">
                            <path id="Path_76595" d="M226.654 514.422s22.025 2.439 24.636 3.682-6.47-21.2-6.47-21.2l-19.964 5.457z" class="cls-7" data-name="Path 76595" transform="translate(-136.935 -492.751)"/>
                            <path id="Path_76596" d="M229.7 509.163c-3.738.972-7.424 2.137-11.128 3.229-2.725.8-1.977 4.972.9 4.391 3.774-.764 7.565-1.452 11.312-2.333 3.381-.8 2.281-6.162-1.082-5.287z" class="cls-4" data-name="Path 76596" transform="translate(-138.992 -489.615)"/>
                            <path id="Path_76597" d="M251.351 509.534c-.972-.253-1.956-.449-2.937-.662a3.132 3.132 0 0 0-2.2.145 2.921 2.921 0 0 0-1.45 1.654c-.394 1.356.225 3.3 1.8 3.645.981.213 1.965.409 2.936.663a2.875 2.875 0 0 0 1.848-5.445z" class="cls-4" data-name="Path 76597" transform="translate(-131.83 -489.698)"/>
                            <path id="Path_76598" d="M294.929 521.927q-20.16-6.034-40.507-11.425c-3.516-.927-5.375 4.419-1.828 5.387 13.533 3.7 27.06 7.424 40.516 11.4 3.483 1.029 5.319-4.313 1.819-5.36z" class="cls-4" data-name="Path 76598" transform="translate(-130.275 -489.273)"/>
                            <path id="Path_76599" d="M248.03 515.813c.179 2.425 3.348 2.986 5.255 2.61 2.829-.558 1.938-4.951-.9-4.391-.156.034-.312.062-.47.082-.267.041-.313.045-.138.011a3.952 3.952 0 0 1-.475-.031q.287.076-.185-.028a4.142 4.142 0 0 0-1.974.058 1.493 1.493 0 0 0-1.114 1.689z" class="cls-4" data-name="Path 76599" transform="translate(-130.961 -488.35)"/>
                            <path id="Path_76600" d="M293.838 525.268c-12.478-5.8-26.423-8.253-39.611-12.082-3.543-1.029-5.41 4.423-1.847 5.444 13.182 3.779 27.189 8.574 40.859 9.706 1.894.157 2.118-2.361.6-3.068z" class="cls-4" data-name="Path 76600" transform="translate(-130.332 -488.586)"/>
                            <path id="Path_76601" d="M255.814 514.961c-3.28-3.108-8.652-3.462-12.927-4.43-4.657-1.054-10.641-2.645-15.274-1.175-2.088.662-2.785 3.887-.291 4.629 5.072 1.509 10.9 1.234 16.153 2.351 3.891.826 8.155 2.075 11.956.525a1.23 1.23 0 0 0 .382-1.9z" class="cls-4" data-name="Path 76601" transform="translate(-136.71 -489.694)"/>
                            <path id="Path_76602" d="M238.506 523.346l1.229-7.024-1.545 2.329c2.5-1.246 6.431-2.472 6.937-5.563a1.812 1.812 0 0 0-.824-1.672c-2.626-1.323-6.634.82-8.867 2.45-1.411 1.03-1.409 3.136-1.667 4.741l-.709 4.421c-.558 3.475 4.849 3.73 5.445.317z" class="cls-4" data-name="Path 76602" transform="translate(-134.83 -489.116)"/>
                            <path id="Path_76603" d="M230.62 514.715a34.341 34.341 0 0 1-3.977-11.563l-1.516 3.1c3.479-1.257 7.638-1.831 11.218-2.821s7.531-3 11.132-3.619l-3.7-2.445a226.765 226.765 0 0 0 8.03 23.1c1.668 3.916 7.6.977 5.922-2.922a225.091 225.091 0 0 1-7.805-21.438 3.221 3.221 0 0 0-3.7-2.444c-4.145.75-8.639 3.075-12.7 4.37-3.557 1.133-7.429 1.789-10.884 3.158a2.869 2.869 0 0 0-1.516 3.1c.63 4.907 3.805 8.055 6.12 12.1 1.2 2.1 4.594.443 3.385-1.67z" class="cls-4" data-name="Path 76603" transform="translate(-137.907 -493.603)"/>
                            <g id="Group_7321" data-name="Group 7321" transform="translate(0 1.643)">
                                <path id="Path_76604" d="M307.352 572.213c1.884 6.184 3.907 10.708 8.055 15.829a3.052 3.052 0 0 0 4.769-.283c3.441-4.3 7.306-7.35 11.518-10.775 2-1.621 4.865-3.56 4.877-6.43.01-2.707-3.419-6.782-4.5-9.258-1.919-4.409-3.372-8.951-5.589-13.235-1.932-3.732-7.858-.794-5.843 2.883a231.581 231.581 0 0 1 10.167 21.179l.211-3.065c-1.833 3.341-6.444 5.449-9.221 7.947a50.46 50.46 0 0 0-6.611 7.372l4.767-.283c-3.4-3.94-7.653-8.218-10.365-12.648-.65-1.063-2.667-.629-2.24.767z" class="cls-4" data-name="Path 76604" transform="translate(-115.678 -481.649)"/>
                                <path id="Path_76605" d="M297.544 527.277s15.65 1.67 17.908 6.916-5.208 42.461-5.208 42.461l8.191 13.2-8.269 26.37s-2.367 8.126-8.97 9.346-9.658-.869-9.658-.869l17.514-82.875z" class="cls-9" data-name="Path 76605" transform="translate(-119.74 -486.562)"/>
                                <path id="Path_76606" d="M309.958 532.509s17.351 3.333 20.186 11.1c1.273 3.487-10.933 84.748-20.108 86.33s-100.273-23.9-104.205-27.872 2.126-68.8 6.518-76.361 13.031-14.989 22.6-13.357 75.009 20.16 75.009 20.16z" class="cls-9" data-name="Path 76606" transform="translate(-142.168 -490.469)"/>
                                <path id="Path_76607" d="M293.266 526.3s-5.95 59.474-14.434 68.918-7.878 24.226-52.8 12.346a57.141 57.141 0 0 1-5.714-1.894s31.977 10.955 57.984 16.1c11.806 2.337 22.981 8.755 29.521 4.889 2.971-1.757 3.415-5.958 5.284-13.07 11.145-42.413 11.756-74.055 11.756-74.055s-11.438-9.619-31.597-13.234z" class="cls-10" data-name="Path 76607" transform="translate(-138.106 -486.813)"/>
                                <path id="Path_76608" d="M319.7 548.981l-5.141-.57-5.221 19.057 1.24 5.555 5.992 9.478 9.976-8.461 4.945-3.767-8.9-20.6z" class="cls-7" data-name="Path 76608" transform="translate(-115.15 -481.112)"/>
                                <path id="Path_76609" d="M325.261 528.807L313.4 533.3l-1.317 3.881s4.5 7.826 2.246 14.469c0 0 16.852 3.077 17.049 3.143s-6.117-25.986-6.117-25.986z" class="cls-5" data-name="Path 76609" transform="translate(-114.444 -486.168)"/>
                                <path id="Path_76610" d="M297.544 527.277s15.65 1.67 17.908 6.916-5.208 42.461-5.208 42.461l8.191 13.2-8.269 26.37s-2.367 8.126-8.97 9.346-9.658-.869-9.658-.869l17.049-82.264z" class="cls-10" data-name="Path 76610" transform="translate(-119.74 -486.562)"/>
                                <path id="Path_76611" d="M224.163 512.061c-14.164.982-16.249 20.9-17.335 31.839-.916 9.239-2.535 18.311-4.049 27.464-1.244 7.527-4.643 18.885-1.008 25.962a2.448 2.448 0 0 0 4.458-.293c2.519-6.05 1.662-14.146 2.611-20.673 1.067-7.319 2.5-14.58 3.527-21.906.991-7.054 1.135-14.241 2.42-21.252 1.078-5.872 4.112-15.19 9.975-18.181 1.275-.65 1.043-3.075-.6-2.961z" class="cls-4" data-name="Path 76611" transform="translate(-143.309 -490.487)"/>
                                <path id="Path_76612" d="M321.216 532.287a292.639 292.639 0 0 0-30.675-11.538c-3.508-1.1-5.361 4.331-1.838 5.416a292.493 292.493 0 0 1 30.732 11.371c3.274 1.428 5.018-3.816 1.781-5.249z" class="cls-4" data-name="Path 76612" transform="translate(-120.96 -488.283)"/>
                                <path id="Path_76613" d="M286.426 616.609c9.382.663 20.035 1.313 24.824-8.194 5.177-10.277 8.073-21.575 10.9-32.669.815-3.194-4.111-4.847-4.858-1.648-2.311 9.9-4.74 19.908-8.445 29.4-1.194 3.06-2.236 6.4-5.273 8.075-4.809 2.659-11.981 2.527-17.263 3.486a.785.785 0 0 0 .112 1.546z" class="cls-4" data-name="Path 76613" transform="translate(-121.244 -474.934)"/>
                                <path id="Path_76614" d="M250.718 520.61c1.759-5.335 2.049-11.635 5.209-16.423 4.185-6.34 15.858-3.484 21.969-1.969 5.462 1.353 11.585 2.821 16.4 5.882 7.161 4.555 2.494 17.45 1.795 24.522-.32 3.24 4.969 4.4 5.736 1.118 1.275-5.447 1.707-11.152 2.286-16.711.462-4.435-.379-8.284-3.672-11.536-5.418-5.352-15.5-7.489-22.677-8.971-7.37-1.522-18.133-3.613-24.006 2.506-5.19 5.406-5.386 13.926-6.132 20.977-.19 1.8 2.54 2.3 3.1.6z" class="cls-4" data-name="Path 76614" transform="translate(-131.068 -494.909)"/>
                                <path id="Path_76615" d="M254.376 520.712c.943-3.634 1.755-7.418 2.909-10.986 2.567-7.937 12.279-4.434 18.489-3.1 5.163 1.112 12.763 1.765 15.3 6.781 2.392 4.73-.157 11.991-.683 17.248-.325 3.245 4.943 4.39 5.736 1.118 1.449-5.98 4.319-16.6.691-22.05-4.252-6.386-14.4-7.429-21.231-8.786-6.258-1.245-15.317-4.155-20.165 1.5-3.882 4.528-3.818 11.906-4.718 17.556-.333 2.087 3.137 2.771 3.67.716z" class="cls-4" data-name="Path 76615" transform="translate(-130.275 -493.833)"/>
                                <path id="Path_76616" d="M283.414 525.1a4.383 4.383 0 0 0 4.006 3.442c1.825.172 4.506-.473 4.6-2.7a2.252 2.252 0 0 0-2.052-2.3c-.881-.165-1.7.48-2.282.479a11.546 11.546 0 0 1-2.258-.689 1.564 1.564 0 0 0-2.011 1.775z" class="cls-4" data-name="Path 76616" transform="translate(-121.843 -487.597)"/>
                                <path id="Path_76617" d="M237.894 510.418c-4.735.486-8.616.472-9.523 5.328-1.337 7.172-2.484 14.391-4.04 21.527a2.661 2.661 0 0 0 .984 2.929c2.877 1.956 6.36 2.482 9.753 2.608a2.7 2.7 0 0 0 2.771-2.465l.985-5.6c.59-3.352-4.787-3.7-5.328-.31l-.893 5.6 2.77-2.465c-2.454-.052-5.082-.206-7.195-1.594l.982 2.93c1-4.972 1.811-9.975 2.654-14.976.377-2.243.331-5.519 1.214-7.566.668-1.543-1.431 1.145.77-1.145.894-.93 3.759-2 4.826-2.677a1.14 1.14 0 0 0-.73-2.13z" class="cls-4" data-name="Path 76617" transform="translate(-137.094 -490.911)"/>
                                <path id="Path_76618" d="M293.771 524.872c-1.531.234-5.233 1.406-6.42 1.272a2.146 2.146 0 0 0-1.943.958c-1.548 2.7-1.658 6.182-2.238 9.22-.995 5.214-1.862 10.447-2.989 15.635a2.647 2.647 0 0 0 1.589 3.22 23.339 23.339 0 0 0 9.572 1.836 2.642 2.642 0 0 0 2.619-1.766l3.849-17.209c.315-1.408.79-2.863.96-4.294.1-.872 1.035-2.526-.147-1.179-1.434 1.633 2.835-.711 3.455-1.156a4.059 4.059 0 0 0 1.981-2.291 1.937 1.937 0 0 0-.728-2.167c-2.109-1.258-6.024.03-7.865 1.385-1.908 1.405-1.872 3.313-2.338 5.555l-4.1 19.682 2.62-1.765a19.692 19.692 0 0 1-8.244-1.44l1.589 3.22c.806-3.995 1.5-8.005 2.172-12.024.659-3.955.648-8.848 2.138-12.526l-2.2 1.485c2.692-.062 5.1-2.288 7.4-3.523a1.14 1.14 0 0 0-.73-2.13z" class="cls-4" data-name="Path 76618" transform="translate(-122.692 -487.186)"/>
                                <path id="Path_76619" d="M298.007 523.383a11.408 11.408 0 0 0-6.269.044 21.365 21.365 0 0 0-6.2 2.187c-2.521 1.58-1.521 6.01 1.8 5.245 2-.46 3.869-1.419 5.84-2a17.711 17.711 0 0 0 5.449-2.34 1.856 1.856 0 0 0-.618-3.14z" class="cls-4" data-name="Path 76619" transform="translate(-121.653 -487.675)"/>
                                <path id="Path_76620" d="M293.778 532.363c2.146-.948 5.513-2.665 7.7-2.262 1.571.291 3.185 1.429 4.653 2.026 2.317.943 6.746 3.589 9.187 2.078a2.869 2.869 0 0 0 1.265-3.731c-1.381-3.147-8.268-4.19-11.23-4.767-1.5-.293-3.25-.824-4.785-.5-2.907.619-5.863 3.328-8.179 5.058-1.195.893.126 2.654 1.392 2.094z" class="cls-4" data-name="Path 76620" transform="translate(-119.643 -487.121)"/>
                                <path id="Path_76621" d="M308.659 536.176a18.488 18.488 0 0 0 9.065-.663c2.039-.7 5.506-3.709 7.6-2.971 1.669.589 3.2 10.468 3.531 12.5.6 3.713 1.175 7.63 1.48 11.365l3.014-3.482c-6.873-.474-13.221-3.1-20.219-1.721-2.779.55-2.312 4.455.345 4.782 3.463.426 6.94.3 10.4.887 3.088.521 6.015 1.557 9.141 1.85 2.05.192 3.16-1.707 3.014-3.482a87.179 87.179 0 0 0-2.345-15.176c-.927-3.447-2.171-10.034-4.7-12.542-1.825-1.811-3.971-1-6.156-.131-4.933 1.958-9.2 4.218-14.395 5.637a1.6 1.6 0 0 0 .228 3.15z" class="cls-4" data-name="Path 76621" transform="translate(-115.702 -486.779)"/>
                                <path id="Path_76622" d="M251.457 602.326a3.022 3.022 0 0 1-.6-.058 193.005 193.005 0 0 1-23.075-5.953c-11.945-4.053-17.933-8.309-18.311-13.015-.716-8.945 6.5-44.392 7.331-48.405a3.142 3.142 0 0 1 3.713-2.445 3.16 3.16 0 0 1 2.447 3.713c-2.926 14.317-7.735 40.225-7.221 46.636.24 3 15.82 9.327 36.312 13.294a3.145 3.145 0 0 1-.6 6.233z" class="cls-4" data-name="Path 76622" transform="translate(-140.914 -485.245)"/>
                                <path id="Path_76623" d="M299.708 628.927c5.258-4.172 6.488-11.723 8.351-17.806 1.764-5.759 3.47-11.526 5.042-17.341 3.175-11.742 5.73-23.674 8.133-35.6 1.418-7.029 4.652-16.967-1.589-22.523-2.777-2.473-6.8-4.176-10.07-5.836-6.044-3.071-12.457-6.184-19.125-7.574-4.2-.874-6.516 5.048-2.206 6.506a135.77 135.77 0 0 1 17.342 6.947c2.806 1.4 7.552 3 9.7 5.4 3.426 3.842-.7 16.443-1.517 20.9-4.1 22.24-8.745 44.231-15.922 65.669a1.174 1.174 0 0 0 1.865 1.254z" class="cls-4" data-name="Path 76623" transform="translate(-121.184 -487.881)"/>
                                <path id="Path_76624" d="M312.766 631.48c3.233-2.99 4.209-8.894 5.286-12.917 2.155-8.059 3.838-16.249 5.454-24.43 2.9-14.644 6.123-29.553 7.633-44.423.574-5.647-1.687-9.268-6.667-12.1a98.235 98.235 0 0 0-20.746-8.561c-16.786-4.925-33.875-8.9-50.875-13.016-9.8-2.371-31.6-10.19-38.75.837-.543.836.623 1.548 1.244.844 4.679-5.3 12.664-2.945 18.431-1.043 5.677 1.873 11.488 3.177 17.3 4.586 15.165 3.674 30.342 7.351 45.389 11.489a108.644 108.644 0 0 1 14.5 4.745c5.453 2.36 15.323 4.375 14.716 11.656-1.06 12.731-3.96 25.576-6.317 38.111-1.642 8.731-3.377 17.458-5.5 26.088-.907 3.683-1.977 11.672-4.595 14.1-2.517 2.336.972 6.366 3.5 4.03z" class="cls-4" data-name="Path 76624" transform="translate(-139.745 -490.726)"/>
                                <path id="Path_5381-2" d="M187.228 591.922h-28.29a3.839 3.839 0 1 1-.278-7.673h28.569a3.839 3.839 0 0 1 0 7.673z" class="cls-4" data-name="Path 5381" transform="translate(-154.959 -471.872)"/>
                                <path id="Path_5383" d="M196.169 580.136h-28.29a3.839 3.839 0 0 1 0-7.673h28.291a3.839 3.839 0 0 1 0 7.673z" class="cls-5" data-name="Path 5383" transform="translate(-152.582 -474.91)"/>
                                <path id="Path_76625" d="M313.895 610.561c-16.7-2.981-33.038-6.912-49.441-11.408-10.691-2.931-21.365-5.936-31.985-9.116-9.218-2.76-21.268-5.059-25.99-14.019-1.074-2.038-4.48-2.087-5.165.34-3.156 11.2 14.962 15.931 22.991 18.43 11.86 3.693 23.843 7.015 35.82 10.3 9.04 2.479 18.128 4.74 27.2 7.087 6.83 1.766 22.342 7.5 27.771.825.836-1.029-.157-2.252-1.2-2.438z" class="cls-4" data-name="Path 76625" transform="translate(-143.1 -474.382)"/>
                            </g>
                        </g>
                        <ellipse id="Ellipse_177" cx="144.261" cy="20.836" class="cls-9" data-name="Ellipse 177" rx="144.261" ry="20.836" transform="translate(741.301 1236.627)"/>
                        <path id="Path_76626" d="M379.164 644.33c7.228 2.128 11.284 4.522 11.284 7.054 0 8.86-49.737 16.044-111.093 16.044s-111.092-7.184-111.092-16.044S218 635.339 279.356 635.339q2.489 0 4.95.015" class="cls-10" data-name="Path 76626" transform="translate(572.312 605.555)"/>
                        <path id="Path_76628" d="M459.9 656.914a3.774 3.774 0 0 1-3.771-3.639c-.336-.575-4.653-6.442-41.809-11.526-26.733-3.657-61.78-5.672-98.682-5.672s-71.947 2.015-98.681 5.672c-37.157 5.084-41.473 10.951-41.81 11.526a3.774 3.774 0 0 1-7.545-.135c0-5.54 5.171-12.645 45.488-18.468 27.42-3.96 63.839-6.142 102.547-6.142s75.127 2.182 102.548 6.142c40.317 5.823 45.487 12.928 45.487 18.468a3.773 3.773 0 0 1-3.772 3.774zm-3.774-3.774zm-280.976 0z" class="cls-1" data-name="Path 76628" transform="translate(572.143 603.8)"/>
                        <path id="Path_76629" d="M315.642 673.477c-38.708 0-75.127-2.181-102.547-6.142-40.317-5.821-45.488-12.927-45.488-18.467a3.774 3.774 0 0 1 7.545-.136c.337.575 4.653 6.443 41.81 11.527 26.733 3.657 61.779 5.67 98.681 5.67 22.253 0 43.584-.714 63.4-2.123a3.773 3.773 0 0 1 .536 7.527c-19.995 1.424-41.505 2.144-63.937 2.144z" class="cls-1" data-name="Path 76629" transform="translate(572.143 608.07)"/>
                    </g>
                </g>
                <g id="Group_9094" data-name="Group 9094">
                    <path id="Path_76578" d="M444.9 218.8l-3.486-.491 2.92-20.712 13.619 9.2-1.97 2.919-8.949-6.042z" class="cls-1" data-name="Path 76578" transform="translate(642.746 492.678)"/>
                    <path id="Path_76579" d="M447.819 206.351a1.761 1.761 0 0 1-1.19-3.059l19.726-18.077-29.387 17.205a1.761 1.761 0 0 1-1.779-3.039l43.658-25.56a1.76 1.76 0 0 1 2.078 2.818l-31.918 29.249a1.753 1.753 0 0 1-1.188.463z" class="cls-1" data-name="Path 76579" transform="translate(640.916 486.485)"/>
                </g>
            </g>
        </g>
        <path id="Path_76627" d="M260.517 635.351c41.722.264 77.468 3.852 94.859 8.976" class="cls-10" data-name="Path 76627" transform="translate(399.1 615.559)"/>
    </g>
</svg>
