<svg xmlns="http://www.w3.org/2000/svg" width="32" height="32" viewBox="0 0 32 32">
    <g id="prefix__Group_7825" data-name="Group 7825" transform="translate(-357 72)">
        <path id="prefix__icon_call" fill="#fff" d="M12.65 25.3A12.65 12.65 0 0 1 3.705 3.705a12.65 12.65 0 1 1 17.89 17.89A12.568 12.568 0 0 1 12.65 25.3zM5.92 3.877a1.571 1.571 0 0 0-1.11.508c-.216.212-.436.434-.629.63-.3.3-.611.616-.93.921a2.539 2.539 0 0 0-.792 1.709 7.292 7.292 0 0 0 .558 3.11 18.653 18.653 0 0 0 3.361 5.6 20.92 20.92 0 0 0 6.881 5.379 9.914 9.914 0 0 0 3.812 1.109c.08 0 .16.007.238.007a2.733 2.733 0 0 0 2.155-.916c.28-.317.591-.618.893-.91l.005-.005c.171-.166.348-.337.52-.511a1.479 1.479 0 0 0 .009-2.26q-.618-.618-1.24-1.236l-.067-.067q-.593-.589-1.187-1.182a1.589 1.589 0 0 0-1.112-.507 1.568 1.568 0 0 0-1.106.507l-.463.461-.055.055c-.321.319-.686.682-1.033 1.034a.358.358 0 0 1-.249.133.345.345 0 0 1-.177-.058c-.135-.074-.276-.144-.413-.212-.2-.1-.412-.2-.6-.322A16.139 16.139 0 0 1 9.3 13.315a9.048 9.048 0 0 1-1.4-2.234.319.319 0 0 1 .076-.409c.481-.465.962-.954 1.428-1.426l.016-.016.091-.092a1.478 1.478 0 0 0-.009-2.277c-.387-.386-.8-.8-1.217-1.226l-.452-.453-.024-.024c-.256-.257-.52-.523-.784-.782a1.593 1.593 0 0 0-1.105-.499zm7.935 3.087l-.162 1.164a3.984 3.984 0 0 1 2.286 1.14 4.056 4.056 0 0 1 1.116 2.166l1.158-.2a5.205 5.205 0 0 0-4.4-4.272zm.827-3.522l-.162 1.164a7.463 7.463 0 0 1 6.313 6.114l1.157-.2a8.636 8.636 0 0 0-2.406-4.638 8.525 8.525 0 0 0-4.9-2.442z" data-name="icon call" transform="translate(360 -69)"/>
        <path id="prefix__Rectangle_3595" fill="none" d="M0 0H32V32H0z" data-name="Rectangle 3595" transform="translate(357 -72)"/>
    </g>
</svg>
