<svg xmlns="http://www.w3.org/2000/svg" id="prefix__group" width="36.156" height="22.957" viewBox="0 0 36.156 22.957">
    <g id="prefix__Group_8616" data-name="Group 8616">
        <path id="prefix__Path_76960" fill="#0cc" d="M31.27 102.352a4.128 4.128 0 1 0-4.736 0 7.152 7.152 0 0 0-2.44 1.431 9.255 9.255 0 0 0-3.348-1.824 5.23 5.23 0 1 0-5.408 0 9.332 9.332 0 0 0-3.312 1.8 7.21 7.21 0 0 0-2.411-1.4 4.128 4.128 0 1 0-4.736 0A7.246 7.246 0 0 0 0 109.205v.472a.031.031 0 0 0 .029.029h8.749a9.622 9.622 0 0 0-.079 1.209v.486a3.8 3.8 0 0 0 3.806 3.806h11.089A3.8 3.8 0 0 0 27.4 111.4v-.486a9.622 9.622 0 0 0-.079-1.209h8.807a.031.031 0 0 0 .029-.029v-.472a7.274 7.274 0 0 0-4.887-6.852zm-5.351-3.384a2.983 2.983 0 1 1 3.04 2.983h-.114a2.979 2.979 0 0 1-2.926-2.983zM13.943 97.48a4.085 4.085 0 1 1 4.321 4.078h-.472a4.091 4.091 0 0 1-3.849-4.078zm-9.7 1.488a2.983 2.983 0 1 1 3.04 2.983h-.115a2.984 2.984 0 0 1-2.926-2.983zm4.736 9.586h-7.82a6.113 6.113 0 0 1 6.024-5.454h.086a6.049 6.049 0 0 1 3.9 1.452 9.393 9.393 0 0 0-2.191 4.002zm17.262 2.846a2.665 2.665 0 0 1-2.661 2.661H12.491A2.665 2.665 0 0 1 9.83 111.4v-.486a8.218 8.218 0 0 1 7.962-8.206c.079.007.165.007.243.007s.165 0 .243-.007a8.218 8.218 0 0 1 7.962 8.206zm.851-2.847a9.368 9.368 0 0 0-2.168-3.978 6.078 6.078 0 0 1 3.935-1.481h.086a6.113 6.113 0 0 1 6.024 5.459z" data-name="Path 76960" transform="translate(0 -92.25)"/>
    </g>
</svg>
