<svg xmlns="http://www.w3.org/2000/svg" width="32" height="32" viewBox="0 0 32 32">
    <g id="prefix__icon_masages" data-name="icon masages" transform="translate(15859 21104)">
        <path id="prefix__Path_76757" fill="#fff" d="M225.842 404.112h-20.977a3.981 3.981 0 0 0-3.977 3.977v12.834a3.982 3.982 0 0 0 3.963 3.977v5.824l8.37-5.824h12.621a3.98 3.98 0 0 0 3.977-3.977v-12.834a3.98 3.98 0 0 0-3.977-3.977zm-16.508 11.579a1.674 1.674 0 1 1 1.674-1.674 1.674 1.674 0 0 1-1.674 1.674zm6.017 0a1.674 1.674 0 1 1 1.674-1.674 1.674 1.674 0 0 1-1.674 1.674zm6.017 0a1.674 1.674 0 1 1 1.674-1.674 1.674 1.674 0 0 1-1.674 1.674z" data-name="Path 76757" transform="translate(-16057.888 -21506.111)"/>
        <g id="prefix__icon_-list" data-name="icon -list" transform="translate(4037 2058)">
            <g id="prefix__Group_7839" data-name="Group 7839" transform="translate(376.999 85)">
                <path id="prefix__Rectangle_3594" fill="none" d="M0 0H32V32H0z" data-name="Rectangle 3594" transform="translate(-20273 -23247)"/>
            </g>
        </g>
    </g>
</svg>
