<svg xmlns="http://www.w3.org/2000/svg" width="22" height="22" viewBox="0 0 22 22">
    <g id="prefix__icon-_locatoin" data-name="icon- locatoin">
        <path id="prefix__Rectangle_14" fill="none" d="M0 0H22V22H0z" data-name="Rectangle 14"/>
        <g id="prefix__icon-_location" data-name="icon- location">
            <g id="prefix__Group_7" data-name="Group 7">
                <path id="prefix__Path_20" fill="#c39" d="M20.2 0a7.306 7.306 0 0 0-7.3 7.3 7.408 7.408 0 0 0 .628 2.98 46.986 46.986 0 0 0 6.345 9.386.4.4 0 0 0 .608 0 45.816 45.816 0 0 0 6.345-9.406 7.083 7.083 0 0 0 .628-2.98A7.254 7.254 0 0 0 20.2 0zm0 11.089A3.791 3.791 0 1 1 23.968 7.3a3.8 3.8 0 0 1-3.768 3.789z" data-name="Path 20"/>
            </g>
        </g>
    </g>
</svg>
