<svg xmlns="http://www.w3.org/2000/svg" id="prefix__Group_7923" width="530" height="96.553" data-name="Group 7923" viewBox="0 0 530 96.553">
    <defs>
        <style>
            .prefix__cls-1{fill:#0cc}
        </style>
    </defs>
    <path id="prefix__Path_5145" d="M223.142 264.33a1.171 1.171 0 0 0 .027.135v-.081c0-.027 0-.027-.027-.054z" class="prefix__cls-1" data-name="Path 5145" transform="translate(67.817 -226.558)"/>
    <rect id="prefix__Rectangle_3207" width="17.73" height="17.73" class="prefix__cls-1" data-name="Rectangle 3207" rx="8.865" transform="translate(494.067 78.822)"/>
    <rect id="prefix__Rectangle_3208" width="17.73" height="17.73" class="prefix__cls-1" data-name="Rectangle 3208" rx="8.865" transform="translate(476.339 78.822)"/>
    <rect id="prefix__Rectangle_3209" width="17.73" height="17.73" class="prefix__cls-1" data-name="Rectangle 3209" rx="8.865" transform="translate(458.607 78.822)"/>
    <rect id="prefix__Rectangle_3210" width="17.73" height="17.73" class="prefix__cls-1" data-name="Rectangle 3210" rx="8.865" transform="translate(90.005)"/>
    <path id="prefix__Path_5146" d="M187.29 309.907c.642.192 13.283 0 13.283 0 .127 9.125 5.572 29.875 31.194 31.164-.005-25.046-.016-51.118-.068-54.883-.317-23.25-21.108-31.113-32.6-31.135-8.86-.014-29.729 7.882-29.729 29.8 0 21.053 12.392 23.38 17.92 25.054zm5.469-44.258s8.258 1.828 7.931 19.393l.011 19.074h-8.345c-13.922 0-19.174-11.037-19.174-18.892-.001-7.367 4.65-19.575 19.576-19.575z" class="prefix__cls-1" data-name="Path 5146" transform="translate(-20.158 -250.288)"/>
    <path id="prefix__Path_5147" d="M261.058 255.421c-2.17-.087-3.814-.347-5.8-.363a26.041 26.041 0 0 0-25.848 23.009c-.274 2.115.1 5.989.13 8.348.087 6.888-5.577 15.6-15.6 15.6-7.446 0-15.617-6.208-15.617-15.5a13.985 13.985 0 0 0-.019-1.728c.016-8.857-7.879-29.729-29.8-29.729-21.048 0-23.377 12.394-25.049 17.922-.2.642 0 13.28 0 13.28-8.789.122-28.665 6.6-31.116 31.045l-.051 29.529h5.788V317.46c23.136-.008 45.62-.019 49.1-.065 16.075-.219 24.789-10.225 28.646-20.176.515-1.192.756-1.937.756-1.937 2.817 11.82 16.067 22.365 31.221 22.365 26.338 0 33.258-18.5 33.258-18.5s.005-17.657.07-28.337l-.069-15.389zm-92.741 30.961l-19.076.014v-8.348c0-13.922 11.04-19.174 18.892-19.174 7.373 0 19.577 4.65 19.577 19.577-.002 0-1.828 8.261-19.393 7.931z" class="prefix__cls-1" data-name="Path 5147" transform="translate(-112.283 -250.287)"/>
    <path id="prefix__Path_5163" fill="#0cc" d="M223.169 264.384v.081a1.171 1.171 0 0 1-.027-.135c.027.027.027.027.027.054z" data-name="Path 5163" opacity="0.39" transform="translate(67.817 -226.558)"/>
    <path id="prefix__Path_5162" d="M257.539 280.475l-.39-25.357c-22.234-1.178-32 14.973-31.614 25.246.076 1.977.821 5.688.414 7.936a14.932 14.932 0 0 1-6.284 10.861 15.76 15.76 0 0 1-9.344 2.979c-5.444 0-9.074-2.058-11.457-4.713a15.932 15.932 0 0 1-2.709-4.361 22.545 22.545 0 0 1-1.056-3.142c-.406-1.49-.569-2.546-.65-2.844a23.04 23.04 0 0 0 .108 2.384 31.232 31.232 0 0 0 31.094 28.386c.352 0 .7 0 1.029-.027.379 0 .758 0 1.138-.027 1.138-.081 2.248-.19 3.3-.325h.027a34.9 34.9 0 0 0 19.366-9.128.718.718 0 0 0 .135-.162 33.576 33.576 0 0 0 5.525-6.717 20.048 20.048 0 0 0 1.273-2.194s6.257 14.139 20.91 17.714a28.263 28.263 0 0 0 7.123.813c16.251-.108 111.267-.027 119.257-.135a30.086 30.086 0 0 0 18.608-6.284c.027-.027.054-.054.081-.054a35.857 35.857 0 0 0 10.347-13.38 25.514 25.514 0 0 0 .975-2.465 15.512 15.512 0 0 0 .3 3.006v.027a17.393 17.393 0 0 0 3.846 7.855.027.027 0 0 0 .027.027c6.121 7.5 17.443 11.457 22.508 11.4 0 0 18.012-.108 26.219-.108a30.4 30.4 0 0 0 19.393-6.934c7.421-5.986 11.918-15.114 11.809-24.106a31.019 31.019 0 0 0-26.435-30.932 6.806 6.806 0 0 0-.731-.108 29.575 29.575 0 0 0-4.09-.217c-1.3.027-39.761.108-45.368.108h-.677v.135a34.581 34.581 0 0 0 5.607 18.228 27.1 27.1 0 0 0 12.649 10.347 32.659 32.659 0 0 0 7.665 2.031 38.555 38.555 0 0 0 5.769.406h14.355a13.515 13.515 0 0 1 9.182 3.629 10.535 10.535 0 0 1 1.977 2.384 12.235 12.235 0 0 1 1.869 6.636 12.867 12.867 0 0 1-5.553 10.536 13.483 13.483 0 0 1-7.476 2.113h-.487c-4.036.027-5.065.027-12.486-.027-19.773-.108-35.644-.108-39.87-33.721 0 0-3.927-14.328-16.685-20.314-.108-.027-.19-.081-.3-.108a27.11 27.11 0 0 0-9.588-2.384h-.027c-.677-.027-1.381-.054-2.086-.054a38.8 38.8 0 0 0-6.988.569c-.027-.027-.027-.027-.054 0-14.572 2.438-16.549 12.513-17.985 17.362-.217.65-.027 13.272-.027 13.272s-87.6.542-106.5.108c-11.231-.255-14.349-2.492-16.968-6.17zm164.645 2.325c-2.059 1.571-5.417 3.115-10.915 3.656-.027.027-.027.027-.054 0a41.256 41.256 0 0 1-5.336.19l-19.068.027v-8.342c0-7.882 3.521-12.974 8.017-15.926a20.924 20.924 0 0 1 8.207-3.169h.027a20.666 20.666 0 0 1 2.817-.217c4.794 0 11.647 1.977 15.845 7.476a19.312 19.312 0 0 1 3.738 12.107 8.17 8.17 0 0 1-3.278 4.198z" class="prefix__cls-1" data-name="Path 5162" transform="translate(11.146 -242.244)"/>
</svg>
