<svg xmlns="http://www.w3.org/2000/svg" id="prefix__browser" width="30.053" height="28.172" viewBox="0 0 30.053 28.172">
    <defs>
        <style>
            .prefix__cls-1{fill:#0cc}
        </style>
    </defs>
    <path id="prefix__Path_76982" d="M62.657 209.808H42.7a2.7 2.7 0 0 1-2.7-2.7V192.9a.939.939 0 0 1 1.878 0v14.206a.823.823 0 0 0 .822.822h19.957a.823.823 0 0 0 .822-.822V192.9a.939.939 0 0 1 1.878 0v14.206a2.7 2.7 0 0 1-2.7 2.702z" class="prefix__cls-1" data-name="Path 76982" transform="translate(-37.652 -181.636)"/>
    <path id="prefix__Path_76983" d="M29.114 30.57a.936.936 0 0 1-.664-.275l-11.68-11.68a2.468 2.468 0 0 0-3.486 0L1.6 30.3a.939.939 0 0 1-1.325-1.333l11.68-11.68a4.348 4.348 0 0 1 6.143 0l11.68 11.68a.939.939 0 0 1-.664 1.6z" class="prefix__cls-1" data-name="Path 76983" transform="translate(0 -16.017)"/>
    <path id="prefix__Path_76984" d="M184.452 300.192h-7.513a.939.939 0 0 1-.939-.939v-8.335a2.938 2.938 0 0 1 2.935-2.935h3.522a2.938 2.938 0 0 1 2.935 2.935v8.335a.939.939 0 0 1-.94.939zm-6.574-1.878h5.635v-7.4a1.058 1.058 0 0 0-1.057-1.057h-3.522a1.058 1.058 0 0 0-1.057 1.057z" class="prefix__cls-1" data-name="Path 76984" transform="translate(-165.669 -272.02)"/>
</svg>
