<svg xmlns="http://www.w3.org/2000/svg" width="21.839" height="33" viewBox="0 0 21.839 33">
    <defs>
        <style>
            .prefix__cls-1{fill:#0cc}
        </style>
    </defs>
    <g id="prefix__shower" transform="translate(-81.172)">
        <g id="prefix__Group_8827" data-name="Group 8827" transform="translate(81.172)">
            <g id="prefix__Group_8826" data-name="Group 8826">
                <path id="prefix__Path_77011" d="M95.472 5.272l-.55.55-.255-.255a2.744 2.744 0 0 0-2.843-.643L90.2 3.3h-3.528V2.2h-2.2V0h-3.3v33h3.3v-2.75h1.1v.55a.55.55 0 0 0 .55.55h2.2a.55.55 0 0 0 .55-.55v-2.2a.55.55 0 0 0-.55-.55h-2.2a.55.55 0 0 0-.55.55v.55h-1.1V7.7h2.2V6.6h1.972l.751.751a2.745 2.745 0 0 0 .644 2.843l.255.255-.55.55 2.428 2.428L97.9 7.7zM83.372 31.9h-1.1V1.1h1.1zm3.3-2.75h1.1v1.1h-1.1zm-1.1-22.55h-1.1V3.3h1.1zm4.467-.294l-.067.067L89.1 5.5h-2.428V4.4h3.072l1.1 1.1-.067.067zm.778 3.111a1.65 1.65 0 0 1 0-2.333l.739-.739a1.65 1.65 0 0 1 2.333 0l.255.255-3.072 3.072zM91.3 11l4.172-4.172.872.872-4.172 4.172z" class="prefix__cls-1" data-name="Path 77011" transform="translate(-81.172)"/>
            </g>
        </g>
        <g id="prefix__Group_8829" data-name="Group 8829" transform="translate(98.383 8.961)">
            <g id="prefix__Group_8828" data-name="Group 8828">
                <path id="prefix__Rectangle_4190" d="M0 0H1.1V1.555H0z" class="prefix__cls-1" data-name="Rectangle 4190" transform="rotate(-45 .94 .389)"/>
            </g>
        </g>
        <g id="prefix__Group_8831" data-name="Group 8831" transform="translate(96.733 10.611)">
            <g id="prefix__Group_8830" data-name="Group 8830">
                <path id="prefix__Rectangle_4191" d="M0 0H1.1V1.555H0z" class="prefix__cls-1" data-name="Rectangle 4191" transform="rotate(-45 .94 .389)"/>
            </g>
        </g>
        <g id="prefix__Group_8833" data-name="Group 8833" transform="translate(95.083 12.26)">
            <g id="prefix__Group_8832" data-name="Group 8832">
                <path id="prefix__Rectangle_4192" d="M0 0H1.1V1.555H0z" class="prefix__cls-1" data-name="Rectangle 4192" transform="rotate(-45 .94 .389)"/>
            </g>
        </g>
        <g id="prefix__Group_8835" data-name="Group 8835" transform="translate(93.433 13.911)">
            <g id="prefix__Group_8834" data-name="Group 8834">
                <path id="prefix__Rectangle_4193" d="M0 0H1.1V1.555H0z" class="prefix__cls-1" data-name="Rectangle 4193" transform="rotate(-45 .94 .389)"/>
            </g>
        </g>
        <g id="prefix__Group_8837" data-name="Group 8837" transform="translate(96.183 15.01)">
            <g id="prefix__Group_8836" data-name="Group 8836">
                <path id="prefix__Rectangle_4194" d="M0 0H1.1V1.555H0z" class="prefix__cls-1" data-name="Rectangle 4194" transform="rotate(-45 .94 .389)"/>
            </g>
        </g>
        <g id="prefix__Group_8839" data-name="Group 8839" transform="translate(97.833 13.359)">
            <g id="prefix__Group_8838" data-name="Group 8838">
                <path id="prefix__Rectangle_4195" d="M0 0H1.1V1.555H0z" class="prefix__cls-1" data-name="Rectangle 4195" transform="rotate(-45 .94 .389)"/>
            </g>
        </g>
        <g id="prefix__Group_8841" data-name="Group 8841" transform="translate(99.483 11.711)">
            <g id="prefix__Group_8840" data-name="Group 8840">
                <path id="prefix__Rectangle_4196" d="M0 0H1.1V1.555H0z" class="prefix__cls-1" data-name="Rectangle 4196" transform="rotate(-45 .94 .389)"/>
            </g>
        </g>
        <g id="prefix__Group_8843" data-name="Group 8843" transform="translate(101.133 10.061)">
            <g id="prefix__Group_8842" data-name="Group 8842">
                <path id="prefix__Rectangle_4197" d="M0 0H1.1V1.555H0z" class="prefix__cls-1" data-name="Rectangle 4197" transform="rotate(-45 .94 .389)"/>
            </g>
        </g>
        <g id="prefix__Group_8845" data-name="Group 8845" transform="translate(94.533 16.661)">
            <g id="prefix__Group_8844" data-name="Group 8844">
                <path id="prefix__Rectangle_4198" d="M0 0H1.1V1.555H0z" class="prefix__cls-1" data-name="Rectangle 4198" transform="rotate(-45 .94 .389)"/>
            </g>
        </g>
    </g>
</svg>
