<svg xmlns="http://www.w3.org/2000/svg" width="42" height="42" viewBox="0 0 42 42">
    <defs>
        <style>
            .cls-2{fill:#5b5b79}
        </style>
    </defs>
    <g id="icon_arrow_left" transform="translate(14698 11319)">
        <path id="Rectangle_4398" fill="none" d="M0 0H42V42H0z" transform="translate(-14698 -11319)"/>
        <g id="next" transform="translate(-14693 -11314)">
            <g id="Group_9264">
                <g id="Group_9263">
                    <path id="Path_77212" d="M16.176 0a16.176 16.176 0 1 0 16.175 16.176A16.153 16.153 0 0 0 16.176 0zm0 30.188a14.013 14.013 0 1 1 14.012-14.013 13.982 13.982 0 0 1-14.012 14.013z" class="cls-2"/>
                </g>
            </g>
            <g id="Group_9266" transform="translate(13.158 8.092)">
                <g id="Group_9265">
                    <path id="Path_77213" d="M146.559 92.066l-7.113-7.113a1.07 1.07 0 0 0-1.513 1.513l6.25 6.25-6.25 6.25a1.053 1.053 0 0 0 0 1.513.976.976 0 0 0 .757.321 3.352 3.352 0 0 0 .863-.214l7.006-7.006a.976.976 0 0 0 .321-.757.988.988 0 0 0-.321-.757z" class="cls-2" transform="translate(-137.612 -84.632)"/>
                </g>
            </g>
        </g>
    </g>
</svg>
