<svg xmlns="http://www.w3.org/2000/svg" id="icon_arrowright" width="42" height="42" viewBox="0 0 42 42">
    <defs>
        <style>
            .cls-2{fill:#5b5b79}
        </style>
    </defs>
    <path id="Rectangle_4398" fill="none" d="M0 0H42V42H0z"/>
    <g id="next" transform="translate(4.649 5)">
        <g id="Group_9264">
            <g id="Group_9263">
                <path id="Path_77212" d="M16.176 0A16.176 16.176 0 1 1 0 16.176 16.153 16.153 0 0 1 16.176 0zm0 30.188A14.013 14.013 0 1 0 2.163 16.175a13.982 13.982 0 0 0 14.013 14.013z" class="cls-2"/>
            </g>
        </g>
        <g id="Group_9266" transform="translate(9.926 8.092)">
            <g id="Group_9265">
                <path id="Path_77213" d="M137.933 92.066l7.113-7.113a1.07 1.07 0 0 1 1.513 1.513l-6.25 6.25 6.25 6.25a1.053 1.053 0 0 1 0 1.513.976.976 0 0 1-.757.321 3.352 3.352 0 0 1-.863-.214l-7.006-7.006a.976.976 0 0 1-.321-.757.988.988 0 0 1 .321-.757z" class="cls-2" transform="translate(-137.612 -84.632)"/>
            </g>
        </g>
    </g>
</svg>
