<svg xmlns="http://www.w3.org/2000/svg" width="232.441" height="185.953" viewBox="0 0 232.441 185.953">
    <defs>
        <style>
            .prefix__cls-1{fill:#639}.prefix__cls-3{fill:#5a47a0}.prefix__cls-4{fill:#c39}.prefix__cls-6{fill:#0cc}
        </style>
    </defs>
    <g id="prefix__icon_-Guaranteed_cleanliness" data-name="icon -Guaranteed cleanliness" transform="translate(194.529 658.341)">
        <g id="prefix__Group_7830" data-name="Group 7830">
            <path id="prefix__Path_678" d="M-155.212-586.7h-.019a8.59 8.59 0 0 0-8.5 8.672 8.587 8.587 0 0 0 8.488 8.5h.019a8.585 8.585 0 0 0 8.5-8.671 8.587 8.587 0 0 0-8.488-8.501zm2.581 11.194a3.644 3.644 0 0 1-2.6 1.073h-.009a3.68 3.68 0 0 1-3.68-3.68 3.682 3.682 0 0 1 3.68-3.68h.01a3.68 3.68 0 0 1 3.673 3.685 3.668 3.668 0 0 1-1.084 2.6z" class="prefix__cls-1" data-name="Path 678"/>
            <path id="prefix__Path_622-2" d="M-24.584-543.16a2.779 2.779 0 0 0-2.369 3.134 2.777 2.777 0 0 0 3.134 2.369 2.777 2.777 0 0 0 2.369-3.132v-.006a2.778 2.778 0 0 0-3.132-2.369z" class="prefix__cls-1" data-name="Path 622-2"/>
            <path id="prefix__Path_76718" fill="#ff60b6" d="M2.233-549.224h-31.458a2 2 0 0 1-2-2 2 2 0 0 1 2-2H2.233a2 2 0 0 1 2 2 2 2 0 0 1-2 2z" data-name="Path 76718"/>
            <path id="prefix__Path_76719" d="M-144.919-518.184h-15.494a2 2 0 0 1-2-2 2 2 0 0 1 2-2h15.494a2 2 0 0 1 2 2 2 2 0 0 1-2 2z" class="prefix__cls-3" data-name="Path 76719"/>
            <path id="prefix__Path_76720" d="M-12.213-531.74h-15.494a2 2 0 0 1-2-2 2 2 0 0 1 2-2h15.494a2 2 0 0 1 2 2 2 2 0 0 1-2 2z" class="prefix__cls-4" data-name="Path 76720"/>
            <path id="prefix__Path_76721" d="M-144.919-509.448h-15.494a2 2 0 0 1-2-2 2 2 0 0 1 2-2h15.494a2 2 0 0 1 2 2 2 2 0 0 1-2 2z" class="prefix__cls-4" data-name="Path 76721"/>
            <path id="prefix__Path_76722" fill="#339" d="M-51.456-575.2a1.991 1.991 0 0 1-1.35-.524l-25.575-23.416a.815.815 0 0 0-1.1-.006 2 2 0 0 1-2.819-.154 2 2 0 0 1 .155-2.823 4.8 4.8 0 0 1 6.467.035l25.578 23.409a2 2 0 0 1 .124 2.826 1.992 1.992 0 0 1-1.48.653z" data-name="Path 76722"/>
            <path id="prefix__Path_76723" d="M-31.031-556.226a3.624 3.624 0 0 1-2.477-.968l-14.24-13.262a2 2 0 0 1-.1-2.827 2 2 0 0 1 2.826-.1l13.979 13.018 8.854-9.178-55.684-52.932a1.843 1.843 0 0 0-2.527-.01l-25.152 23.551a2 2 0 0 1-2.827-.093 2 2 0 0 1 .093-2.827l25.153-23.552a5.849 5.849 0 0 1 8.016.032l55.971 53.2a3.642 3.642 0 0 1 .091 5.141l-9.357 9.7a3.632 3.632 0 0 1-2.619 1.107z" class="prefix__cls-3" data-name="Path 76723"/>
            <path id="prefix__Path_76724" d="M-63.6-510.088a2 2 0 0 1-2-1.994 2 2 0 0 1 1.994-2.006l23.043-.069v-50.106a2 2 0 0 1 2-2 2 2 0 0 1 2 2v50.468a3.64 3.64 0 0 1-3.637 3.637l-23.394.07zm23.394-4.07z" class="prefix__cls-3" data-name="Path 76724"/>
            <g id="prefix__Group_7699" data-name="Group 7699">
                <g id="prefix__Group_7698" data-name="Group 7698">
                    <path id="prefix__Path_76644" d="M-72.951-530.795h-2.442a11.07 11.07 0 0 0-4.933 1.165 7.951 7.951 0 0 1-7.078 0 11.029 11.029 0 0 0-2.806-.936l3.039-23.615h3.306a1.559 1.559 0 0 0 1.559-1.559v-6.236a1.559 1.559 0 0 0-1.559-1.559H-90.1v-4.677a1.562 1.562 0 0 0-.457-1.1l-7.343-7.338v-4.845l2.363-1.889 4.037 8.074 2.79-1.394-4.337-8.673 1.929-1.543h5.69a1.559 1.559 0 0 0 1.559-1.559v-6.236a1.559 1.559 0 0 0-1.559-1.559h-15.59a14.049 14.049 0 0 0-14.037 14.03 1.559 1.559 0 0 0 1.559 1.559h3.118v4.032l-4.22 4.22a1.566 1.566 0 0 0-.457 1.1v7.795h-3.118v-12.47a1.532 1.532 0 0 0-.114-.562 1.546 1.546 0 0 0-.1-.177 2 2 0 0 0-.131-.235l-5.9-7.367v-10.367a1.559 1.559 0 0 0-1.559-1.559h-9.354a1.561 1.561 0 0 0-1.56 1.559v10.367l-5.894 7.367a1.7 1.7 0 0 0-.131.235 1.713 1.713 0 0 0-.1.177 1.553 1.553 0 0 0-.114.562v12.473h-6.225a1.559 1.559 0 0 0-1.559 1.559v6.236a1.559 1.559 0 0 0 1.559 1.559h3.307l6.06 46.971a1.558 1.558 0 0 0 1.546 1.36h36.7a9.326 9.326 0 0 0 6.953 3.118h2.441a11.058 11.058 0 0 0 4.933-1.165 7.951 7.951 0 0 1 7.078 0 11.058 11.058 0 0 0 4.933 1.165h2.442a9.363 9.363 0 0 0 9.354-9.354v-9.355a9.363 9.363 0 0 0-9.343-9.354zM-90.1-593.157h3.118v3.118H-90.1zm4.677 32.74v3.122h-21.827v-3.118zm-26.394-23.383a10.933 10.933 0 0 1 10.8-9.354h7.795v3.929L-100-583.8zm10.8 3.118v3.118h-6.234v-3.118zm-10.914 10l3.764-3.764h8.063l6.882 6.882v4.032h-18.709zm-1.559 10.268h3.118v10.914a1.559 1.559 0 0 0 .863 1.4l9.354 4.678a1.887 1.887 0 0 1 .959 1.108 2.009 2.009 0 0 1-.156 1.559 1.821 1.821 0 0 1-2.442.817l-6.33-3.165a1.558 1.558 0 0 0-2.084.715 1.561 1.561 0 0 0-.159.681v15.59a3.118 3.118 0 0 1-3.119 3.117v-14.029h-3.114v14.036h-3.118v-14.036h-3.118v14.036h-3.118v-14.036h-3.118v14.036a3.118 3.118 0 0 1-3.118-3.118v-34.3zm-20.267-32.74h6.236v7.8h-6.236zm-.811 10.913h7.858l3.741 4.677h-15.341zm-5.426 7.8h18.709v10.914h-18.709zm-7.795 17.15v-3.118h12.473v3.122zm43.654 35.858v9.355a9.33 9.33 0 0 0 .545 3.118h-33.474l-5.834-45.213h7.582v28.063a6.236 6.236 0 0 0 6.236 6.236h15.59a6.236 6.236 0 0 0 6.237-6.236v-13.068l4.072 2.036a4.968 4.968 0 0 0 6.654-2.255l.015-.031a5.049 5.049 0 0 0 .286-3.859 4.993 4.993 0 0 0-2.526-2.921l-8.5-4.25v-3.714h16.936l-3.019 23.386h-1.445a9.364 9.364 0 0 0-9.355 9.354zm37.417 9.355a6.236 6.236 0 0 1-6.236 6.236H-75.4a7.94 7.94 0 0 1-3.537-.836 11.092 11.092 0 0 0-9.869 0 7.957 7.957 0 0 1-3.538.836h-2.441a6.236 6.236 0 0 1-6.236-6.236v-2.4a9.306 9.306 0 0 0 6.236 2.4h2.441a11.058 11.058 0 0 0 4.933-1.165 7.951 7.951 0 0 1 7.078 0 11.058 11.058 0 0 0 4.933 1.165h2.442a9.311 9.311 0 0 0 6.236-2.4zm-6.236-3.119H-75.4a7.926 7.926 0 0 1-3.537-.835 11.086 11.086 0 0 0-9.869 0 7.93 7.93 0 0 1-3.538.835h-2.441a6.236 6.236 0 0 1-6.236-6.236 6.236 6.236 0 0 1 6.236-6.236h2.441a7.971 7.971 0 0 1 3.538.836 11.1 11.1 0 0 0 9.869 0 7.954 7.954 0 0 1 3.537-.836h2.442a6.236 6.236 0 0 1 6.236 6.236 6.235 6.235 0 0 1-6.233 6.236z" class="prefix__cls-6" data-name="Path 76644"/>
                </g>
            </g>
            <g id="prefix__Group_7829" data-name="Group 7829">
                <path id="prefix__Path_76645" d="M5.249-592.164a14.765 14.765 0 0 0-9.922 3.816 9.921 9.921 0 0 0-13.108-2.291 9.922 9.922 0 0 0-3.6 12.811A9.922 9.922 0 0 0-9-572.959a14.3 14.3 0 0 0 .743 1.929 7.79 7.79 0 0 0-3.157 8.817 7.791 7.791 0 0 0 7.593 5.48 7.79 7.79 0 0 0 7.374-5.773 14.878 14.878 0 0 0 13.984-6.382 14.878 14.878 0 0 0 .875-15.346 14.88 14.88 0 0 0-13.163-7.93zm-26.222 9.922a8.49 8.49 0 0 1 5.8-8.066 8.49 8.49 0 0 1 9.483 2.963 14.769 14.769 0 0 0-3.945 10.064 14.972 14.972 0 0 0 .3 2.934 8.48 8.48 0 0 1-7.917-.854 8.481 8.481 0 0 1-3.725-7.041zm17.009 24.1a6.379 6.379 0 0 1-6.387-6.371v-.012a6.379 6.379 0 0 1 6.379-6.375 6.379 6.379 0 0 1 6.378 6.378 6.385 6.385 0 0 1-6.374 6.379zm9.213-5.67A13.234 13.234 0 0 1 3.8-563.9c.017-.2.031-.41.031-.62a7.8 7.8 0 0 0-3.489-6.5A7.8 7.8 0 0 0-7-571.7a13.149 13.149 0 0 1-.83-2.379 13.522 13.522 0 0 1-.384-3.2 13.466 13.466 0 0 1 13.463-13.468 13.465 13.465 0 0 1 13.465 13.465 13.463 13.463 0 0 1-13.463 13.466z" class="prefix__cls-6" data-name="Path 76645"/>
                <path id="prefix__Path_76725" d="M-3.969-555.731a8.835 8.835 0 0 1-8.4-6.185 8.836 8.836 0 0 1 2.875-9.447c-.046-.113-.091-.227-.134-.341a10.892 10.892 0 0 1-12.652-5.678 10.893 10.893 0 0 1 3.963-14.1 10.886 10.886 0 0 1 13.752 1.733 15.724 15.724 0 0 1 9.791-3.411h.03A15.841 15.841 0 0 1 19.3-584.7a15.845 15.845 0 0 1-.934 16.378 15.83 15.83 0 0 1-14.1 6.884 8.84 8.84 0 0 1-8.066 5.705zm0-14.172a5.386 5.386 0 0 0-5.379 5.378 5.389 5.389 0 0 0 5.183 5.38h.2a5.4 5.4 0 0 0 5.376-5.381 5.385 5.385 0 0 0-5.383-5.374zm8.8 5.081l.177.006h.246a12.386 12.386 0 0 0 8.815-3.651 12.382 12.382 0 0 0 3.65-8.814 12.48 12.48 0 0 0-12.47-12.466 12.479 12.479 0 0 0-12.465 12.465 12.538 12.538 0 0 0 .356 2.964 12.112 12.112 0 0 0 .417 1.356 8.767 8.767 0 0 1 7.337 1.108 8.778 8.778 0 0 1 3.932 7.032zm-24.8-17.141a7.464 7.464 0 0 0 3.281 5.934 7.464 7.464 0 0 0 6.224 1.012 15.985 15.985 0 0 1-.168-2.26 15.716 15.716 0 0 1 3.629-10.085 7.472 7.472 0 0 0-7.85-2 7.478 7.478 0 0 0-5.117 7.115z" class="prefix__cls-6" data-name="Path 76725"/>
            </g>
            <path id="prefix__Path_76646" d="M-173.509-530.511a.709.709 0 0 0-.709-.709.71.71 0 0 0-.709.709 2.126 2.126 0 0 1-2.126 2.126.709.709 0 0 0-.708.709.71.71 0 0 0 .708.709 2.126 2.126 0 0 1 2.126 2.126.71.71 0 0 0 .709.708.709.709 0 0 0 .709-.708 2.127 2.127 0 0 1 2.126-2.125.71.71 0 0 0 .709-.709.709.709 0 0 0-.709-.709 2.126 2.126 0 0 1-2.126-2.126zm-.709 3.566a3.538 3.538 0 0 0-.73-.731 3.537 3.537 0 0 0 .73-.731 3.567 3.567 0 0 0 .731.731 3.567 3.567 0 0 0-.731.731z" class="prefix__cls-1" data-name="Path 76646"/>
            <path id="prefix__Path_76647" d="M-41.773-625.73a2.268 2.268 0 0 0-2.268-2.27 2.269 2.269 0 0 0-2.268 2.267 6.8 6.8 0 0 1-6.8 6.8 2.267 2.267 0 0 0-2.267 2.267 2.267 2.267 0 0 0 2.266 2.266 6.8 6.8 0 0 1 6.8 6.8 2.268 2.268 0 0 0 2.268 2.268 2.267 2.267 0 0 0 2.268-2.268 6.8 6.8 0 0 1 6.8-6.8 2.267 2.267 0 0 0 2.268-2.268 2.268 2.268 0 0 0-2.268-2.267 6.8 6.8 0 0 1-6.799-6.795zm-2.268 11.41a11.313 11.313 0 0 0-2.337-2.339A11.28 11.28 0 0 0-44.041-619a11.289 11.289 0 0 0 2.339 2.337 11.323 11.323 0 0 0-2.339 2.343z" class="prefix__cls-1" data-name="Path 76647"/>
            <path id="prefix__Path_76648" d="M-163.942-531.372a1.7 1.7 0 0 0 1.7 1.7 1.7 1.7 0 0 0 1.7-1.7 5.1 5.1 0 0 1 5.1-5.1 1.7 1.7 0 0 0 1.7-1.7 1.7 1.7 0 0 0-1.7-1.7 5.1 5.1 0 0 1-5.1-5.1 1.7 1.7 0 0 0-1.7-1.7 1.7 1.7 0 0 0-1.7 1.7 5.1 5.1 0 0 1-5.1 5.1 1.7 1.7 0 0 0-1.7 1.7 1.7 1.7 0 0 0 1.7 1.7 5.1 5.1 0 0 1 5.1 5.1zm1.7-8.556a8.425 8.425 0 0 0 1.754 1.753 8.526 8.526 0 0 0-1.754 1.754 8.526 8.526 0 0 0-1.758-1.754 8.454 8.454 0 0 0 1.755-1.753z" class="prefix__cls-1" data-name="Path 76648"/>
            <path id="prefix__Path_76649" d="M-26.39-594.753a2.835 2.835 0 0 0-2.835-2.835 2.835 2.835 0 0 0-2.835 2.835 2.835 2.835 0 0 0 2.835 2.835 2.835 2.835 0 0 0 2.835-2.835zm-4.252 0a1.418 1.418 0 0 1 1.416-1.418 1.417 1.417 0 0 1 1.417 1.417 1.415 1.415 0 0 1-1.415 1.417 1.416 1.416 0 0 1-1.417-1.415z" class="prefix__cls-4" data-name="Path 76649"/>
        </g>
        <path id="prefix__Rectangle_1662-2" fill="none" d="M0 0H232.441V185.953H0z" data-name="Rectangle 1662-2" transform="translate(-194.529 -658.341)"/>
    </g>
</svg>
