<svg xmlns="http://www.w3.org/2000/svg" width="232.441" height="185.953" viewBox="0 0 232.441 185.953">
    <defs>
        <style>
            .prefix__cls-1{fill:#5a47a0}.prefix__cls-2{fill:#0cc}.prefix__cls-3{fill:#c39}.prefix__cls-4{fill:#639}
        </style>
    </defs>
    <g id="prefix__icon-_Money_Back_Guarantee" data-name="icon- Money Back Guarantee" transform="translate(-374.572 655.703)">
        <g id="prefix__Group_3244" data-name="Group 3244">
            <g id="prefix__Group_3179" data-name="Group 3179">
                <g id="prefix__Group_3170" data-name="Group 3170">
                    <g id="prefix__Group_3169" data-name="Group 3169">
                        <path id="prefix__Path_615" d="M500.62-605.675a2.226 2.226 0 0 0-2.227 2.225 2.227 2.227 0 0 0 2.225 2.227 2.225 2.225 0 0 0 2.227-2.225 2.221 2.221 0 0 0-2.217-2.225z" class="prefix__cls-1" data-name="Path 615"/>
                    </g>
                </g>
                <g id="prefix__Group_3172" data-name="Group 3172">
                    <g id="prefix__Group_3171" data-name="Group 3171">
                        <path id="prefix__Path_616" d="M545.177-601.226a11.151 11.151 0 0 1-11.139-11.14 2.228 2.228 0 0 0-2.228-2.227h-62.38a2.228 2.228 0 0 0-2.228 2.227 11.152 11.152 0 0 1-11.139 11.139 2.229 2.229 0 0 0-2.228 2.227v36.356a64.711 64.711 0 0 0 46.145 62.021 2.231 2.231 0 0 0 1.28 0 64.72 64.72 0 0 0 46.145-62.021V-599a2.228 2.228 0 0 0-2.228-2.226zm-2.227 38.584a59.914 59.914 0 0 1-42.329 57.557 60.24 60.24 0 0 1-42.329-57.557v-34.292a15.63 15.63 0 0 0 13.207-13.2h58.239a15.631 15.631 0 0 0 13.211 13.2z" class="prefix__cls-1" data-name="Path 616"/>
                    </g>
                </g>
                <g id="prefix__Group_3174" data-name="Group 3174">
                    <g id="prefix__Group_3173" data-name="Group 3173">
                        <path id="prefix__Path_617" d="M537.16-593.987a20.063 20.063 0 0 1-10.36-10.36 2.227 2.227 0 0 0-2.041-1.334h-15.231a2.228 2.228 0 0 0-2.275 2.18 2.229 2.229 0 0 0 2.181 2.275h13.917a24.5 24.5 0 0 0 10.688 10.688v27.9a50.751 50.751 0 0 1-33.418 48.145 50.75 50.75 0 0 1-33.421-48.148v-27.9a24.494 24.494 0 0 0 10.688-10.688h13.822a2.228 2.228 0 0 0 2.275-2.18 2.228 2.228 0 0 0-2.181-2.275h-15.322a2.229 2.229 0 0 0-2.041 1.334 20.063 20.063 0 0 1-10.36 10.36 2.229 2.229 0 0 0-1.334 2.041v29.3a55.459 55.459 0 0 0 37.13 52.614 2.228 2.228 0 0 0 1.486 0 55.461 55.461 0 0 0 37.13-52.614v-29.3a2.229 2.229 0 0 0-1.333-2.038z" class="prefix__cls-2" data-name="Path 617"/>
                    </g>
                </g>
                <g id="prefix__Group_3176" data-name="Group 3176">
                    <g id="prefix__Group_3175" data-name="Group 3175">
                        <path id="prefix__Path_618" d="M500.619-582.066a20.051 20.051 0 0 0-20.051 20.051 20.051 20.051 0 0 0 20.051 20.051 20.051 20.051 0 0 0 20.051-20.051 20.073 20.073 0 0 0-20.051-20.051zm0 35.645a15.6 15.6 0 0 1-15.59-15.6 15.6 15.6 0 0 1 15.6-15.59 15.6 15.6 0 0 1 15.59 15.6 15.612 15.612 0 0 1-15.6 15.59z" class="prefix__cls-2" data-name="Path 618"/>
                    </g>
                </g>
                <g id="prefix__Group_3178" data-name="Group 3178">
                    <g id="prefix__Group_3177" data-name="Group 3177">
                        <path id="prefix__Path_619" d="M511.106-568.046a2.228 2.228 0 0 0-3.151 0l-9.564 9.564-2.88-2.88a2.228 2.228 0 0 0-3.151 0 2.228 2.228 0 0 0 0 3.151l4.456 4.456a2.228 2.228 0 0 0 3.151 0l11.139-11.139a2.228 2.228 0 0 0 0-3.151z" class="prefix__cls-2" data-name="Path 619"/>
                    </g>
                </g>
                <path id="prefix__Path_620-2" d="M465.036-620.514a9.5 9.5 0 0 0 9.508-9.492 9.5 9.5 0 0 0-9.492-9.508h-.021a9.5 9.5 0 0 0-9.508 9.492 9.5 9.5 0 0 0 9.492 9.508zm-4.075-9.51a4.074 4.074 0 0 1 4.07-4.063h.011a4.072 4.072 0 0 1 4.066 4.078 4.071 4.071 0 0 1-4.072 4.066h-.011a4.072 4.072 0 0 1-4.064-4.08z" class="prefix__cls-3" data-name="Path 620-2"/>
                <path id="prefix__Path_621" d="M567.173-593.514h-.021a9.5 9.5 0 0 0-9.508 9.492 9.5 9.5 0 0 0 9.492 9.508h.021a9.5 9.5 0 0 0 9.508-9.492 9.5 9.5 0 0 0-9.492-9.508zm2.856 12.387a4.037 4.037 0 0 1-2.871 1.188h-.012a4.071 4.071 0 0 1-4.064-4.08 4.072 4.072 0 0 1 4.069-4.064h.011a4.072 4.072 0 0 1 4.063 4.083 4.071 4.071 0 0 1-1.2 2.876z" class="prefix__cls-3" data-name="Path 621"/>
                <path id="prefix__Path_622-2" d="M443.164-587.056a3.074 3.074 0 0 0-2.621 3.468 3.073 3.073 0 0 0 3.468 2.621 3.073 3.073 0 0 0 2.621-3.468 3.074 3.074 0 0 0-3.468-2.621z" class="prefix__cls-1" data-name="Path 622-2"/>
                <path id="prefix__Path_623" d="M553.926-546.987a3.073 3.073 0 0 0 2.621-3.468 3.072 3.072 0 0 0-3.468-2.621 3.073 3.073 0 0 0-2.621 3.468 3.074 3.074 0 0 0 3.468 2.621z" class="prefix__cls-3" data-name="Path 623"/>
                <path id="prefix__Path_624-2" d="M488.459-491.392a3.073 3.073 0 0 0 2.621-3.468 3.073 3.073 0 0 0-3.468-2.621 3.073 3.073 0 0 0-2.621 3.468 3.074 3.074 0 0 0 3.468 2.621z" class="prefix__cls-4" data-name="Path 624-2"/>
                <path id="prefix__Path_625-2" d="M576.234-621.542a3.074 3.074 0 0 0-2.621 3.468 3.073 3.073 0 0 0 3.468 2.621 3.073 3.073 0 0 0 2.621-3.468 3.074 3.074 0 0 0-3.468-2.621z" class="prefix__cls-3" data-name="Path 625-2"/>
                <path id="prefix__Path_626-2" d="M446.157-538.081a2.715 2.715 0 0 0 3.839-.086 2.715 2.715 0 0 0 .005-3.747l-3.062-3.073 3.075-3.064a2.714 2.714 0 0 0 .006-3.838 2.715 2.715 0 0 0-3.839-.006l-3.073 3.062-3.061-3.073a2.714 2.714 0 0 0-3.838-.1 2.714 2.714 0 0 0-.1 3.838c.03.032.06.062.091.092l3.06 3.072-3.07 3.062a2.714 2.714 0 0 0-.1 3.838 2.716 2.716 0 0 0 3.839.1c.031-.029.061-.06.091-.091l3.067-3.06z" class="prefix__cls-3" data-name="Path 626-2"/>
                <path id="prefix__Path_627-2" d="M552.7-622.3l3.075-3.064a2.716 2.716 0 0 0-.086-3.839 2.715 2.715 0 0 0-3.747-.005l-3.073 3.062-3.062-3.073a2.715 2.715 0 0 0-3.839.086 2.716 2.716 0 0 0-.005 3.747l3.06 3.072-3.074 3.063a2.715 2.715 0 0 0-.005 3.839 2.714 2.714 0 0 0 3.838 0l3.072-3.061 3.063 3.074a2.715 2.715 0 0 0 3.839.006 2.715 2.715 0 0 0 .005-3.839z" class="prefix__cls-1" data-name="Path 627-2"/>
                <path id="prefix__Path_76731" d="M555.839-500.98h-34.812a2 2 0 0 1-2-2 2 2 0 0 1 2-2h34.812a2 2 0 0 1 2 2 2 2 0 0 1-2 2z" class="prefix__cls-4" data-name="Path 76731"/>
                <path id="prefix__Path_76732" d="M538.425-492.175h-34.812a2 2 0 0 1-2-2 2 2 0 0 1 2-2h34.812a2 2 0 0 1 2 2 2 2 0 0 1-2 2z" class="prefix__cls-3" data-name="Path 76732"/>
                <path id="prefix__Path_76733" d="M451.135-612.2h-34.812a2 2 0 0 1-2-2 2 2 0 0 1 2-2h34.812a2 2 0 0 1 2 2 2 2 0 0 1-2 2z" class="prefix__cls-3" data-name="Path 76733"/>
                <path id="prefix__Path_76734" d="M421-605.963h-17.146a2 2 0 0 1-2-2 2 2 0 0 1 2-2H421a2 2 0 0 1 2 2 2 2 0 0 1-2 2z" class="prefix__cls-1" data-name="Path 76734"/>
                <g id="prefix__Group_7833" data-name="Group 7833">
                    <path id="prefix__Path_628-2" d="M480.751-622.512H497.9" class="prefix__cls-2" data-name="Path 628-2"/>
                    <path id="prefix__Path_76735" d="M497.9-620.512h-17.149a2 2 0 0 1-2-2 2 2 0 0 1 2-2H497.9a2 2 0 0 1 2 2 2 2 0 0 1-2 2z" class="prefix__cls-4" data-name="Path 76735"/>
                </g>
                <path id="prefix__Path_76736" d="M514-485.94h-17.142a2 2 0 0 1-2-2 2 2 0 0 1 2-2H514a2 2 0 0 1 2 2 2 2 0 0 1-2 2z" class="prefix__cls-1" data-name="Path 76736"/>
            </g>
        </g>
        <path id="prefix__Rectangle_1662-2" fill="none" d="M0 0H232.441V185.953H0z" data-name="Rectangle 1662-2" transform="translate(374.572 -655.703)"/>
    </g>
</svg>
