<svg xmlns="http://www.w3.org/2000/svg" width="232.441" height="185.953" viewBox="0 0 232.441 185.953">
    <defs>
        <style>
            .prefix__cls-1{fill:#c39}.prefix__cls-2{fill:#639}.prefix__cls-3{fill:#0cc}.prefix__cls-5{fill:#5a47a0}
        </style>
    </defs>
    <g id="prefix__icon_-Talk_to_the_host" data-name="icon -Talk to the host" transform="translate(-92.572 654.79)">
        <g id="prefix__Group_3245" data-name="Group 3245">
            <path id="prefix__Path_620" d="M266.78-563.535a9.5 9.5 0 0 0 9.508-9.492 9.5 9.5 0 0 0-9.492-9.508h-.021a9.5 9.5 0 0 0-9.508 9.492 9.5 9.5 0 0 0 9.492 9.508zm-4.075-9.51a4.074 4.074 0 0 1 4.07-4.063h.011a4.073 4.073 0 0 1 4.066 4.079 4.071 4.071 0 0 1-4.072 4.065h-.011a4.072 4.072 0 0 1-4.064-4.08z" class="prefix__cls-1" data-name="Path 620"/>
            <path id="prefix__Path_624" d="M121.2-509.413a3.074 3.074 0 0 0 2.622-3.468 3.074 3.074 0 0 0-3.468-2.621 3.074 3.074 0 0 0-2.622 3.468 3.074 3.074 0 0 0 3.468 2.621z" class="prefix__cls-2" data-name="Path 624"/>
            <path id="prefix__Path_625" d="M284.978-572.563a3.074 3.074 0 0 0-2.621 3.468 3.074 3.074 0 0 0 3.468 2.622 3.074 3.074 0 0 0 2.621-3.468 3.075 3.075 0 0 0-3.468-2.622z" class="prefix__cls-1" data-name="Path 625"/>
            <path id="prefix__Path_626" d="M286.9-598.1a2.715 2.715 0 0 0 3.839-.085 2.715 2.715 0 0 0 .005-3.748l-3.062-3.073 3.075-3.064a2.714 2.714 0 0 0 .006-3.838 2.715 2.715 0 0 0-3.839-.006l-3.073 3.062-3.061-3.073a2.714 2.714 0 0 0-3.838-.1 2.714 2.714 0 0 0-.1 3.838c.03.031.06.062.091.091l3.06 3.072-3.07 3.062a2.717 2.717 0 0 0-.1 3.839 2.716 2.716 0 0 0 3.839.1c.031-.03.062-.06.091-.092l3.067-3.06z" class="prefix__cls-3" data-name="Path 626"/>
            <path id="prefix__Path_627" d="M161.143-504.319l3.075-3.064a2.714 2.714 0 0 0-.085-3.838 2.716 2.716 0 0 0-3.748-.006l-3.073 3.062-3.062-3.073a2.715 2.715 0 0 0-3.838.086 2.715 2.715 0 0 0-.006 3.747l3.06 3.072-3.074 3.063a2.715 2.715 0 0 0-.005 3.839 2.714 2.714 0 0 0 3.838.005l3.072-3.061 3.063 3.074a2.715 2.715 0 0 0 3.839.006 2.715 2.715 0 0 0 0-3.839z" class="prefix__cls-1" data-name="Path 627"/>
            <path id="prefix__Path_76726" fill="#ff60b6" d="M155.169-518.2h-34.812a2 2 0 0 1-2-2 2 2 0 0 1 2-2h34.812a2 2 0 0 1 2 2 2 2 0 0 1-2 2z" data-name="Path 76726"/>
            <path id="prefix__Path_76727" d="M297.879-526.218h-34.812a2 2 0 0 1-2-2 2 2 0 0 1 2-2h34.812a2 2 0 0 1 2 2 2 2 0 0 1-2 2z" class="prefix__cls-1" data-name="Path 76727"/>
            <path id="prefix__Path_76728" d="M267.743-519.984H250.6a2 2 0 0 1-2-2 2 2 0 0 1 2-2h17.146a2 2 0 0 1 2 2 2 2 0 0 1-2.003 2z" class="prefix__cls-5" data-name="Path 76728"/>
            <path id="prefix__Path_76729" d="M271.642-532.532H254.5a2 2 0 0 1-2-2 2 2 0 0 1 2-2h17.146a2 2 0 0 1 2 2 2 2 0 0 1-2.004 2z" class="prefix__cls-3" data-name="Path 76729"/>
            <path id="prefix__Path_76730" d="M137.749-527.961H120.6a2 2 0 0 1-2-2 2 2 0 0 1 2-2h17.146a2 2 0 0 1 2 2 2 2 0 0 1-1.997 2z" class="prefix__cls-5" data-name="Path 76730"/>
            <g id="prefix__Group_3180" data-name="Group 3180">
                <path id="prefix__Path_651" d="M238.012-565.7a9.993 9.993 0 0 0 9.812-9.98 10 10 0 0 0-7.453-9.658 9.315 9.315 0 0 0 2.5-6.335v-.677a9.308 9.308 0 0 0-2.767-6.611 22.9 22.9 0 0 0-3.684-27.511 1.612 1.612 0 0 0-2.279 0l-10 9.995a8.1 8.1 0 0 0-6.369-3.071 8.136 8.136 0 0 0-5.4 2.054 17.869 17.869 0 0 0-12.682-5.248 17.871 17.871 0 0 0-5.54.871 8.045 8.045 0 0 0-7.493-5.146h-31.115a1.612 1.612 0 0 0-1.612 1.612 1.612 1.612 0 0 0 1.612 1.612h31.113a4.812 4.812 0 0 1 4.807 4.807v49.248a.768.768 0 0 1-.5.737.766.766 0 0 1-.869-.18l-10.152-10.357a1.612 1.612 0 0 0-1.151-.483H147.4a4.813 4.813 0 0 1-4.807-4.807v-34.151a4.814 4.814 0 0 1 4.807-4.807h1.7a1.611 1.611 0 0 0 1.612-1.612 1.612 1.612 0 0 0-1.612-1.612h-1.7a8.04 8.04 0 0 0-8.031 8.027v34.151a8.04 8.04 0 0 0 8.031 8.032h26.681a10.279 10.279 0 0 0-.065 1.122 9.995 9.995 0 0 0 9.984 9.987c.163 0 .325 0 .487-.013a27.14 27.14 0 0 0 8 14.974 27.1 27.1 0 0 0-8.4 19.641v1.637l-9.29-9.208a1.617 1.617 0 0 0-.555-.359v-2.208a4.488 4.488 0 0 0-4.483-4.483 4.489 4.489 0 0 0-4.483 4.483v2.1h-6.9a5.681 5.681 0 0 0-5.674 5.674 5.7 5.7 0 0 0 4.49 5.549l6.036 1.288 7.379 7.429a1.613 1.613 0 0 0 1.144.476l65.049.065a1.611 1.611 0 0 0 1.612-1.612v-10.83a1.612 1.612 0 0 0-1.612-1.612 1.612 1.612 0 0 0-1.612 1.612v9.218h-13.77l3.791-3.791a1.611 1.611 0 0 0 .313-1.839l-1.618-3.36h3.737a1.61 1.61 0 0 0 1.576-1.272l2.466-11.436a23.777 23.777 0 0 1 2.888 7.034 1.612 1.612 0 0 0 1.569 1.247 1.617 1.617 0 0 0 .367-.042 1.612 1.612 0 0 0 1.2-1.935 27.118 27.118 0 0 0-7.25-13.031c-.142-.142-.288-.285-.437-.427a27.2 27.2 0 0 0 7.992-14.978zm6.588-9.98a6.767 6.767 0 0 1-6.229 6.737c.024-.469.038-.941.038-1.416v-5.534a1.9 1.9 0 0 1 1.755 1.108 1.61 1.61 0 0 0 1.479.969 1.576 1.576 0 0 0 .642-.134 1.61 1.61 0 0 0 .836-2.12 5.045 5.045 0 0 0-4.711-3.044v-3.3a6.767 6.767 0 0 1 6.19 6.738zm-4.949-16.667v.677a6.075 6.075 0 0 1-1.241 3.67 27.042 27.042 0 0 0-1.022-7.164q.453-.512.871-1.044a6.078 6.078 0 0 1 1.391 3.86zm-28.518-21.713a1.608 1.608 0 0 0 1.319.6 1.609 1.609 0 0 0 1.265-.7 4.922 4.922 0 0 1 4.063-2.153 4.9 4.9 0 0 1 4.549 3.063 1.61 1.61 0 0 0 1.174.972 1.608 1.608 0 0 0 1.459-.44l10.276-10.276a19.664 19.664 0 0 1-1.093 26.586 19.67 19.67 0 0 1-23.64 3.159 1.613 1.613 0 0 0-1.789.125 14.584 14.584 0 0 1-9.02 3.088 14.575 14.575 0 0 1-5-.875v-27.727a14.621 14.621 0 0 1 5-.875 14.671 14.671 0 0 1 11.436 5.452zM184-568.915a6.766 6.766 0 0 1-6.76-6.76 6.8 6.8 0 0 1 .093-1.122h.783l5.971 6.088v.354q0 .723.038 1.436zm3.518 1.7l.282.288a4 4 0 0 0 2.864 1.207 4.029 4.029 0 0 0 1.526-.3 4 4 0 0 0 2.5-3.721v-17.791a17.851 17.851 0 0 0 5 .712 17.757 17.757 0 0 0 10.134-3.135 22.909 22.909 0 0 0 24.87-2.629 23.945 23.945 0 0 1 .491 4.827v17.4a23.951 23.951 0 0 1-19.391 23.5 23.931 23.931 0 0 1-4.548.433 23.974 23.974 0 0 1-23.729-20.787zm23.731 31.888l-2.545-3.251 2.546-2.771 2.545 2.77zm-6.339-3.887l-2.732-5.543a26.921 26.921 0 0 0 6.5 1.437zm1.583 3.042l2.709 3.46-.668.853-2.1-4.253zm4.756 6.075l1.133 1.448-1.133 2.3-1.133-2.3zm2.715-1.762l-.668-.853 2.709-3.46.055.06zm3.625-7.355l-3.771-4.1c.87-.082 1.735-.205 2.588-.37a26.957 26.957 0 0 0 3.911-1.061zm-20.08-7.724l12.294 24.948c.02.04.044.077.067.115h-4.23l-5.262-5.262 2.235-4.641a1.608 1.608 0 0 0-.088-1.557 1.615 1.615 0 0 0-1.365-.755h-5l-2.792-12.92q.753-.843 1.588-1.623a27.322 27.322 0 0 0 2.553 1.7zm-10.2 15.844a23.9 23.9 0 0 1 3.505-12.48l2.466 11.435a1.611 1.611 0 0 0 1.576 1.272h3.744l-1.618 3.36a1.612 1.612 0 0 0 .313 1.839l3.791 3.791h-9.344l-4.425-4.386v-4.832zM168.5-541.231a1.261 1.261 0 0 1 1.259-1.259 1.26 1.26 0 0 1 1.259 1.259v2.1H168.5v-2.1zm-12.575 7.773a2.454 2.454 0 0 1 2.45-2.45h11.335l-6.186 6.053-5.659-1.207a2.461 2.461 0 0 1-1.936-2.392zm10.4 5.376l7.334-7.176 13.441 13.317h-14.674zm61.854-19.942c.327.327.642.665.948 1.009l-2.787 12.925h-5a1.617 1.617 0 0 0-1.365.755 1.614 1.614 0 0 0-.088 1.557l2.235 4.641-5.262 5.262h-4.23c.023-.038.047-.075.067-.115l12.285-24.928a26.838 26.838 0 0 0 2.567-1.709c.214.2.421.4.629.607z" class="prefix__cls-2" data-name="Path 651"/>
                <path id="prefix__Path_652" d="M184.12-616.153h-34.172a1.612 1.612 0 0 0-1.612 1.612 1.612 1.612 0 0 0 1.612 1.612h34.172a1.611 1.611 0 0 0 1.612-1.612 1.612 1.612 0 0 0-1.612-1.612z" class="prefix__cls-3" data-name="Path 652"/>
                <path id="prefix__Path_653" d="M184.12-608.095h-34.172a1.612 1.612 0 0 0-1.612 1.612 1.612 1.612 0 0 0 1.612 1.612h34.172a1.611 1.611 0 0 0 1.612-1.612 1.612 1.612 0 0 0-1.612-1.612z" class="prefix__cls-3" data-name="Path 653"/>
                <path id="prefix__Path_654" d="M184.117-600.036h-4.942a1.612 1.612 0 0 0-1.612 1.612 1.612 1.612 0 0 0 1.612 1.612h4.942a1.611 1.611 0 0 0 1.612-1.612 1.612 1.612 0 0 0-1.612-1.612z" class="prefix__cls-3" data-name="Path 654"/>
                <path id="prefix__Path_655" d="M149.946-596.812h22.781a1.611 1.611 0 0 0 1.612-1.612 1.612 1.612 0 0 0-1.612-1.612h-22.781a1.612 1.612 0 0 0-1.612 1.612 1.612 1.612 0 0 0 1.612 1.612z" class="prefix__cls-3" data-name="Path 655"/>
                <path id="prefix__Path_656" d="M149.946-588.753h34.174a1.611 1.611 0 0 0 1.612-1.612 1.612 1.612 0 0 0-1.612-1.612h-34.172a1.612 1.612 0 0 0-1.612 1.612 1.612 1.612 0 0 0 1.61 1.612z" class="prefix__cls-3" data-name="Path 656"/>
            </g>
        </g>
        <path id="prefix__Rectangle_1662-2" fill="none" d="M0 0H232.441V185.953H0z" data-name="Rectangle 1662-2" transform="translate(92.572 -654.79)"/>
    </g>
</svg>
