<svg xmlns="http://www.w3.org/2000/svg" width="22" height="22" viewBox="0 0 22 22">
    <defs>
        <style>
            .cls-2{fill:#339}
        </style>
    </defs>
    <g id="icon_State" transform="translate(22051 24666)">
        <g id="icon-_locatoin" transform="translate(-23761 -24997)">
            <path id="Rectangle_14" fill="none" d="M0 0H22V22H0z" transform="translate(1710 331)"/>
        </g>
        <g id="geography" transform="translate(-22049.355 -24664.336)">
            <path id="Path_77197" d="M16.382 5.083l-2.51 2.324-.416 1.465H11.4l-.268-.372c1.026-1.169 2.225-2.879 2.225-4.484a4.012 4.012 0 1 0-8.025 0 5.209 5.209 0 0 0 .78 2.5L4.9 6.081H1.341v2.061L.01 9.474v4.768l2.342 2.342H5.8l1.587 1.683H9.9v-1.3l.921-.771h2.109l.678 2.471h3.43l-.884-3.626.914-1.754v-3.133l1.613-2.791v-2.28zM9.345 1.094a2.922 2.922 0 0 1 2.918 2.918 5.881 5.881 0 0 1-1.6 3.342 15.949 15.949 0 0 1-1.32 1.426c-1.056-1-2.916-3.113-2.916-4.768a2.922 2.922 0 0 1 2.918-2.918zm8.24 5.976l-1.612 2.791v3.162l-.98 1.881.652 2.672h-1.2l-.678-2.471h-3.34L8.8 16.46v.713h-.941L6.272 15.49H2.805l-1.7-1.7V9.927L2.435 8.6V7.175h2.278l2.468.874a16.124 16.124 0 0 0 1.807 1.887l.357.307.355-.307c.038-.033.3-.26.665-.625l.459.655h3.457L14.841 8l1.97-1.824h.775z" class="cls-2"/>
            <path id="Path_77198" d="M214.248 66.643a1.642 1.642 0 1 0-1.642 1.642 1.644 1.644 0 0 0 1.642-1.642zm-2.19 0a.548.548 0 1 1 .548.548.549.549 0 0 1-.548-.548z" class="cls-2" transform="translate(-203.261 -62.631)"/>
        </g>
    </g>
</svg>
