<?xml version="1.0" encoding="utf-8"?>
<!-- Generator: Adobe Illustrator 22.1.0, SVG Export Plug-In . SVG Version: 6.00 Build 0)  -->
<svg version="1.1" id="Layer_1" xmlns="http://www.w3.org/2000/svg" xmlns:xlink="http://www.w3.org/1999/xlink" x="0px" y="0px"
	 viewBox="0 0 28 28" style="enable-background:new 0 0 28 28;" xml:space="preserve">
<style type="text/css">
	.st0{fill:#FFFFFF;}
	.st1{fill:#291F71;}
	.st2{fill:none;stroke:#291F71;stroke-width:4.609253e-02;stroke-linecap:round;stroke-miterlimit:10;}
	.st3{fill:#000045;}
	.st4{fill:#00CCCC;}
	.st5{fill:#231F20;}
	.st6{fill:none;stroke:#00CCCC;stroke-width:0.2599;stroke-miterlimit:10;}
</style>
<g>
	<path class="st0" d="M20.2,10c2.7,4.8-1.1,14-1.1,14s-10-0.8-13-5.9c-2.2-3.9-0.9-8.8,3-11.1S18,6.1,20.2,10z"/>
	<g>
		<g>
			<path class="st1" d="M18.8,16.7C18.8,16.7,18.8,16.8,18.8,16.7c-0.1,0.4-0.6,2.1-2.7,3.3c-2.4,1.4-4,0.5-4,0.5s1.9,1.7,4.2,0.3
				C18.9,19.3,18.9,16.7,18.8,16.7"/>
			<g>
				<circle class="st1" cx="18.8" cy="16.6" r="0.2"/>
				<path class="st2" d="M11.9,20.2c0,0-0.1,0.2-0.1,0.3"/>
				<path class="st2" d="M11.8,20.1c0,0-0.2,0.4-0.2,0.9"/>
			</g>
		</g>
		<ellipse class="st3" cx="22" cy="23.6" rx="1.9" ry="0.1"/>
		<ellipse class="st3" cx="14.8" cy="27.3" rx="1.9" ry="0.1"/>
		<path class="st4" d="M16.5,3.5c-0.8-1.4-2.6-1.9-4-1.1l-1.6,0.9l-1-1.8l0-0.1L4,4.7l0,0.1l1,1.8L3.5,7.5c-1.4,0.8-1.9,2.6-1.1,4
			l3.4,6C4,13.7,5.4,9.1,9.2,7c3.7-2.1,8.5-0.9,10.8,2.6L16.5,3.5z M5.6,6.4l-1-1.8l4.9-2.8l1,1.8L5.6,6.4z"/>
		<path class="st4" d="M19.1,24l-2.5,1.4l-0.2,0.1l-1.9,1.1l-0.1,0.1c-1.4,0.8-3.2,0.3-4-1.1l-4-7.1C9.7,23.4,19.1,24,19.1,24z"/>
		<path class="st4" d="M24.5,17.6c0.8,1.4,0.3,3.1-1.1,4c0,0,0,0,0,0l-0.2,0.1l-1.9,1.1L19.1,24c0,0,3.7-8.5,1.3-13.6L24.5,17.6z"/>
		<path class="st1" d="M11,15c-0.8-1.4-0.6-3.1,0.5-3.8c-1.4,0.9-1.9,2.7-1.1,4.1c0.8,1.4,2.6,2,4.1,1.2C13.3,17.1,11.8,16.5,11,15z
			"/>
		<path class="st4" d="M23.4,21.6c0,0,0.1,0.1,0.1,0.1c0,0,0,0.1,0,0.1c0,0,0,0,0,0c0,0.1,0,0.1,0,0.2c0,0.1,0,0.2,0,0.3
			c0,0,0,0.1,0,0.1c0,0,0,0.1,0,0.1c0,0,0,0.1,0,0.1c0,0,0,0.1,0,0.1c-0.1,0.2-0.2,0.3-0.3,0.4c0,0,0,0,0,0c0,0,0,0,0,0c0,0,0,0,0,0
			l0,0c0,0-0.1,0-0.1,0.1c-0.6,0.3-1.4,0.1-1.7-0.5c0,0,0,0,0,0l1.9-1.1L23.4,21.6C23.4,21.6,23.4,21.6,23.4,21.6
			C23.4,21.6,23.4,21.6,23.4,21.6z"/>
		<path class="st4" d="M16.7,25.5c0,0.1,0.1,0.2,0.1,0.2c0,0.1,0,0.2,0,0.2c0,0.1,0,0.2,0,0.3c0,0,0,0,0,0.1c0,0,0,0,0,0.1
			c0,0,0,0.1,0,0.1c0,0,0,0.1,0,0.1c-0.1,0.1-0.2,0.3-0.3,0.4c0,0-0.1,0.1-0.1,0.1c0,0-0.1,0-0.1,0.1c0,0,0,0,0,0
			c-0.6,0.3-1.4,0.1-1.7-0.5c0,0,0,0,0-0.1l1.9-1.1L16.7,25.5C16.7,25.4,16.7,25.4,16.7,25.5z"/>
		<path class="st3" d="M16.7,25.4l-0.2,0.1c0,0,0,0,0,0.1c0.3,0.6,0.2,1.3-0.2,1.5c0,0,0.1,0,0.1-0.1c0,0,0.1-0.1,0.1-0.1
			c0.1-0.1,0.2-0.2,0.3-0.4c0,0,0-0.1,0-0.1c0,0,0-0.1,0-0.1c0,0,0,0,0-0.1c0,0,0,0,0-0.1c0-0.1,0-0.2,0-0.3c0-0.1,0-0.1,0-0.2
			C16.8,25.6,16.7,25.5,16.7,25.4C16.7,25.4,16.7,25.4,16.7,25.4z"/>
		<g>
			<path class="st5" d="M9.3,0.8l0.4,0.6L4.1,4.5L3.8,3.9L9.3,0.8 M9.4,0.6L3.5,3.9L4,4.7l5.8-3.3L9.4,0.6L9.4,0.6z"/>
		</g>
		<polygon class="st3" points="9.4,0.4 10,1.4 9.9,1.4 4,4.7 3.9,4.8 3.4,3.9 		"/>
		<path class="st3" d="M23,23.2C23,23.2,23,23.2,23,23.2C23,23.2,23.1,23.2,23,23.2L23,23.2z M23.4,21.5
			C23.4,21.5,23.4,21.5,23.4,21.5l-0.2,0.1l0,0c0.3,0.5,0.3,1.2-0.1,1.5c0,0,0,0,0,0c0,0,0,0,0.1,0c0,0,0,0,0,0
			c0.1-0.1,0.2-0.3,0.3-0.4c0,0,0-0.1,0-0.1c0,0,0-0.1,0-0.1c0,0,0-0.1,0-0.1c0,0,0-0.1,0-0.1c0-0.1,0-0.2,0-0.3c0-0.1,0-0.1,0-0.2
			c0,0,0,0,0,0c0,0,0-0.1,0-0.1C23.5,21.6,23.5,21.6,23.4,21.5C23.4,21.5,23.4,21.5,23.4,21.5z"/>
		<ellipse transform="matrix(0.6129 -0.7902 0.7902 0.6129 -5.8956 15.6684)" class="st6" cx="13" cy="13.9" rx="3.1" ry="3.1"/>
	</g>
</g>
</svg>
