<svg xmlns="http://www.w3.org/2000/svg" id="icon_-_Account" width="72" height="72" viewBox="0 0 72 72">
    <defs>
        <style>
            .cls-2{fill:#c6c6c6;stroke:#c6c6c6}
        </style>
    </defs>
    <path id="Rectangle_3654" fill="none" d="M0 0H72V72H0z"/>
    <g id="edit" transform="translate(6.068 7.412)">
        <path id="Path_76766" d="M53.909 69.859a1.452 1.452 0 0 0-1.455 1.449v12.864a4.36 4.36 0 0 1-4.364 4.347H7.273a4.36 4.36 0 0 1-4.364-4.347V46.416a4.36 4.36 0 0 1 4.364-4.346h12.916a1.449 1.449 0 1 0 0-2.9H7.273A7.267 7.267 0 0 0 0 46.416v37.756a7.267 7.267 0 0 0 7.273 7.244H48.09a7.267 7.267 0 0 0 7.273-7.244V71.308a1.452 1.452 0 0 0-1.454-1.449zm0 0" class="cls-2" transform="translate(0 -33.103)"/>
        <path id="Path_76767" d="M150.061 2.317a7.019 7.019 0 0 0-9.926 0l-27.828 27.827a1.559 1.559 0 0 0-.4.687l-3.659 13.211a1.559 1.559 0 0 0 1.919 1.92l13.211-3.66a1.559 1.559 0 0 0 .687-.4l27.827-27.828a7.027 7.027 0 0 0 0-9.926zm-34.356 28.841L138.48 8.383l7.345 7.345L123.05 38.5zm-1.467 2.942l5.868 5.869-8.117 2.249zm35.447-22.234l-1.654 1.654-7.346-7.346 1.655-1.654a3.9 3.9 0 0 1 5.514 0l1.831 1.83a3.905 3.905 0 0 1 0 5.518zm0 0" class="cls-2" transform="translate(-95.315 -.261)"/>
    </g>
</svg>
