<svg xmlns="http://www.w3.org/2000/svg" width="72" height="72" viewBox="0 0 72 72">
    <defs>
        <style>
            .cls-2{fill:#0cc}
        </style>
    </defs>
    <g id="icon_color_-Ads" transform="translate(-297 -135)">
        <g id="Group_8330" transform="translate(-14495 12614)">
            <g id="Group_8329">
                <path id="Rectangle_3847" fill="none" d="M0 0H72V72H0z" transform="translate(14792 -12479)"/>
            </g>
        </g>
        <g id="speaker_1_" transform="translate(270.697 135.525)">
            <g id="Group_8336" transform="translate(30.849 2.666)">
                <g id="Group_8335">
                    <path id="Path_76879" d="M88.941 44.619L65.256 20.934a6.281 6.281 0 0 0-9.647 7.955l-.033.165a43.821 43.821 0 0 1-12.022 22.464L32.69 62.381a6.277 6.277 0 0 0 0 8.882l5.921 5.921a6.277 6.277 0 0 0 8.882 0l1.48-1.48 10.362 10.362a6.28 6.28 0 0 0 8.881-8.881l-4.441-4.441 1.48-1.48a6.276 6.276 0 0 0 0-8.881l-1.005-1.008A43.827 43.827 0 0 1 80.821 54.3l.167-.033a6.288 6.288 0 0 0 7.953-.765 6.288 6.288 0 0 0 0-8.883zm-44.408 29.6a2.093 2.093 0 0 1-2.961 0L35.651 68.3a2.092 2.092 0 0 1 0-2.96l10.362-10.36 8.882 8.882zm20.724 5.921A2.093 2.093 0 0 1 62.3 83.1L51.934 72.743l2.961-2.96zm-7.4-13.322c.629-.629 1.571-1.593 3.058-2.863l1.385 1.387a2.092 2.092 0 0 1 0 2.96l-1.48 1.48zm.089-5.832l-9.06-9.06a47.94 47.94 0 0 0 10.19-19.409L77.357 50.8a47.937 47.937 0 0 0-19.413 10.19zM85.98 50.539a2.092 2.092 0 0 1-2.96 0L59.335 26.855a2.093 2.093 0 0 1 2.961-2.96L85.98 47.579a2.1 2.1 0 0 1 0 2.96z" class="cls-2" transform="translate(-30.849 -19.098)"/>
                </g>
            </g>
            <g id="Group_8338" transform="translate(40.959 45.337)">
                <g id="Group_8337">
                    <path id="Path_76880" d="M109.8 325.375a2.093 2.093 0 0 0-2.96 0l-2.96 2.96a2.093 2.093 0 0 0 2.96 2.96l2.96-2.96a2.093 2.093 0 0 0 0-2.96z" class="cls-2" transform="translate(-103.266 -324.762)"/>
                </g>
            </g>
            <g id="Group_8340" transform="translate(72.777)">
                <g id="Group_8339">
                    <path id="Path_76881" d="M333.287 0a2.093 2.093 0 0 0-2.093 2.093V6.28a2.093 2.093 0 1 0 4.187 0V2.093A2.093 2.093 0 0 0 333.287 0z" class="cls-2" transform="translate(-331.194)"/>
                </g>
            </g>
            <g id="Group_8342" transform="translate(85.338 16.747)">
                <g id="Group_8341">
                    <path id="Path_76882" d="M427.449 119.966h-4.187a2.093 2.093 0 1 0 0 4.187h4.187a2.093 2.093 0 0 0 0-4.187z" class="cls-2" transform="translate(-421.169 -119.966)"/>
                </g>
            </g>
            <g id="Group_8344" transform="translate(81.151 4.187)">
                <g id="Group_8343">
                    <path id="Path_76883" d="M398.939 30.6a2.094 2.094 0 0 0-2.961 0l-4.187 4.187a2.093 2.093 0 0 0 2.96 2.96l4.187-4.187a2.094 2.094 0 0 0 .001-2.96z" class="cls-2" transform="translate(-391.178 -29.991)"/>
                </g>
            </g>
        </g>
    </g>
</svg>
