<svg xmlns="http://www.w3.org/2000/svg" width="72" height="72" viewBox="0 0 72 72">
    <defs>
        <style>
            .cls-2{fill:#0cc}
        </style>
    </defs>
    <g id="icon_color_-_Password_recovery" transform="translate(-.8 -.799)">
        <path id="Rectangle_3654" fill="none" d="M0 0H72V72H0z" transform="translate(.8 .799)"/>
        <g id="login" transform="translate(4.8 4.8)">
            <g id="Group_7983">
                <g id="Group_7982">
                    <path id="Path_76776" d="M16.635 58.493H7.678a2.588 2.588 0 0 1-2.024-.943 2.551 2.551 0 0 1-.536-2.171A27.807 27.807 0 0 1 31.739 33.7c.214.008.429.013.645.013s.434-.005.65-.013a28.216 28.216 0 0 1 9.138 1.725 2.546 2.546 0 0 0 3.258-1.455 2.464 2.464 0 0 0-1.479-3.192q-.628-.231-1.264-.435a16.729 16.729 0 0 0 6.9-13.49 17.207 17.207 0 0 0-34.408 0 16.73 16.73 0 0 0 6.912 13.5 33.082 33.082 0 0 0-10.6 5.708A32.232 32.232 0 0 0 .164 54.37a7.412 7.412 0 0 0 1.564 6.309 7.7 7.7 0 0 0 5.95 2.771h8.957a2.479 2.479 0 1 0 0-4.957zm3.605-41.639a12.146 12.146 0 0 1 24.288 0 12.023 12.023 0 0 1-11.553 11.883c-.2 0-.394-.006-.591-.006s-.4 0-.593.006A12.023 12.023 0 0 1 20.24 16.854z" class="cls-2"/>
                    <path id="Path_76777" d="M186.513 316.651a6.226 6.226 0 0 0-5.681-3.651h-7.221a6.117 6.117 0 0 0-5.78 3.906c-.121.316-.27.714-.425 1.178h-15.127a2.311 2.311 0 0 0-1.658.7l-3.969 4.088a2.31 2.31 0 0 0 .01 3.229l4.043 4.114a2.31 2.31 0 0 0 1.648.691h7.509a2.311 2.311 0 1 0 0-4.621h-6.54l-1.782-1.814 1.716-1.768h15.884a2.31 2.31 0 0 0 2.244-1.761 19.1 19.1 0 0 1 .761-2.379 1.514 1.514 0 0 1 1.472-.943h7.21a1.576 1.576 0 0 1 1.468.916 14.922 14.922 0 0 1 1.366 5.89 15.361 15.361 0 0 1-1.356 6 1.578 1.578 0 0 1-1.451.946h-7.3a1.645 1.645 0 0 1-1.49-1.023 15.355 15.355 0 0 1-.716-2.287 2.31 2.31 0 1 0-4.494 1.076 19.883 19.883 0 0 0 .938 2.973 6.233 6.233 0 0 0 5.756 3.882h7.307a6.2 6.2 0 0 0 5.682-3.72 20 20 0 0 0 1.741-7.853 19.562 19.562 0 0 0-1.765-7.769z" class="cls-2" transform="translate(-124.831 -272.539)"/>
                    <ellipse id="Ellipse_244" cx="3.226" cy="2.151" class="cls-2" rx="3.226" ry="2.151" transform="translate(48.967 45.85)"/>
                </g>
            </g>
        </g>
    </g>
</svg>
