<svg xmlns="http://www.w3.org/2000/svg" width="72" height="72" viewBox="0 0 72 72">
    <defs>
        <style>
            .cls-2{fill:#0cc;stroke:#0cc}
        </style>
    </defs>
    <g id="icon_color_-_Financial_account" transform="translate(-14792 12479)">
        <g id="Group_8329">
            <path id="Rectangle_3847" fill="none" d="M0 0H72V72H0z" transform="translate(14792 -12479)"/>
            <g id="money" transform="translate(14798 -12480.982)">
                <g id="Group_8314" transform="translate(0 27.325)">
                    <g id="Group_8313">
                        <path id="Path_76871" d="M51.764 160.017H.872a.871.871 0 0 0-.872.87v24.429a.871.871 0 0 0 .87.872h34.607a.872.872 0 1 0 0-1.744H1.745v-22.682H50.89v2.181a.871.871 0 0 0 .87.872.871.871 0 0 0 .872-.87v-3.055a.871.871 0 0 0-.868-.873z" class="cls-2" transform="translate(0 -160.017)"/>
                    </g>
                </g>
                <g id="Group_8316" transform="translate(2.035 14.094)">
                    <g id="Group_8315">
                        <path id="Path_76872" d="M59.807 65.2l-40.712-9.16a.872.872 0 0 0-1.043.662l-2.036 9.16a.873.873 0 0 0 1.7.379l1.845-8.306L59.424 66.9a.823.823 0 0 0 .192.021.872.872 0 0 0 .19-1.723z" class="cls-2" transform="translate(-15.995 -56.019)"/>
                    </g>
                </g>
                <g id="Group_8318" transform="translate(13.215 7.982)">
                    <g id="Group_8317">
                        <path id="Path_76873" d="M131.562 18.228L107.135 8.05a.875.875 0 0 0-1.12.416l-2.036 4.071a.875.875 0 1 0 1.54.833q.014-.025.025-.051l1.67-3.342 23.673 9.863a.875.875 0 1 0 .674-1.614z" class="cls-2" transform="translate(-103.875 -7.982)"/>
                    </g>
                </g>
                <g id="Group_8320" transform="translate(32.569 31.396)">
                    <g id="Group_8319">
                        <path id="Path_76874" d="M264.95 192.017h-8.078a.872.872 0 1 0 0 1.745h8.078a.872.872 0 0 0 0-1.745z" class="cls-2" transform="translate(-256 -192.017)"/>
                    </g>
                </g>
                <g id="Group_8322" transform="translate(16.343 31.454)">
                    <g id="Group_8321">
                        <path id="Path_76875" d="M137.413 192.473a8.957 8.957 0 1 0 8.957 8.957 8.957 8.957 0 0 0-8.957-8.957zm0 16.285a7.328 7.328 0 1 1 7.328-7.328 7.328 7.328 0 0 1-7.328 7.328z" class="cls-2" transform="translate(-128.456 -192.473)"/>
                    </g>
                </g>
                <g id="Group_8324" transform="translate(38.531 34.304)">
                    <g id="Group_8323">
                        <path id="Path_76876" d="M314.052 214.873c-5.394 0-11.2 1.274-11.2 4.071v24.427c0 2.8 5.8 4.071 11.2 4.071s11.2-1.274 11.2-4.071v-24.427c-.005-2.797-5.806-4.071-11.2-4.071zm9.16 28.483c-.154.565-3.206 2.051-9.16 2.051s-9.006-1.486-9.16-2.036v-1.6c2.166 1.091 5.743 1.6 9.16 1.6s7-.514 9.16-1.6zm0-4.071c-.154.565-3.206 2.051-9.16 2.051s-9.006-1.486-9.16-2.036v-1.6c2.166 1.091 5.743 1.6 9.16 1.6s7-.514 9.16-1.6zm0-4.071c-.154.565-3.206 2.051-9.16 2.051s-9.006-1.486-9.16-2.036v-1.6c2.166 1.091 5.743 1.6 9.16 1.6s7-.514 9.16-1.6zm0-4.071c-.154.565-3.206 2.051-9.16 2.051s-9.006-1.486-9.16-2.036v-1.6c2.166 1.091 5.743 1.6 9.16 1.6s7-.514 9.16-1.6zm0-4.071c-.154.565-3.206 2.051-9.16 2.051s-9.006-1.486-9.16-2.036v-1.6c2.166 1.086 5.743 1.6 9.16 1.6s7-.514 9.16-1.6zm0-4.071c-.154.565-3.206 2.051-9.16 2.051s-9.006-1.486-9.16-2.036v-1.6c2.166 1.086 5.743 1.6 9.16 1.6s7-.514 9.16-1.6zm-9.16-2.02c-5.945 0-9-1.482-9.16-2.017v-.006c.164-.567 3.215-2.048 9.16-2.048 5.9 0 8.957 1.46 9.16 2.036-.204.574-3.257 2.034-9.16 2.034z" class="cls-2" transform="translate(-302.856 -214.873)"/>
                    </g>
                </g>
                <g id="Group_8326" transform="translate(4.07 31.396)">
                    <g id="Group_8325">
                        <path id="Path_76877" d="M45.079 208.3h-7.694l-3.648-3.99v-6.61l4.028-3.934h7.313a.872.872 0 0 0 0-1.745h-7.666a.873.873 0 0 0-.611.247l-4.546 4.432a1.093 1.093 0 0 0-.263.712v7.239a.873.873 0 0 0 .228.588l4.135 4.523a.872.872 0 0 0 .644.284h8.079a.872.872 0 1 0 0-1.744z" class="cls-2" transform="translate(-31.992 -192.017)"/>
                    </g>
                </g>
                <g id="Group_8328" transform="translate(22.246 35.83)">
                    <g id="Group_8327">
                        <path id="Path_76878" fill="#0cc" d="M178.418 230.435H177.4c-.317 0-.509-.177-.509-.254s.192-.254.509-.254h2.544a1.018 1.018 0 0 0 0-2.036h-1.018a1.018 1.018 0 0 0-2.036 0v.046a2.369 2.369 0 0 0-2.036 2.239 2.431 2.431 0 0 0 2.544 2.3h1.018c.317 0 .509.177.509.254s-.192.254-.509.254h-2.544a1.018 1.018 0 1 0 0 2.036h1.018a1.018 1.018 0 0 0 2.036 0v-.046a2.369 2.369 0 0 0 2.036-2.239 2.431 2.431 0 0 0-2.544-2.3z" transform="translate(-174.856 -226.873)"/>
                    </g>
                </g>
            </g>
        </g>
    </g>
</svg>
