<svg xmlns="http://www.w3.org/2000/svg" width="72.305" height="72" viewBox="0 0 72.305 72">
    <g>
        <path fill="#c6c6c6" stroke="#c6c6c6" stroke-width="0.5px" d="M264.83 798.3c-7.642-6.507-19.072-5.425-26.166 1.894l-2.764 2.866-2.76-2.85c-5.721-5.914-17.263-9.477-26.166-1.907a20.121 20.121 0 0 0-1.391 29.141l27.136 28.02a4.414 4.414 0 0 0 3.168 1.36 4.362 4.362 0 0 0 3.173-1.36l27.136-28.02a20.1 20.1 0 0 0-1.366-29.144zm-1.835 26.027l-27.037 28.02-27.149-28.02c-5.385-5.551-6.507-16.141 1.081-22.6 7.683-6.565 16.716-1.809 20.023 1.611l5.986 6.183 5.991-6.183c3.253-3.366 12.367-8.131 20.023-1.611 7.575 6.448 6.466 17.039 1.081 22.6z" transform="translate(15860.052 16449) translate(-16059.799 -17238.887)"/>
        <path fill="none" d="M0 0H72V72H0z" transform="translate(15860.052 16449) translate(-15860 -16449)"/>
    </g>
</svg>
