<svg xmlns="http://www.w3.org/2000/svg" width="72" height="72" viewBox="0 0 72 72">
    <g>
        <path fill="none" stroke="#c6c6c6" stroke-width="4px" d="M257.283 404.112h-47.407a9.016 9.016 0 0 0-8.988 9.024v29.12a9.017 9.017 0 0 0 8.956 9.024v13.215l18.916-13.215h28.523a9.013 9.013 0 0 0 8.988-9.024v-29.12a9.013 9.013 0 0 0-8.988-9.024zm-37.307 26.273a3.8 3.8 0 1 1 3.783-3.8 3.791 3.791 0 0 1-3.784 3.8zm13.6 0a3.8 3.8 0 1 1 3.783-3.8 3.791 3.791 0 0 1-3.785 3.8zm13.6 0a3.8 3.8 0 1 1 3.783-3.8 3.791 3.791 0 0 1-3.787 3.8z" transform="translate(15269.5 16459) translate(-15466.575 -16859.297)"/>
        <g>
            <g>
                <path fill="none" d="M0 0H72V72H0z" transform="translate(15269.5 16459) translate(-15269.5 -16459)"/>
            </g>
        </g>
    </g>
</svg>
